<?xml version="1.0" encoding="UTF-8"?>
<!DOCTYPE svg PUBLIC "-//W3C//DTD SVG 1.1//EN" "http://www.w3.org/Graphics/SVG/1.1/DTD/svg11.dtd">
<!-- Creator: CorelDRAW X7 -->
<svg xmlns="http://www.w3.org/2000/svg" xml:space="preserve" width="15.8372mm" height="19.5146mm" version="1.1" style="shape-rendering:geometricPrecision; text-rendering:geometricPrecision; image-rendering:optimizeQuality; fill-rule:evenodd; clip-rule:evenodd"
viewBox="0 0 220 271"
 xmlns:xlink="http://www.w3.org/1999/xlink">
 <defs>
  <style type="text/css">
   <![CDATA[
    .fil0 {fill:#373435}
   ]]>
  </style>
 </defs>
 <g id="DESIGNED_x0020_BY_x0020_FREEPIK">
  <metadata id="CorelCorpID_0Corel-Layer"/>
  <g id="_2827056464560">
   <path class="fil0" d="M27 78l18 118c2,13 12,24 21,34 14,17 34,28 54,40 3,1 4,1 6,0 21,-12 40,-23 55,-40 9,-10 19,-21 20,-34l19 -118c-20,-4 -40,-7 -61,-9 4,4 6,8 9,12 13,2 26,3 39,6l-17 108c-1,10 -11,20 -18,28 -13,15 -31,25 -49,35 -17,-10 -35,-20 -49,-35 -6,-8 -16,-18 -17,-28l-17 -108c13,-3 26,-4 39,-6 2,-4 5,-8 8,-12 -20,2 -40,5 -60,9z"/>
   <path class="fil0" d="M139 206c-10,3 -21,3 -31,0 -2,5 -3,11 -5,17 -13,-19 -17,-25 -35,-38 3,-27 3,-51 0,-78l2 0c6,-25 17,-48 42,-53 1,3 2,5 4,7 -20,4 -32,20 -37,42 11,1 23,-3 34,-6 -13,9 -24,16 -37,17 3,21 2,48 0,67 10,8 15,11 24,24 5,-16 10,-41 9,-60l-21 -9 1 -13 -5 -6 29 12 4 -2 -1 3c1,9 0,19 -2,27l9 9 10 -9c-2,-8 -3,-18 -2,-27l-1 -3 4 2 28 -12 -4 6 1 13 -21 9c-2,19 4,44 9,60 9,-13 14,-16 24,-24 -3,-19 -3,-46 -1,-67 -12,-1 -24,-8 -36,-17 11,3 23,7 34,6 -5,-22 -17,-37 -35,-41 1,-3 2,-5 3,-7 24,5 35,27 40,52l3 0c-3,27 -4,51 0,78 -18,13 -22,19 -35,38 -2,-6 -4,-12 -5,-17z"/>
   <path class="fil0" d="M123 12c15,8 21,20 12,37 2,-13 -2,-25 -12,-37zm0 61c-2,-11 -7,-21 -15,-32 4,0 8,2 12,5 -6,-8 -15,-13 -34,-9 2,-4 8,-7 16,-9 -10,-1 -21,3 -35,18 -21,20 -36,14 -50,7 15,0 24,-2 29,-5 -22,5 -37,-1 -46,-21 21,16 40,6 60,-14 19,-16 38,-17 55,-4 -21,-4 -33,0 -39,9 20,-9 37,-9 46,6 0,-2 -1,-5 -3,-8 2,1 3,3 4,4 8,11 9,27 0,53z"/>
  </g>
 </g>
</svg>
