<?xml version="1.0" encoding="UTF-8"?>
<!DOCTYPE svg PUBLIC "-//W3C//DTD SVG 1.1//EN" "http://www.w3.org/Graphics/SVG/1.1/DTD/svg11.dtd">
<!-- Creator: CorelDRAW X7 -->
<svg xmlns="http://www.w3.org/2000/svg" xml:space="preserve" width="17.3974mm" height="21.0725mm" version="1.1" style="shape-rendering:geometricPrecision; text-rendering:geometricPrecision; image-rendering:optimizeQuality; fill-rule:evenodd; clip-rule:evenodd"
viewBox="0 0 275 333"
 xmlns:xlink="http://www.w3.org/1999/xlink">
 <defs>
  <style type="text/css">
   <![CDATA[
    .fil0 {fill:#FEFEFE}
    .fil7 {fill:#FEFEFE}
    .fil6 {fill:#201E1E}
    .fil1 {fill:#201E1E}
    .fil4 {fill:#25B8EB}
    .fil2 {fill:#25B8EB}
    .fil5 {fill:#2A94BA}
    .fil3 {fill:#7FDBFF}
    .fil8 {fill:#7FDBFF}
    .fil9 {fill:url(#id0)}
   ]]>
  </style>
  <linearGradient id="id0" gradientUnits="userSpaceOnUse" x1="6.02188" y1="47.894" x2="171.672" y2="47.894">
   <stop offset="0" style="stop-opacity:1; stop-color:#DB000C"/>
   <stop offset="0.670588" style="stop-opacity:1; stop-color:#AF000A"/>
   <stop offset="0.811765" style="stop-opacity:1; stop-color:#890010"/>
   <stop offset="1" style="stop-opacity:1; stop-color:#820007"/>
  </linearGradient>
 </defs>
 <g id="DESIGNED_x0020_BY_x0020_FREEPIK">
  <metadata id="CorelCorpID_0Corel-Layer"/>
  <g id="_2827056412496">
   <path class="fil0" d="M37 90c76,-17 155,-17 231,0l7 2 -23 147c-2,17 -15,31 -26,43 -18,21 -43,35 -66,49 -5,2 -9,2 -14,0 -24,-14 -48,-28 -67,-49 -11,-12 -23,-26 -26,-43l-22 -147 6 -2z"/>
   <path class="fil1" d="M38 97l22 141c2,15 14,28 24,40 18,20 41,33 65,47 3,1 5,1 7,0 24,-14 48,-27 65,-47 10,-12 22,-25 25,-40l21 -141c-75,-17 -153,-17 -229,0z"/>
   <path class="fil2" d="M153 98l0 213c20,-12 42,-24 58,-42 8,-9 19,-21 21,-33l20 -128c-33,-7 -66,-10 -99,-10z"/>
   <path class="fil3" d="M153 98l0 213c-21,-11 -43,-24 -58,-42 -8,-9 -20,-21 -22,-33l-19 -128c32,-7 65,-10 99,-10z"/>
   <path class="fil4" d="M153 311l0 -14c-18,-10 -36,-22 -50,-38 -8,-9 -18,-19 -21,-32l-22 -120c-2,0 -4,0 -6,1l19 128c2,12 14,24 22,33 15,18 37,31 58,42z"/>
   <path class="fil5" d="M153 311l0 -14c17,-10 34,-22 48,-38 8,-9 18,-19 21,-32l22 -121c3,1 5,1 8,2l-20 128c-2,12 -13,24 -21,33 -16,18 -38,30 -58,42z"/>
   <path class="fil0" d="M171 249c-12,3 -24,3 -37,0 -2,7 -3,13 -5,20 -16,-22 -21,-29 -43,-45 5,-32 4,-61 0,-93l4 0c7,-33 23,-64 63,-64 39,0 55,31 63,64l3 0c-4,32 -4,61 0,93 -22,16 -27,23 -42,45 -2,-7 -4,-13 -6,-20z"/>
   <path class="fil6" d="M174 243c-14,5 -29,5 -43,0 -1,5 -3,10 -4,15 -12,-16 -19,-24 -36,-36 4,-29 4,-57 1,-86l2 -5c7,-31 22,-59 59,-59 36,0 51,28 58,59l3 5c-4,29 -4,56 0,86 -17,12 -24,20 -36,36 -1,-5 -2,-10 -4,-15z"/>
   <path class="fil7" d="M153 110l4 -17c4,-11 8,-18 13,-28 14,-27 0,-44 -17,-53 -6,-4 -12,-6 -18,-7 -20,-10 -46,-4 -61,12 -11,11 -26,24 -42,24 -9,0 -17,-2 -23,-8 -7,-6 -12,-4 -7,6 5,11 12,19 20,24l-10 -1c-3,0 -4,2 0,3l13 7c5,2 11,5 17,7 18,4 34,-4 46,-17 4,-4 9,-8 15,-12 -1,5 2,5 7,3 5,-1 9,-2 14,-2 3,1 5,4 6,6 9,10 15,22 18,35l5 18z"/>
   <path class="fil0" d="M153 77c28,0 45,20 52,50 -13,0 -26,-4 -40,-7 15,11 29,19 44,20 -3,25 -3,57 0,80 -12,8 -18,13 -29,28 -5,-20 -12,-49 -10,-71l25 -12 -2 -15 6 -6 -34 14 -5 -3 2 4c-1,10 -1,22 2,32l-11 11 -12 -11c3,-10 4,-22 3,-32l1 -4 -5 3 -34 -14 6 6 -2 15 25 12c2,22 -5,51 -10,71 -11,-15 -17,-20 -29,-28 3,-23 4,-55 1,-80 15,-1 28,-9 44,-20 -14,3 -28,7 -41,7 7,-30 24,-50 53,-50z"/>
   <path class="fil8" d="M125 248c-11,-17 -26,-62 -26,-83 0,12 -1,42 -3,55 12,8 22,17 29,28zm15 -90l5 -3 -41 -15 7 24 1 -13 -6 -7 34 14zm-16 -73c-12,9 -20,23 -24,42 10,0 20,-1 33,-5 -9,1 -18,1 -25,0 1,-14 7,-26 16,-37z"/>
   <path class="fil2" d="M180 248c12,-17 26,-62 27,-83 -1,12 1,42 2,55 -11,8 -21,17 -29,28zm-15 -90l-5 -3 42 -15 -7 24 -2 -13 6 -7 -34 14zm16 -73c12,9 20,23 24,42 -10,0 -20,-1 -32,-5 8,1 17,1 24,0 -1,-14 -7,-26 -16,-37z"/>
   <path class="fil9" d="M153 19c17,10 25,23 13,43 3,-15 -2,-29 -13,-43zm0 72c-3,-13 -9,-25 -19,-37 6,-1 10,1 15,5 -7,-10 -18,-16 -40,-11 2,-5 9,-8 18,-10 -12,-2 -25,4 -42,21 -25,24 -42,16 -58,8 17,1 28,-2 34,-6 -26,6 -45,-1 -55,-24 25,18 48,7 71,-17 23,-20 45,-20 66,-5 -25,-5 -39,0 -46,10 24,-10 43,-11 54,8 0,-3 -1,-7 -3,-10 1,2 3,4 4,6 9,12 11,31 1,62z"/>
  </g>
 </g>
</svg>
