<?xml version="1.0" encoding="UTF-8"?>
<!DOCTYPE svg PUBLIC "-//W3C//DTD SVG 1.1//EN" "http://www.w3.org/Graphics/SVG/1.1/DTD/svg11.dtd">
<!-- Creator: CorelDRAW X7 -->
<svg xmlns="http://www.w3.org/2000/svg" xml:space="preserve" width="29.3279mm" height="36.1381mm" version="1.1" style="shape-rendering:geometricPrecision; text-rendering:geometricPrecision; image-rendering:optimizeQuality; fill-rule:evenodd; clip-rule:evenodd"
viewBox="0 0 6616 8152"
 xmlns:xlink="http://www.w3.org/1999/xlink">
 <defs>
  <style type="text/css">
   <![CDATA[
    .fil0 {fill:#373435}
   ]]>
  </style>
 </defs>
 <g id="DESIGNED_x0020_BY_x0020_FREEPIK">
  <metadata id="CorelCorpID_0Corel-Layer"/>
  <g id="_2827140031216">
   <path class="fil0" d="M818 2350l545 3568c60,392 357,719 619,1016 443,502 1036,852 1646,1191 70,39 118,34 181,-1 606,-344 1201,-689 1642,-1190 263,-297 560,-624 620,-1016l545 -3568c-598,-134 -1204,-226 -1812,-276 95,110 175,236 245,372 393,40 785,99 1174,176l-495 3244c-47,304 -339,614 -537,839 -398,452 -952,776 -1475,1072 -524,-293 -1074,-620 -1473,-1072 -198,-225 -491,-535 -537,-839l-496 -3244c389,-77 781,-136 1175,-176 69,-136 150,-262 245,-372 -609,50 -1214,142 -1812,276z"/>
   <path class="fil0" d="M4183 6202c-311,80 -622,80 -933,1 -46,168 -93,336 -140,504 -399,-558 -517,-738 -1074,-1142 110,-819 99,-1532 0,-2345l82 -4c174,-745 503,-1424 1252,-1582 41,70 79,143 112,218 -584,101 -943,583 -1101,1260 335,11 679,-93 1030,-181 -388,274 -734,487 -1114,508 77,629 67,1436 -12,2019 310,225 455,332 731,718 138,-493 311,-1231 255,-1798l-623 -292 40 -384 -148 -169 859 357 122 -59 -34 95c32,251 15,555 -56,807l286 271 285 -271c-63,-252 -85,-556 -55,-807l-35 -95 123 59 858 -357 -148 169 41 384 -624 292c-56,567 117,1305 255,1798 276,-386 421,-493 732,-718 -79,-583 -89,-1390 -13,-2019 -380,-21 -725,-234 -1113,-508 351,88 694,192 1030,181 -155,-660 -501,-1136 -1059,-1252 35,-72 72,-143 111,-217 719,174 1040,841 1211,1573l81 4c-98,813 -110,1526 1,2345 -557,404 -676,584 -1074,1142 -47,-169 -95,-337 -141,-505z"/>
   <path class="fil0" d="M3717 371c443,243 634,581 343,1102 62,-388 -68,-754 -343,-1102zm0 1839c-63,-329 -215,-650 -477,-960 146,-12 267,39 373,126 -172,-245 -444,-393 -1013,-261 59,-122 243,-197 461,-260 -288,-52 -630,91 -1057,536 -627,598 -1057,413 -1483,209 452,11 711,-56 864,-164 -655,164 -1127,-20 -1385,-611 623,464 1219,177 1803,-432 589,-497 1145,-504 1676,-127 -641,-113 -1002,4 -1185,269 608,-257 1108,-278 1378,201 5,-87 -23,-174 -82,-261 44,42 84,88 120,139 226,316 279,798 7,1596z"/>
  </g>
 </g>
</svg>
