<?xml version="1.0" encoding="UTF-8"?>
<!DOCTYPE svg PUBLIC "-//W3C//DTD SVG 1.1//EN" "http://www.w3.org/Graphics/SVG/1.1/DTD/svg11.dtd">
<!-- Creator: CorelDRAW X7 -->
<svg xmlns="http://www.w3.org/2000/svg" xml:space="preserve" width="8.4809mm" height="10.2724mm" version="1.1" style="shape-rendering:geometricPrecision; text-rendering:geometricPrecision; image-rendering:optimizeQuality; fill-rule:evenodd; clip-rule:evenodd"
viewBox="0 0 36 44"
 xmlns:xlink="http://www.w3.org/1999/xlink">
 <defs>
  <style type="text/css">
   <![CDATA[
    .fil0 {fill:#FEFEFE}
    .fil7 {fill:#FEFEFE}
    .fil6 {fill:#201E1E}
    .fil1 {fill:#201E1E}
    .fil4 {fill:#25B8EB}
    .fil2 {fill:#25B8EB}
    .fil5 {fill:#2A94BA}
    .fil3 {fill:#7FDBFF}
    .fil8 {fill:#7FDBFF}
    .fil9 {fill:url(#id0)}
   ]]>
  </style>
  <linearGradient id="id0" gradientUnits="userSpaceOnUse" x1="0.796888" y1="6.34081" x2="22.7265" y2="6.34081">
   <stop offset="0" style="stop-opacity:1; stop-color:#DB000C"/>
   <stop offset="0.670588" style="stop-opacity:1; stop-color:#AF000A"/>
   <stop offset="0.811765" style="stop-opacity:1; stop-color:#890010"/>
   <stop offset="1" style="stop-opacity:1; stop-color:#820007"/>
  </linearGradient>
 </defs>
 <g id="DESIGNED_x0020_BY_x0020_FREEPIK">
  <metadata id="CorelCorpID_0Corel-Layer"/>
  <g id="_2827056411728">
   <path class="fil0" d="M5 12c10,-2 20,-2 31,0l0 0 -3 20c0,2 -2,4 -3,5 -2,3 -6,5 -9,7 0,0 -1,0 -2,0 -3,-2 -6,-4 -9,-7 -1,-1 -3,-3 -3,-5l-3 -20 1 0z"/>
   <path class="fil1" d="M5 13l3 18c0,3 2,4 3,6 2,2 6,4 9,6 0,0 0,0 1,0 3,-2 6,-4 8,-6 2,-2 3,-3 4,-6l2 -18c-10,-2 -20,-2 -30,0z"/>
   <path class="fil2" d="M20 13l0 28c3,-1 6,-3 8,-5 1,-2 2,-3 3,-5l2 -17c-4,-1 -8,-1 -13,-1z"/>
   <path class="fil3" d="M20 13l0 28c-3,-1 -5,-3 -7,-5 -2,-2 -3,-3 -3,-5l-3 -17c4,-1 9,-1 13,-1z"/>
   <path class="fil4" d="M20 41l0 -2c-2,-1 -4,-3 -6,-5 -1,-1 -3,-2 -3,-4l-3 -16c0,0 -1,0 -1,0l3 17c0,2 1,3 3,5 2,2 4,4 7,5z"/>
   <path class="fil5" d="M20 41l0 -2c3,-1 5,-3 7,-5 1,-1 2,-2 2,-4l3 -16c1,0 1,0 1,0l-2 17c-1,2 -2,3 -3,5 -2,2 -5,4 -8,5z"/>
   <path class="fil0" d="M23 33c-2,0 -4,0 -5,0 0,1 -1,2 -1,3 -2,-3 -3,-4 -6,-6 1,-5 1,-8 0,-13l1 0c1,-4 3,-8 8,-8 5,0 8,4 9,8l0 0c-1,5 -1,8 0,13 -3,2 -4,3 -6,6 0,-1 0,-2 0,-3z"/>
   <path class="fil6" d="M23 32c-2,1 -4,1 -6,0 0,1 0,2 0,2 -2,-2 -3,-3 -5,-5 1,-3 1,-7 0,-11l0 -1c1,-4 3,-7 8,-7 5,0 7,3 8,7l0 1c0,4 0,7 0,11 -2,2 -3,3 -4,5 -1,0 -1,-1 -1,-2z"/>
   <path class="fil7" d="M20 15l1 -3c0,-1 1,-2 2,-3 1,-4 -1,-6 -3,-7 -1,-1 -1,-1 -2,-1 -3,-2 -6,-1 -8,1 -2,2 -4,3 -6,3 -1,0 -2,0 -3,-1 -1,0 -1,0 -1,1 1,2 2,3 3,3l-1 0c-1,0 -1,0 0,1l1 0c1,1 2,1 3,1 2,1 4,0 6,-2 0,0 1,-1 2,-1 -1,0 0,0 1,0 0,0 1,0 1,0 1,0 1,0 1,0 1,2 2,3 3,5l0 3z"/>
   <path class="fil0" d="M20 10c4,0 6,3 7,7 -2,0 -3,-1 -5,-1 2,1 4,2 6,3 -1,3 -1,7 0,10 -2,1 -3,2 -4,4 -1,-3 -2,-7 -1,-10l3 -1 0 -2 0 -1 -4 2 -1 0 0 0c0,1 0,3 1,4l-2 2 -1 -2c0,-1 0,-3 0,-4l0 0 0 0 -5 -2 1 1 0 2 3 1c0,3 -1,7 -1,10 -2,-2 -3,-3 -4,-4 0,-3 0,-7 0,-10 2,-1 4,-2 6,-3 -2,0 -4,1 -6,1 1,-4 3,-7 7,-7z"/>
   <path class="fil8" d="M17 33c-2,-2 -4,-8 -4,-11 0,1 0,5 0,7 1,1 3,2 4,4zm2 -12l0 0 -5 -3 1 4 0 -2 -1 -1 5 2zm-3 -10c-1,2 -2,3 -3,6 2,0 3,0 5,-1 -2,0 -3,0 -4,0 0,-2 1,-3 2,-5z"/>
   <path class="fil2" d="M24 33c1,-2 3,-8 3,-11 0,1 0,5 1,7 -2,1 -3,2 -4,4zm-2 -12l-1 0 6 -3 -1 4 0 -2 0 -1 -4 2zm2 -10c2,2 3,3 3,6 -1,0 -2,0 -4,-1 1,0 2,0 3,0 0,-2 -1,-3 -2,-5z"/>
   <path class="fil9" d="M20 3c3,1 4,3 2,5 0,-2 0,-4 -2,-5zm0 9c0,-2 -1,-3 -2,-5 0,0 1,0 2,1 -1,-2 -3,-2 -6,-2 1,0 2,-1 3,-1 -2,0 -4,1 -6,3 -3,3 -5,2 -7,1 2,0 3,0 4,-1 -3,1 -6,0 -7,-3 3,2 6,1 9,-2 3,-3 6,-3 9,-1 -3,-1 -5,0 -6,1 3,-1 6,-1 7,1 0,0 0,0 0,-1 0,0 0,1 0,1 1,1 2,4 0,8z"/>
  </g>
 </g>
</svg>
