<?xml version="1.0" encoding="UTF-8"?>
<!DOCTYPE svg PUBLIC "-//W3C//DTD SVG 1.1//EN" "http://www.w3.org/Graphics/SVG/1.1/DTD/svg11.dtd">
<!-- Creator: CorelDRAW X7 -->
<svg xmlns="http://www.w3.org/2000/svg" xml:space="preserve" width="34.409mm" height="41.6776mm" version="1.1" style="shape-rendering:geometricPrecision; text-rendering:geometricPrecision; image-rendering:optimizeQuality; fill-rule:evenodd; clip-rule:evenodd"
viewBox="0 0 4744 5746"
 xmlns:xlink="http://www.w3.org/1999/xlink">
 <defs>
  <style type="text/css">
   <![CDATA[
    .fil0 {fill:#FEFEFE}
    .fil7 {fill:#FEFEFE}
    .fil6 {fill:#201E1E}
    .fil1 {fill:#201E1E}
    .fil4 {fill:#25B8EB}
    .fil2 {fill:#25B8EB}
    .fil5 {fill:#2A94BA}
    .fil3 {fill:#7FDBFF}
    .fil8 {fill:#7FDBFF}
    .fil9 {fill:url(#id0)}
   ]]>
  </style>
  <linearGradient id="id0" gradientUnits="userSpaceOnUse" x1="103.988" y1="827.311" x2="2965.42" y2="827.311">
   <stop offset="0" style="stop-opacity:1; stop-color:#DB000C"/>
   <stop offset="0.670588" style="stop-opacity:1; stop-color:#AF000A"/>
   <stop offset="0.811765" style="stop-opacity:1; stop-color:#890010"/>
   <stop offset="1" style="stop-opacity:1; stop-color:#820007"/>
  </linearGradient>
 </defs>
 <g id="DESIGNED_x0020_BY_x0020_FREEPIK">
  <metadata id="CorelCorpID_0Corel-Layer"/>
  <g id="_2827140030384">
   <path class="fil0" d="M636 1562c1316,-294 2686,-294 4002,0l106 24 -388 2539c-46,298 -258,533 -450,751 -316,359 -738,602 -1149,835 -81,45 -156,46 -237,1 -414,-230 -836,-476 -1152,-836 -192,-218 -404,-453 -450,-751l-388 -2539 106 -24z"/>
   <path class="fil1" d="M661 1676l372 2431c41,267 243,490 422,692 301,342 706,581 1121,812 48,27 81,23 123,-1 413,-234 819,-469 1120,-811 179,-202 381,-425 422,-692l372 -2431c-1300,-291 -2652,-291 -3952,0z"/>
   <path class="fil2" d="M2636 1694l1 3680c356,-202 733,-423 1004,-731 135,-153 335,-365 366,-572l338 -2210c-564,-112 -1136,-167 -1709,-167z"/>
   <path class="fil3" d="M2636 1694l1 3680c-358,-200 -733,-422 -1005,-731 -134,-153 -334,-365 -365,-572l-338 -2210c563,-111 1135,-167 1707,-167z"/>
   <path class="fil4" d="M2637 5374l0 -242c-300,-183 -612,-379 -856,-652 -146,-164 -320,-336 -360,-551l-388 -2088c-35,6 -70,13 -104,20l338 2210c31,207 231,419 365,572 272,309 647,531 1005,731z"/>
   <path class="fil5" d="M2637 5374l0 -242c300,-183 590,-379 834,-652 146,-164 319,-336 359,-551l393 -2091c41,7 81,15 122,23l-338 2210c-31,207 -231,419 -366,572 -271,308 -648,529 -1004,731z"/>
   <path class="fil0" d="M2954 4300c-211,55 -423,55 -635,1 -32,115 -64,229 -96,343 -271,-380 -352,-502 -732,-778 76,-558 68,-1043 1,-1597l55 -3c136,-581 410,-1102 1090,-1102 680,0 954,521 1090,1102l55 3c-67,554 -75,1039 0,1597 -379,276 -460,398 -732,778 -32,-114 -64,-229 -96,-344z"/>
   <path class="fil6" d="M3010 4202c-250,81 -499,80 -746,1 -24,87 -48,174 -73,261 -203,-285 -323,-422 -615,-634 68,-500 65,-986 5,-1487l46 -72c126,-538 378,-1028 1010,-1028 632,0 883,490 1009,1028l47 72c-62,510 -64,977 5,1487 -298,216 -408,344 -616,634 -24,-87 -49,-175 -72,-262z"/>
   <path class="fil7" d="M2637 1896l77 -289c62,-183 138,-318 227,-489 237,-458 -12,-755 -304,-917 -101,-56 -204,-94 -299,-120 -348,-164 -800,-71 -1064,205 -182,190 -442,415 -720,425 -149,6 -289,-46 -402,-140 -116,-97 -199,-69 -122,98 90,195 205,332 350,412l-178 -4c-42,-1 -65,22 -2,52l224 108c98,47 197,93 302,119 311,78 585,-61 802,-278 66,-68 150,-149 244,-215 -18,86 37,81 122,50 88,-20 154,-36 245,-31 53,13 84,64 111,96 153,181 262,385 307,618l80 300z"/>
   <path class="fil0" d="M2637 1323c493,0 788,352 910,872 -228,7 -462,-64 -701,-123 264,186 499,332 758,346 -52,429 -45,978 9,1376 -212,153 -311,226 -499,489 -94,-336 -212,-839 -174,-1225l425 -199 -27 -262 101 -115 -586 243 -83 -40 23 65c-20,171 -5,378 38,549l-194 185 -195 -185c49,-171 60,-378 38,-549l24 -65 -84 40 -585 -243 101 115 -28 262 425 199c38,386 -80,889 -173,1225 -189,-263 -288,-336 -499,-489 54,-398 60,-947 9,-1376 258,-14 494,-160 758,-346 -239,59 -473,130 -702,123 122,-520 418,-872 911,-872z"/>
   <path class="fil8" d="M2166 4290c-200,-292 -450,-1083 -458,-1439 8,211 -15,731 -44,942 197,141 366,303 502,497zm258 -1566l80 -38 -712 -272 121 424 27 -237 -103 -119 587 242zm-278 -1249c-203,157 -341,396 -418,719 175,2 344,-24 567,-87 -150,18 -301,26 -430,6 21,-249 130,-454 281,-638z"/>
   <path class="fil2" d="M3109 4290c200,-292 455,-1083 463,-1439 -8,211 12,732 42,943 -197,141 -368,302 -505,496zm-258 -1566l-79 -38 711 -272 -120 424 -28 -237 104 -119 -588 242zm279 -1249c202,157 340,396 417,719 -175,2 -344,-24 -567,-87 150,18 302,26 431,6 -22,-249 -130,-454 -281,-638z"/>
   <path class="fil9" d="M2637 327c302,165 432,396 233,751 43,-265 -45,-514 -233,-751zm0 1253c-43,-224 -146,-443 -325,-654 99,-8 182,26 254,86 -117,-167 -303,-268 -690,-178 40,-83 166,-135 314,-177 -196,-35 -429,62 -721,365 -426,408 -720,282 -1010,142 308,8 484,-38 589,-111 -446,111 -768,-14 -944,-417 425,316 831,121 1228,-294 402,-339 781,-343 1142,-86 -436,-78 -682,2 -807,182 415,-174 755,-189 939,137 4,-59 -15,-118 -55,-177 30,29 57,60 81,94 154,216 190,545 5,1088z"/>
  </g>
 </g>
</svg>
