<?xml version="1.0" encoding="UTF-8"?>
<!DOCTYPE svg PUBLIC "-//W3C//DTD SVG 1.1//EN" "http://www.w3.org/Graphics/SVG/1.1/DTD/svg11.dtd">
<!-- Creator: CorelDRAW X7 -->
<svg xmlns="http://www.w3.org/2000/svg" xml:space="preserve" width="8.4874mm" height="10.4583mm" version="1.1" style="shape-rendering:geometricPrecision; text-rendering:geometricPrecision; image-rendering:optimizeQuality; fill-rule:evenodd; clip-rule:evenodd"
viewBox="0 0 39 48"
 xmlns:xlink="http://www.w3.org/1999/xlink">
 <defs>
  <style type="text/css">
   <![CDATA[
    .fil0 {fill:#FEFEFE}
   ]]>
  </style>
 </defs>
 <g id="DESIGNED_x0020_BY_x0020_FREEPIK">
  <metadata id="CorelCorpID_0Corel-Layer"/>
  <g id="_2827140027024">
   <path class="fil0" d="M5 14l3 21c0,2 2,4 4,6 2,3 6,5 9,7 1,0 1,0 1,0 4,-2 8,-4 10,-7 2,-2 3,-4 4,-6l3 -21c-3,-1 -7,-1 -11,-2 1,1 1,2 2,2 2,1 4,1 7,1l-3 20c0,1 -2,3 -3,5 -3,2 -6,4 -9,6 -3,-2 -6,-4 -9,-6 -1,-2 -3,-4 -3,-5l-3 -20c2,0 5,0 7,-1 0,0 1,-1 2,-2 -4,1 -8,1 -11,2z"/>
   <path class="fil0" d="M25 37c-2,0 -4,0 -6,0 0,1 0,2 -1,3 -2,-4 -3,-5 -6,-7 1,-5 1,-9 0,-14l1 0c1,-4 2,-8 7,-9 0,0 0,0 1,1 -4,1 -6,3 -7,7 2,0 4,0 6,-1 -2,2 -4,3 -6,3 0,4 0,9 -1,12 2,2 3,2 5,4 1,-2 2,-7 1,-10l-3 -2 0 -2 -1 -1 5 2 1 0 0 0c0,2 0,3 -1,5l2 2 2 -2c-1,-2 -1,-3 -1,-5l0 0 1 0 5 -2 -1 1 0 2 -3 2c-1,3 0,8 1,10 2,-2 3,-2 4,-4 0,-3 0,-8 0,-12 -2,0 -4,-1 -6,-3 2,1 4,1 6,1 -1,-4 -3,-6 -6,-7 0,0 0,-1 0,-1 4,1 6,5 7,9l1 0c-1,5 -1,9 0,14 -3,2 -4,3 -6,7 -1,-1 -1,-2 -1,-3z"/>
   <path class="fil0" d="M22 2c3,2 4,4 2,7 0,-3 0,-5 -2,-7zm0 11c0,-2 -1,-4 -3,-6 1,0 2,1 2,1 -1,-1 -2,-2 -6,-1 1,-1 2,-2 3,-2 -2,0 -4,1 -6,3 -4,4 -6,3 -9,1 3,1 4,0 5,-1 -4,1 -6,0 -8,-3 4,3 7,1 11,-3 3,-3 6,-3 10,0 -4,-1 -6,0 -7,1 3,-1 6,-1 8,1 0,0 0,-1 -1,-1 0,0 1,0 1,1 1,1 2,4 0,9z"/>
  </g>
 </g>
</svg>
