<?xml version="1.0" encoding="UTF-8"?>
<!DOCTYPE svg PUBLIC "-//W3C//DTD SVG 1.1//EN" "http://www.w3.org/Graphics/SVG/1.1/DTD/svg11.dtd">
<!-- Creator: CorelDRAW X7 -->
<svg xmlns="http://www.w3.org/2000/svg" xml:space="preserve" width="55.764mm" height="68.7125mm" version="1.1" style="shape-rendering:geometricPrecision; text-rendering:geometricPrecision; image-rendering:optimizeQuality; fill-rule:evenodd; clip-rule:evenodd"
viewBox="0 0 1592 1962"
 xmlns:xlink="http://www.w3.org/1999/xlink">
 <defs>
  <style type="text/css">
   <![CDATA[
    .fil0 {fill:#FEFEFE}
   ]]>
  </style>
 </defs>
 <g id="DESIGNED_x0020_BY_x0020_FREEPIK">
  <metadata id="CorelCorpID_0Corel-Layer"/>
  <g id="_2827056461872">
   <path class="fil0" d="M197 565l131 859c14,94 86,173 149,244 106,121 249,205 396,287 17,9 28,8 43,0 146,-83 289,-166 396,-287 63,-71 134,-150 149,-244l131 -859c-144,-32 -290,-54 -436,-66 23,27 42,57 59,89 94,10 189,24 282,43l-119 780c-11,73 -81,148 -129,202 -96,109 -229,187 -355,258 -126,-70 -258,-149 -354,-258 -48,-54 -118,-129 -130,-202l-119 -780c94,-19 188,-33 283,-43 17,-32 36,-62 59,-89 -147,12 -292,34 -436,66z"/>
   <path class="fil0" d="M1006 1492c-74,20 -149,20 -224,1 -11,40 -22,80 -34,121 -96,-134 -124,-178 -258,-275 26,-197 24,-369 0,-564l20 -1c42,-180 121,-343 301,-381 10,17 19,35 27,53 -141,24 -227,140 -265,303 81,2 163,-23 248,-44 -94,66 -177,118 -268,122 18,152 16,346 -3,486 74,54 109,80 176,173 33,-119 75,-296 61,-433l-150 -70 10 -92 -36 -41 207 86 29 -14 -8 23c8,60 4,133 -13,194l68 65 69 -65c-15,-61 -20,-134 -13,-194l-9 -23 30 14 206 -86 -35 41 10 92 -151 70c-13,137 29,314 62,433 66,-93 101,-119 176,-173 -19,-140 -22,-334 -3,-486 -92,-4 -175,-56 -268,-122 84,21 167,46 248,44 -37,-159 -121,-274 -255,-302 8,-17 17,-34 27,-52 173,42 250,203 291,379l20 1c-24,195 -27,367 0,564 -134,97 -163,141 -259,275 -11,-41 -22,-81 -34,-122z"/>
   <path class="fil0" d="M894 89c107,59 153,140 83,265 15,-93 -16,-181 -83,-265zm0 443c-15,-79 -51,-157 -114,-231 35,-3 64,9 89,30 -41,-59 -107,-95 -244,-63 15,-29 59,-47 112,-62 -70,-13 -152,22 -255,129 -151,144 -254,99 -357,50 109,3 171,-13 208,-40 -157,40 -271,-4 -333,-146 150,111 293,42 434,-104 142,-120 275,-122 403,-31 -154,-27 -241,1 -285,65 146,-62 267,-67 332,48 1,-21 -6,-42 -20,-63 10,10 20,22 29,34 54,76 67,192 1,384z"/>
  </g>
 </g>
</svg>
