<?xml version="1.0" encoding="UTF-8"?>
<!DOCTYPE svg PUBLIC "-//W3C//DTD SVG 1.1//EN" "http://www.w3.org/Graphics/SVG/1.1/DTD/svg11.dtd">
<!-- Creator: CorelDRAW X7 -->
<svg xmlns="http://www.w3.org/2000/svg" xml:space="preserve" width="17.2719mm" height="21.2826mm" version="1.1" style="shape-rendering:geometricPrecision; text-rendering:geometricPrecision; image-rendering:optimizeQuality; fill-rule:evenodd; clip-rule:evenodd"
viewBox="0 0 332 409"
 xmlns:xlink="http://www.w3.org/1999/xlink">
 <defs>
  <style type="text/css">
   <![CDATA[
    .fil0 {fill:#FEFEFE}
   ]]>
  </style>
 </defs>
 <g id="DESIGNED_x0020_BY_x0020_FREEPIK">
  <metadata id="CorelCorpID_0Corel-Layer"/>
  <g id="_2827140019408">
   <path class="fil0" d="M41 118l27 179c3,19 18,36 31,51 23,25 52,42 83,59 3,2 6,2 9,0 30,-17 60,-34 82,-59 13,-15 28,-32 31,-51l28 -179c-30,-7 -61,-12 -91,-14 5,5 9,12 12,19 20,2 39,5 59,8l-25 163c-2,15 -17,31 -27,42 -20,23 -48,39 -74,54 -26,-15 -54,-31 -74,-54 -10,-11 -24,-27 -26,-42l-25 -163c19,-3 39,-6 59,-8 3,-7 7,-14 12,-19 -31,2 -61,7 -91,14z"/>
   <path class="fil0" d="M210 311c-16,4 -32,4 -47,0 -2,8 -5,17 -7,25 -20,-28 -26,-37 -54,-57 6,-41 5,-77 0,-118l4 0c9,-37 25,-71 63,-79 2,3 4,7 5,11 -29,5 -47,29 -55,63 17,1 34,-5 52,-9 -19,14 -37,24 -56,25 4,32 3,72 0,102 15,11 22,16 36,36 7,-25 16,-62 13,-91l-31 -14 2 -19 -8 -9 43 18 6 -3 -1 5c1,12 1,28 -3,40l14 14 15 -14c-4,-12 -5,-28 -3,-40l-2 -5 6 3 43 -18 -7 9 2 19 -31 14c-3,29 5,66 12,91 14,-20 21,-25 37,-36 -4,-30 -4,-70 -1,-102 -19,-1 -36,-11 -55,-25 17,4 34,10 51,9 -8,-33 -25,-57 -53,-63 2,-3 4,-7 6,-11 36,9 52,43 60,79l4 0c-4,41 -5,77 1,118 -28,20 -34,29 -54,57 -3,-8 -5,-17 -7,-25z"/>
   <path class="fil0" d="M186 19c22,12 32,29 17,55 4,-20 -3,-38 -17,-55zm0 92c-3,-17 -10,-33 -24,-48 8,-1 14,2 19,6 -9,-12 -22,-20 -51,-13 3,-6 12,-10 23,-13 -14,-3 -31,4 -53,27 -31,30 -53,20 -74,10 23,1 36,-3 43,-8 -32,8 -56,-1 -69,-31 31,24 61,9 90,-21 30,-25 58,-26 84,-7 -32,-5 -50,1 -59,14 30,-13 56,-14 69,10 0,-4 -1,-9 -4,-13 2,2 4,4 6,7 11,16 14,40 0,80z"/>
  </g>
 </g>
</svg>
