<?xml version="1.0" encoding="UTF-8"?>
<!DOCTYPE svg PUBLIC "-//W3C//DTD SVG 1.1//EN" "http://www.w3.org/Graphics/SVG/1.1/DTD/svg11.dtd">
<!-- Creator: CorelDRAW X7 -->
<svg xmlns="http://www.w3.org/2000/svg" xml:space="preserve" width="8.4837mm" height="10.4537mm" version="1.1" style="shape-rendering:geometricPrecision; text-rendering:geometricPrecision; image-rendering:optimizeQuality; fill-rule:evenodd; clip-rule:evenodd"
viewBox="0 0 40 49"
 xmlns:xlink="http://www.w3.org/1999/xlink">
 <defs>
  <style type="text/css">
   <![CDATA[
    .fil0 {fill:#373435}
   ]]>
  </style>
 </defs>
 <g id="DESIGNED_x0020_BY_x0020_FREEPIK">
  <metadata id="CorelCorpID_0Corel-Layer"/>
  <g id="_2827056400496">
   <path class="fil0" d="M5 14l3 22c1,2 2,4 4,6 3,3 6,5 10,7 0,0 1,0 1,0 4,-2 7,-4 10,-7 2,-2 3,-4 4,-6l3 -22c-4,-1 -7,-1 -11,-1 1,0 1,1 1,2 3,0 5,0 8,1l-3 19c-1,2 -2,4 -4,5 -2,3 -5,5 -9,7 -3,-2 -6,-4 -8,-7 -2,-1 -3,-3 -4,-5l-3 -19c3,-1 5,-1 7,-1 1,-1 1,-2 2,-2 -4,0 -7,0 -11,1z"/>
   <path class="fil0" d="M25 37c-2,1 -3,1 -5,0 -1,1 -1,2 -1,4 -3,-4 -3,-5 -7,-7 1,-5 1,-10 0,-15l1 0c1,-4 3,-8 7,-9 1,0 1,1 1,1 -3,1 -6,4 -7,8 2,0 4,-1 7,-1 -3,1 -5,3 -7,3 0,4 0,8 0,12 2,1 3,2 4,4 1,-3 2,-7 2,-11l-4 -1 0 -3 -1 -1 6 2 0 0 0 1c0,1 0,3 0,5l1 1 2 -1c0,-2 0,-4 0,-5l0 -1 0 0 6 -2 -1 1 0 3 -4 1c0,4 1,8 2,11 1,-2 2,-3 4,-4 0,-4 0,-8 0,-12 -2,0 -4,-2 -7,-3 2,0 4,1 7,1 -1,-4 -4,-7 -7,-8 0,0 1,-1 1,-1 4,1 6,5 7,9l1 0c-1,5 -1,10 0,15 -4,2 -4,3 -7,7 0,-2 0,-3 -1,-4z"/>
   <path class="fil0" d="M22 2c3,2 4,4 3,7 0,-2 -1,-5 -3,-7zm0 11c0,-2 -1,-4 -2,-5 0,-1 1,0 2,0 -1,-1 -3,-2 -6,-1 0,-1 1,-1 2,-2 -1,0 -3,1 -6,3 -4,4 -6,3 -9,2 3,0 4,-1 5,-1 -4,1 -6,0 -8,-4 4,3 7,1 11,-3 3,-3 7,-3 10,0 -4,-1 -6,0 -7,1 4,-1 7,-1 8,1 0,0 0,-1 0,-1 0,0 0,0 0,1 2,2 2,5 0,9z"/>
  </g>
 </g>
</svg>
