<?xml version="1.0" encoding="UTF-8"?>
<!DOCTYPE svg PUBLIC "-//W3C//DTD SVG 1.1//EN" "http://www.w3.org/Graphics/SVG/1.1/DTD/svg11.dtd">
<!-- Creator: CorelDRAW X7 -->
<svg xmlns="http://www.w3.org/2000/svg" xml:space="preserve" width="66.014mm" height="79.9586mm" version="1.1" style="shape-rendering:geometricPrecision; text-rendering:geometricPrecision; image-rendering:optimizeQuality; fill-rule:evenodd; clip-rule:evenodd"
viewBox="0 0 2061 2496"
 xmlns:xlink="http://www.w3.org/1999/xlink">
 <defs>
  <style type="text/css">
   <![CDATA[
    .fil0 {fill:#FEFEFE}
    .fil7 {fill:#FEFEFE}
    .fil6 {fill:#201E1E}
    .fil1 {fill:#201E1E}
    .fil4 {fill:#25B8EB}
    .fil2 {fill:#25B8EB}
    .fil5 {fill:#2A94BA}
    .fil3 {fill:#7FDBFF}
    .fil8 {fill:#7FDBFF}
    .fil9 {fill:url(#id0)}
   ]]>
  </style>
  <linearGradient id="id0" gradientUnits="userSpaceOnUse" x1="45.1748" y1="359.407" x2="1288.28" y2="359.407">
   <stop offset="0" style="stop-opacity:1; stop-color:#DB000C"/>
   <stop offset="0.670588" style="stop-opacity:1; stop-color:#AF000A"/>
   <stop offset="0.811765" style="stop-opacity:1; stop-color:#890010"/>
   <stop offset="1" style="stop-opacity:1; stop-color:#820007"/>
  </linearGradient>
 </defs>
 <g id="DESIGNED_x0020_BY_x0020_FREEPIK">
  <metadata id="CorelCorpID_0Corel-Layer"/>
  <g id="_2827140037136">
   <path class="fil0" d="M276 679c572,-128 1167,-128 1739,0l46 10 -169 1103c-20,130 -112,232 -195,326 -137,156 -321,262 -499,363 -35,20 -68,20 -103,1 -180,-100 -363,-208 -501,-364 -83,-94 -175,-196 -195,-326l-169 -1103 46 -10z"/>
   <path class="fil1" d="M287 728l162 1056c17,116 105,213 183,301 131,149 307,252 487,353 21,11 35,10 54,-1 179,-101 355,-204 486,-352 78,-88 166,-185 183,-301l162 -1056c-565,-127 -1152,-127 -1717,0z"/>
   <path class="fil2" d="M1145 736l0 1599c155,-88 319,-184 437,-318 59,-66 145,-158 159,-248l147 -961c-245,-48 -494,-72 -743,-72z"/>
   <path class="fil3" d="M1145 736l0 1599c-155,-87 -318,-184 -436,-318 -58,-66 -145,-158 -159,-248l-146 -961c244,-48 493,-72 741,-72z"/>
   <path class="fil4" d="M1146 2335l0 -105c-131,-80 -266,-165 -372,-284 -64,-71 -139,-146 -157,-239l-168 -907c-15,3 -30,5 -45,8l146 961c14,90 101,182 159,248 118,134 281,231 437,318z"/>
   <path class="fil5" d="M1146 2335l0 -105c130,-80 256,-165 362,-284 63,-71 139,-146 156,-239l171 -909c17,4 35,7 53,10l-147 961c-14,90 -100,182 -159,248 -118,134 -282,230 -436,318z"/>
   <path class="fil0" d="M1283 1868c-91,24 -184,24 -276,1 -13,49 -27,99 -41,149 -118,-165 -153,-219 -318,-338 33,-243 29,-454 0,-694l24 -2c59,-252 178,-478 474,-478 295,0 414,226 473,478l24 2c-29,240 -33,451 0,694 -165,119 -200,173 -318,338 -14,-50 -28,-100 -42,-150z"/>
   <path class="fil6" d="M1308 1825c-109,36 -217,35 -325,1 -10,38 -20,75 -31,113 -89,-124 -140,-183 -267,-275 29,-217 28,-429 2,-646l20 -31c55,-234 164,-447 439,-447 274,0 383,213 438,447l20 31c-26,221 -28,424 2,646 -129,94 -177,149 -267,275 -11,-38 -21,-76 -31,-114z"/>
   <path class="fil7" d="M1146 824l33 -126c27,-79 60,-138 99,-212 103,-199 -6,-328 -132,-399 -44,-24 -89,-41 -130,-52 -151,-71 -348,-31 -463,89 -79,83 -192,181 -312,185 -65,2 -126,-20 -175,-61 -50,-42 -86,-30 -53,43 39,84 89,144 152,179l-77 -2c-19,-1 -29,10 -1,23l97 47c43,20 86,40 132,51 134,34 254,-26 348,-121 28,-29 65,-64 106,-93 -8,37 16,35 53,22 38,-9 67,-16 106,-14 23,6 37,28 49,42 66,78 114,167 133,268l35 131z"/>
   <path class="fil0" d="M1146 575c214,0 342,152 395,379 -99,3 -201,-28 -305,-54 115,81 217,144 330,150 -23,187 -20,426 3,598 -91,67 -134,98 -216,213 -41,-146 -92,-365 -76,-533l185 -86 -12 -114 44 -50 -254 106 -37 -18 11 29c-9,74 -3,164 16,238l-84 81 -85 -81c21,-74 26,-164 17,-238l10 -29 -37 18 -254 -106 44 50 -12 114 185 86c16,168 -35,387 -76,533 -82,-115 -125,-146 -216,-213 23,-172 26,-411 3,-598 113,-6 215,-69 330,-150 -104,26 -206,57 -305,54 53,-227 181,-379 396,-379z"/>
   <path class="fil8" d="M941 1864c-87,-127 -196,-471 -199,-625 3,91 -6,317 -19,409 85,61 159,132 218,216zm112 -680l35 -17 -309 -118 52 184 12 -103 -45 -52 255 106zm-121 -543c-88,68 -148,172 -181,312 76,1 149,-10 246,-38 -65,8 -131,11 -187,3 9,-108 57,-197 122,-277z"/>
   <path class="fil2" d="M1351 1864c87,-127 197,-471 201,-625 -4,91 5,318 18,409 -85,62 -160,132 -219,216zm-112 -680l-35 -17 309 -118 -52 184 -12 -103 45 -52 -255 106zm121 -543c88,68 148,172 181,312 -76,1 -149,-10 -246,-38 65,8 131,11 187,3 -10,-108 -57,-197 -122,-277z"/>
   <path class="fil9" d="M1146 142c131,72 187,172 101,326 18,-115 -20,-223 -101,-326zm0 545c-19,-98 -64,-193 -142,-285 44,-3 79,12 111,38 -51,-73 -132,-117 -300,-78 17,-36 72,-58 137,-77 -86,-15 -187,27 -314,159 -185,177 -312,122 -438,62 133,3 210,-17 255,-49 -194,49 -333,-6 -410,-181 185,138 361,53 534,-127 174,-148 339,-150 496,-38 -190,-33 -296,1 -351,79 180,-75 328,-82 408,60 2,-26 -7,-51 -24,-77 13,12 25,26 36,41 66,93 82,236 2,473z"/>
  </g>
 </g>
</svg>
