<?xml version="1.0" encoding="UTF-8"?>
<!DOCTYPE svg PUBLIC "-//W3C//DTD SVG 1.1//EN" "http://www.w3.org/Graphics/SVG/1.1/DTD/svg11.dtd">
<!-- Creator: CorelDRAW X7 -->
<svg xmlns="http://www.w3.org/2000/svg" xml:space="preserve" width="56.9999mm" height="70.2355mm" version="1.1" style="shape-rendering:geometricPrecision; text-rendering:geometricPrecision; image-rendering:optimizeQuality; fill-rule:evenodd; clip-rule:evenodd"
viewBox="0 0 3257 4013"
 xmlns:xlink="http://www.w3.org/1999/xlink">
 <defs>
  <style type="text/css">
   <![CDATA[
    .fil0 {fill:#373435}
   ]]>
  </style>
 </defs>
 <g id="DESIGNED_x0020_BY_x0020_FREEPIK">
  <metadata id="CorelCorpID_0Corel-Layer"/>
  <g id="_2827056430128">
   <path class="fil0" d="M403 1157l268 1756c29,193 176,354 305,500 218,248 510,420 810,587 34,19 58,16 89,-1 298,-169 591,-339 809,-586 129,-146 275,-307 305,-500l268 -1756c-295,-66 -593,-111 -892,-136 46,54 86,116 120,183 194,20 387,49 579,87l-244 1597c-23,149 -167,302 -265,413 -196,222 -468,382 -726,527 -258,-144 -529,-305 -725,-527 -97,-111 -241,-264 -264,-413l-244 -1597c191,-38 384,-67 578,-87 34,-67 74,-129 121,-183 -300,25 -598,70 -892,136z"/>
   <path class="fil0" d="M2059 3053c-153,40 -306,40 -459,1 -23,82 -46,165 -69,247 -196,-274 -255,-363 -529,-562 55,-403 49,-753 1,-1154l39 -2c86,-367 248,-701 617,-779 20,35 39,71 55,108 -287,49 -464,287 -542,620 165,5 334,-46 507,-89 -191,135 -361,240 -548,250 37,310 32,707 -6,994 152,111 224,163 360,353 68,-242 153,-606 125,-885l-307 -143 20 -190 -72 -83 422 176 60 -29 -16 47c15,123 7,273 -28,397l141 133 140 -133c-31,-124 -42,-274 -27,-397l-17 -47 60 29 423 -176 -73 83 20 190 -307 143c-28,279 58,643 125,885 136,-190 208,-242 361,-353 -39,-287 -44,-684 -7,-994 -187,-10 -357,-115 -548,-250 173,43 342,94 507,89 -76,-325 -246,-559 -521,-617 17,-35 36,-70 55,-106 354,86 512,414 596,774l40 2c-49,401 -54,751 0,1154 -274,199 -332,288 -529,562 -23,-82 -46,-165 -69,-248z"/>
   <path class="fil0" d="M1830 182c218,120 312,287 168,543 31,-191 -33,-371 -168,-543zm0 906c-31,-162 -106,-320 -235,-473 72,-6 131,19 183,62 -84,-120 -218,-193 -498,-128 29,-60 120,-97 227,-128 -142,-26 -310,45 -521,264 -308,294 -520,203 -729,102 222,6 349,-27 425,-80 -323,81 -555,-10 -682,-301 307,228 600,87 887,-213 291,-244 564,-247 825,-62 -315,-56 -492,2 -583,132 300,-126 546,-137 679,99 2,-43 -12,-85 -41,-128 22,21 42,43 60,68 110,156 137,393 3,786z"/>
  </g>
 </g>
</svg>
