<?xml version="1.0" encoding="UTF-8"?>
<!DOCTYPE svg PUBLIC "-//W3C//DTD SVG 1.1//EN" "http://www.w3.org/Graphics/SVG/1.1/DTD/svg11.dtd">
<!-- Creator: CorelDRAW X7 -->
<svg xmlns="http://www.w3.org/2000/svg" xml:space="preserve" width="31.7762mm" height="39.1547mm" version="1.1" style="shape-rendering:geometricPrecision; text-rendering:geometricPrecision; image-rendering:optimizeQuality; fill-rule:evenodd; clip-rule:evenodd"
viewBox="0 0 3265 4023"
 xmlns:xlink="http://www.w3.org/1999/xlink">
 <defs>
  <style type="text/css">
   <![CDATA[
    .fil0 {fill:#FEFEFE}
   ]]>
  </style>
 </defs>
 <g id="DESIGNED_x0020_BY_x0020_FREEPIK">
  <metadata id="CorelCorpID_0Corel-Layer"/>
  <g id="_2827056425744">
   <path class="fil0" d="M404 1160l269 1761c29,193 176,354 305,501 219,248 512,421 812,588 35,19 59,17 90,-1 299,-169 593,-339 810,-587 130,-147 277,-308 306,-501l269 -1761c-295,-66 -594,-112 -894,-136 47,54 86,116 121,183 194,20 387,49 580,87l-245 1601c-23,150 -167,303 -265,414 -197,223 -470,383 -728,529 -259,-145 -530,-306 -727,-529 -98,-111 -242,-264 -265,-414l-245 -1601c192,-38 386,-67 580,-87 34,-67 74,-129 121,-183 -300,24 -599,70 -894,136z"/>
   <path class="fil0" d="M2064 3061c-153,39 -307,40 -460,0 -23,83 -46,166 -69,249 -197,-275 -255,-364 -530,-564 54,-404 49,-755 0,-1157l40 -2c86,-368 249,-703 618,-781 21,35 39,71 55,108 -288,50 -465,288 -543,622 166,5 335,-46 508,-89 -191,135 -362,240 -549,250 37,311 32,709 -6,997 153,111 224,164 361,354 68,-243 153,-608 126,-887l-308 -144 20 -190 -73 -83 424 176 60 -29 -17 47c16,124 8,274 -27,398l140 134 141 -134c-31,-124 -42,-274 -27,-398l-17 -47 60 29 424 -176 -73 83 20 190 -308 144c-27,279 58,644 126,887 136,-190 208,-243 361,-354 -39,-288 -44,-686 -6,-997 -187,-10 -358,-115 -549,-250 173,43 342,94 508,89 -77,-326 -247,-561 -523,-618 17,-35 36,-70 55,-107 355,86 513,415 598,776l40 2c-49,402 -54,753 0,1157 -275,200 -333,289 -530,564 -23,-83 -47,-166 -70,-249z"/>
   <path class="fil0" d="M1834 183c219,120 314,287 170,544 30,-192 -34,-372 -170,-544zm0 908c-31,-163 -106,-321 -235,-474 72,-6 132,19 184,62 -85,-121 -219,-194 -500,-128 29,-61 120,-98 228,-129 -142,-26 -311,45 -522,265 -309,295 -522,203 -732,102 223,6 351,-27 427,-80 -324,81 -557,-10 -684,-302 308,229 602,88 890,-213 291,-245 565,-249 827,-63 -316,-55 -494,2 -585,133 300,-127 547,-137 680,99 3,-43 -11,-86 -40,-129 22,21 42,44 59,69 111,156 138,394 3,788z"/>
  </g>
 </g>
</svg>
