<?xml version="1.0" encoding="UTF-8"?>
<!DOCTYPE svg PUBLIC "-//W3C//DTD SVG 1.1//EN" "http://www.w3.org/Graphics/SVG/1.1/DTD/svg11.dtd">
<!-- Creator: CorelDRAW X7 -->
<svg xmlns="http://www.w3.org/2000/svg" xml:space="preserve" width="8.4182mm" height="9.9327mm" version="1.1" style="shape-rendering:geometricPrecision; text-rendering:geometricPrecision; image-rendering:optimizeQuality; fill-rule:evenodd; clip-rule:evenodd"
viewBox="0 0 32 38"
 xmlns:xlink="http://www.w3.org/1999/xlink">
 <defs>
  <style type="text/css">
   <![CDATA[
    .fil0 {fill:#FEFEFE}
    .fil2 {fill:#FEFEFE}
    .fil1 {fill:#373435}
    .fil3 {fill:#373435;fill-rule:nonzero}
   ]]>
  </style>
 </defs>
 <g id="DESIGNED_x0020_BY_x0020_FREEPIK">
  <metadata id="CorelCorpID_0Corel-Layer"/>
  <g id="_2827056433360">
   <path class="fil0" d="M4 10c9,-2 18,-2 26,0l1 0 -3 17c0,0 0,0 0,1 1,0 1,0 2,0 0,1 1,1 1,2 0,0 0,1 0,1 0,1 0,1 0,1 1,1 1,1 1,2 0,0 0,1 0,2 0,0 -1,1 -1,1 -1,1 -1,1 -2,1 0,0 -1,0 -1,-1 -1,0 -2,0 -3,0l0 0 -1 0c0,0 -1,0 -1,0l-1 0 0 0c-1,0 -1,0 -2,0l0 -1 0 0 -1 0c0,1 -1,1 -1,1 -1,1 -1,1 -2,0 0,0 0,0 -1,-1l0 0 -2 1c0,0 0,0 -1,0 0,0 -1,0 -2,0 0,0 0,0 0,0l0 0 -1 0c0,0 -1,0 -1,0l-1 0c0,0 0,1 -1,1 0,0 -1,0 -2,0 0,-1 -1,-1 -1,-2 -1,0 -1,-1 -1,-1 0,-1 1,-1 1,-2 0,0 0,0 0,-1 0,0 0,0 0,-1 0,0 1,-1 1,-2 0,0 1,-1 1,-1 1,0 1,0 1,-1 0,0 0,0 0,0l-3 -17 1 0z"/>
   <path class="fil1" d="M4 11l3 16c0,2 1,3 2,4 2,3 5,4 8,6 0,0 0,0 1,0 2,-2 5,-3 7,-6 1,-1 2,-2 3,-4l2 -16c-8,-2 -17,-2 -26,0z"/>
   <path class="fil0" d="M17 35c3,-1 5,-3 7,-5 1,-1 2,-2 2,-3l2 -15c-3,-1 -7,-1 -11,-1 -4,0 -7,0 -11,1l2 15c0,1 2,2 3,3 1,2 4,4 6,5z"/>
   <path class="fil0" d="M19 28c-1,0 -2,0 -4,0 0,1 0,2 0,2 -2,-2 -3,-3 -5,-5 0,-3 0,-7 0,-10l0 0c1,-4 3,-7 7,-7 5,0 6,3 7,7l1 0c-1,3 -1,7 0,10 -3,2 -3,3 -5,5 0,0 -1,-1 -1,-2z"/>
   <path class="fil1" d="M20 27c-2,1 -4,1 -5,0 0,1 -1,2 -1,2 -1,-2 -2,-3 -4,-4 1,-3 1,-6 0,-10l1 0c0,-4 2,-7 6,-7 4,0 6,3 7,7l0 0c0,4 0,7 0,10 -2,1 -3,2 -4,4 0,0 0,-1 0,-2z"/>
   <path class="fil2" d="M17 12l1 -2c0,-1 1,-2 1,-3 2,-3 0,-5 -2,-6 0,0 -1,0 -2,0 -2,-2 -5,-1 -7,1 -1,1 -3,3 -4,3 -1,0 -2,-1 -3,-1 -1,-1 -1,-1 -1,0 1,2 2,3 2,3l-1 0c0,0 0,0 0,0l2 1c0,0 1,1 2,1 2,0 4,-1 5,-2 0,0 1,-1 2,-1 -1,0 0,0 0,0 1,0 1,0 2,0 0,0 1,0 1,0 1,2 1,3 2,4l0 2z"/>
   <path class="fil0" d="M17 9c3,0 5,2 6,5 -1,0 -3,0 -4,0 1,1 3,2 5,2 -1,3 -1,6 0,9 -2,1 -2,1 -4,3 0,-2 -1,-6 -1,-8l3 -1 0 -2 0 -1 -3 2 -1 0 0 0c0,1 0,2 0,4l-1 1 -1 -1c0,-2 0,-3 0,-4l0 0 0 0 -4 -2 1 1 -1 2 3 1c0,2 0,6 -1,8 -1,-2 -2,-2 -3,-3 0,-3 0,-6 0,-9 2,0 3,-1 5,-2 -2,0 -3,0 -5,0 1,-3 3,-5 6,-5z"/>
   <path class="fil1" d="M17 2c2,1 3,3 2,5 0,-2 -1,-3 -2,-5zm0 8c0,-1 -1,-3 -2,-4 1,0 1,0 2,1 -1,-1 -2,-2 -5,-2 1,0 1,0 2,-1 -1,0 -3,1 -4,3 -3,2 -5,2 -7,1 2,0 3,-1 4,-1 -3,1 -5,0 -6,-3 2,2 5,1 8,-2 2,-2 5,-2 7,0 -3,-1 -4,0 -5,1 3,-1 5,-1 6,1 0,-1 0,-1 0,-1 0,0 0,0 0,0 1,2 1,4 0,7z"/>
   <path class="fil1" d="M23 28l0 0 2 0c0,0 1,0 1,0 1,0 1,0 2,0 1,0 1,1 1,1 1,0 1,1 1,1 0,0 0,1 0,1 1,1 1,1 1,2 0,0 0,0 0,1 0,0 0,1 0,1 0,1 0,1 -1,2 0,0 0,0 -1,0 0,0 -1,0 -1,0 -1,-1 -2,-1 -3,-1l0 0 0 0c-1,0 -2,0 -2,0l-1 0 0 0c-1,0 -1,0 -2,0l0 0 0 0c-1,0 -2,0 -2,0l-1 0 0 0c-1,0 -2,0 -2,0l-2 0c0,0 0,0 -1,0 0,0 -1,0 -1,0 -1,0 -1,0 -1,0l0 0 -1 0c0,0 -1,0 -1,0l-1 1c0,0 -1,0 -1,0 0,0 -1,0 -1,0 -1,0 -1,-1 -2,-1 0,0 0,-1 0,-1 0,-1 0,-1 0,-2 0,0 1,0 1,-1 0,0 0,0 0,-1 0,0 0,-1 1,-1 0,-1 0,-1 1,-2 0,0 1,0 2,0 0,0 1,0 2,0 0,0 0,0 0,0l0 0 1 0c0,0 0,0 1,0l0 0 1 0c0,0 1,0 2,0l0 0 0 0 0 0 1 0 0 0 0 0c1,0 2,0 3,0l0 0 0 0 1 0c0,0 1,0 1,0 1,0 2,0 2,0 0,0 0,0 0,0z"/>
   <path class="fil0" d="M17 35l1 0c0,0 1,0 2,0l0 0 0 0c1,0 1,0 2,0l0 0 1 0c0,0 1,1 2,1l0 0 0 0c1,0 2,0 3,0 0,0 1,0 1,0 1,0 1,0 1,0 0,0 1,0 1,-1 0,0 0,-1 -1,-1 0,0 0,-1 0,-1 0,-1 0,-1 0,-1 0,-1 0,-1 0,-2 -1,0 -1,0 -1,-1 0,0 -1,0 -1,0 -1,0 -1,0 -2,0 0,0 -1,0 -1,0l-1 0 0 0c0,0 0,0 0,0 0,0 0,0 0,0 0,0 -1,0 -1,0 -1,0 -1,0 -2,0 0,0 -1,0 -1,0l-1 0 0 0c0,1 0,1 0,2 0,-1 0,-1 0,-2l0 0 0 0c-1,0 -1,0 -2,0 0,0 -1,0 -1,0l-1 0 0 0c0,0 0,1 0,1 0,0 0,-1 0,-1l0 0 0 0c-1,0 -2,0 -2,0l-1 0 0 0 0 0c0,0 -1,0 -1,0l-1 0 0 0c0,0 0,0 0,1 0,-1 0,-1 -1,-1 0,0 -1,0 -1,0 -1,0 -1,0 -2,0 0,0 -1,1 -1,1 0,0 0,1 -1,2 0,0 0,0 0,1 0,0 0,0 0,1 0,0 0,0 0,1 0,0 0,0 0,1 0,0 0,0 1,0 0,0 1,0 1,0 0,0 1,0 1,0 0,0 0,0 0,0l0 0 1 0c0,0 0,0 1,0l0 0 0 -1c0,0 0,0 0,0 0,0 1,0 1,0 0,0 0,0 1,0 0,0 1,0 1,0 0,0 1,0 1,0 1,0 1,0 1,0l0 0 1 0c0,0 1,0 2,0l0 0z"/>
   <path class="fil3" d="M9 31c0,0 -1,0 -1,1 0,-1 0,-1 0,-1 0,0 0,-1 0,-1 0,0 0,0 0,0 -1,0 -1,0 -1,0 0,0 0,1 0,1 0,0 0,1 0,1 0,1 -1,1 -1,2 0,0 0,0 0,1 0,0 0,0 1,0 0,0 0,0 0,-1 0,0 0,0 0,0 0,0 0,-1 0,-1 0,0 0,0 0,0 0,0 0,-1 0,-1 1,0 2,0 2,0 0,0 0,1 0,2 0,0 0,1 0,1 -1,0 -1,0 -2,0 0,0 0,0 0,0 0,0 0,0 0,0 -1,1 -1,1 -1,1 0,0 -1,0 -1,0 0,0 -1,0 -1,-1 0,0 0,0 0,0 0,0 0,-1 0,-1 1,-1 1,-1 1,-1 0,-1 0,-1 0,-1 0,-1 0,-1 0,-2 1,0 1,0 1,-1 1,0 1,0 2,0 0,0 1,0 1,0 0,1 1,1 1,1 0,0 0,1 0,1 0,0 -1,0 -1,0zm6 -2c0,1 0,1 0,2 0,1 -1,1 -1,2 0,0 0,1 0,1 0,0 0,0 0,0 0,0 -1,1 -1,1 0,0 -1,0 -1,0 0,0 -1,0 -1,0 -1,0 -1,0 -1,0 0,-1 0,-1 0,-1 0,0 0,-1 0,-1 0,-1 0,-2 0,-2 0,-1 0,-1 1,-2 0,0 1,0 1,0 0,1 0,2 0,2 0,1 0,2 0,2 0,1 0,1 0,1 0,0 0,0 0,0 0,0 0,0 0,0 0,0 0,0 0,-1 0,0 1,-1 1,-2 0,0 0,-1 0,-2 0,0 1,0 2,0zm2 5c0,0 0,0 0,1 -1,0 -2,0 -2,0 0,-1 0,-2 0,-3 1,-1 1,-2 1,-3 1,0 2,0 3,0 0,1 0,2 0,3 0,1 1,2 1,3 -1,0 -2,0 -2,0 0,-1 0,-1 0,-1 -1,0 -1,0 -1,0zm3 -5c0,0 1,0 1,0 1,0 2,0 2,0 0,0 0,0 1,1 0,0 0,0 0,1 0,0 0,1 0,1 0,0 0,0 -1,0 1,0 1,0 1,0 0,0 0,1 0,1 0,0 0,0 0,0 1,1 1,1 1,1 0,1 0,1 0,1 -1,0 -2,0 -2,0 0,0 0,-1 0,-1 0,0 0,-1 0,-1 0,0 0,-1 -1,-1 0,0 0,0 0,0 0,1 0,1 0,2 0,0 0,0 0,1 -1,0 -1,0 -2,0 0,-1 0,-2 0,-3 0,-1 0,-2 0,-3zm2 1c0,1 0,1 0,1 0,0 0,0 0,0 0,0 0,0 0,0 0,0 0,0 0,0 0,-1 0,-1 0,-1 0,0 0,0 0,0zm3 -1c0,0 1,0 1,0 1,0 1,0 2,0 0,0 0,0 1,1 0,0 0,0 0,0 0,1 0,1 0,2 1,0 1,0 1,1 0,0 0,1 0,1 0,1 0,1 0,1 0,0 0,1 0,1 0,0 0,0 -1,0 0,0 0,0 -1,0 -1,-1 -2,-1 -3,-1 0,-1 0,-2 0,-3 0,-1 0,-2 0,-3zm2 1c0,1 0,2 0,2 0,1 0,2 0,2 1,0 1,0 1,0 0,0 0,0 0,0 0,-1 0,-1 0,-2 0,0 -1,-1 -1,-1 0,0 0,0 0,0 0,-1 0,-1 0,-1 0,0 0,0 0,0zm-10 0l0 3 1 0 -1 -3z"/>
  </g>
 </g>
</svg>
