<?xml version="1.0" encoding="UTF-8"?>
<!DOCTYPE svg PUBLIC "-//W3C//DTD SVG 1.1//EN" "http://www.w3.org/Graphics/SVG/1.1/DTD/svg11.dtd">
<!-- Creator: CorelDRAW X7 -->
<svg xmlns="http://www.w3.org/2000/svg" xml:space="preserve" width="64.9151mm" height="76.5951mm" version="1.1" style="shape-rendering:geometricPrecision; text-rendering:geometricPrecision; image-rendering:optimizeQuality; fill-rule:evenodd; clip-rule:evenodd"
viewBox="0 0 2817 3324"
 xmlns:xlink="http://www.w3.org/1999/xlink">
 <defs>
  <style type="text/css">
   <![CDATA[
    .fil0 {fill:#FEFEFE}
    .fil2 {fill:#FEFEFE}
    .fil1 {fill:#373435}
    .fil3 {fill:#373435;fill-rule:nonzero}
   ]]>
  </style>
 </defs>
 <g id="DESIGNED_x0020_BY_x0020_FREEPIK">
  <metadata id="CorelCorpID_0Corel-Layer"/>
  <g id="_2827140014928">
   <path class="fil0" d="M366 900c758,-170 1546,-170 2304,0l61 13 -224 1461c-3,20 -7,38 -12,57 50,13 95,35 133,70 35,32 63,70 81,114 18,45 29,94 39,141 8,36 17,72 25,108 8,36 16,71 24,107 12,51 25,112 18,165 -9,69 -48,127 -111,158 -41,21 -86,27 -131,25 -42,-2 -84,-11 -125,-19 -75,-15 -152,-27 -228,-39l-27 -4 -39 -5c-55,-6 -110,-12 -165,-17l-31 -3 -20 -1c-59,-4 -118,-8 -177,-11l-21 -1 -7 0 -25 -1c-41,24 -81,47 -121,70 -46,26 -90,26 -137,0 -41,-23 -83,-46 -124,-70l-36 1 -105 3c-38,11 -77,17 -116,20 -52,4 -105,3 -156,-8 0,-1 -1,-1 -1,-1l-2 11 -114 17c-38,5 -76,11 -114,17l-43 8c-29,13 -59,22 -89,29 -52,11 -106,12 -158,0 -62,-15 -117,-49 -150,-105 -28,-46 -39,-99 -34,-152 3,-41 14,-81 25,-121 8,-30 17,-61 25,-92 8,-30 16,-61 25,-91 14,-53 30,-109 55,-158 30,-59 79,-104 134,-138 22,-13 44,-24 68,-32 -5,-17 -9,-34 -11,-52l-224 -1461 61 -13z"/>
   <path class="fil1" d="M381 965l214 1399c23,154 140,282 243,399 173,197 406,334 645,467 28,15 47,13 71,-1 238,-134 471,-270 644,-466 103,-117 220,-245 243,-399l214 -1399c-748,-168 -1526,-168 -2274,0z"/>
   <path class="fil0" d="M1518 3094c205,-117 422,-244 578,-421 78,-88 193,-210 211,-329l194 -1273c-324,-64 -654,-96 -984,-96 -329,0 -658,32 -982,96l194 1273c18,119 133,241 211,329 156,177 372,305 578,421z"/>
   <path class="fil0" d="M1701 2476c-122,31 -244,31 -366,0 -18,66 -37,132 -55,198 -157,-219 -203,-290 -422,-448 44,-322 39,-601 1,-920l32 -2c78,-334 235,-634 627,-634 391,0 549,300 627,634l32 2c-39,319 -43,598 0,920 -218,158 -265,229 -421,448 -18,-66 -37,-132 -55,-198z"/>
   <path class="fil1" d="M1733 2419c-144,46 -287,46 -430,0 -13,51 -28,101 -42,151 -117,-165 -186,-243 -354,-365 39,-288 38,-568 3,-856l27 -42c72,-310 217,-591 581,-591 364,0 509,281 581,591l27 42c-36,293 -37,562 3,856 -172,124 -235,198 -355,365 -14,-51 -28,-101 -41,-151z"/>
   <path class="fil2" d="M1518 1092l44 -167c36,-105 80,-183 131,-282 137,-263 -7,-434 -175,-527 -58,-33 -118,-54 -172,-69 -200,-95 -461,-41 -613,118 -104,109 -254,239 -414,244 -86,4 -166,-26 -231,-80 -67,-56 -115,-40 -71,56 52,113 118,191 202,237l-102 -2c-25,-1 -38,13 -2,30l129 62c56,27 113,54 174,69 179,44 337,-36 462,-160 37,-40 86,-86 140,-124 -10,49 21,47 70,29 51,-12 89,-21 142,-18 30,7 48,37 63,55 88,104 151,221 177,356l46 173z"/>
   <path class="fil0" d="M1518 761c284,0 454,203 524,503 -132,4 -266,-37 -404,-71 152,107 288,191 437,199 -30,247 -26,563 5,792 -122,88 -179,130 -287,282 -54,-194 -122,-484 -100,-706l244 -114 -16 -151 58 -66 -336 140 -48 -23 13 37c-11,98 -3,218 22,316l-112 107 -112 -107c28,-98 34,-218 22,-316l13 -37 -48 23 -337 -140 58 66 -15 151 244 114c22,222 -46,512 -100,706 -108,-152 -165,-194 -287,-282 31,-229 35,-545 5,-792 149,-8 285,-92 437,-199 -138,34 -273,75 -404,71 70,-300 240,-503 524,-503z"/>
   <path class="fil1" d="M1518 188c174,95 249,228 134,433 25,-153 -26,-296 -134,-433zm0 722c-25,-130 -84,-256 -187,-377 57,-5 104,15 146,50 -67,-96 -174,-155 -397,-103 23,-48 95,-77 181,-102 -113,-20 -248,36 -415,210 -246,235 -415,162 -582,82 178,4 279,-22 339,-64 -257,64 -442,-8 -543,-240 244,182 478,70 707,-169 231,-195 450,-198 657,-50 -251,-44 -392,2 -464,105 238,-100 435,-109 540,79 2,-34 -9,-68 -32,-102 18,17 33,35 47,54 89,124 110,314 3,627z"/>
   <path class="fil1" d="M2070 2494l-2 -16 107 0c40,0 80,1 120,1 55,0 127,0 181,13 41,11 78,28 110,57 27,25 49,55 63,89 16,40 27,89 37,132 8,35 16,71 24,107 8,36 16,72 24,107 10,41 23,100 17,142 -6,47 -31,86 -74,107 -31,15 -65,19 -99,18 -37,-2 -78,-10 -115,-18 -76,-15 -153,-28 -231,-39l-27 -4 -41 -5c-55,-7 -111,-13 -167,-18l-32 -3 -20 -1c-59,-4 -119,-8 -178,-11l-22 -1 -7 0c-61,-2 -121,-3 -182,-4l-35 0 -47 0c-61,1 -122,2 -183,4l-114 3c-36,11 -74,17 -111,20 -45,3 -92,3 -136,-7 -23,-5 -46,-13 -68,-24l-7 40 -66 10c-39,6 -77,12 -116,18l-52 9c-26,13 -54,22 -83,28 -42,9 -86,11 -128,1 -44,-11 -84,-35 -109,-75 -21,-34 -28,-72 -25,-111 4,-36 14,-75 24,-110 8,-30 16,-61 25,-92 8,-30 16,-60 24,-91 14,-47 29,-101 51,-145 24,-48 65,-84 110,-112 52,-32 111,-45 173,-45 55,0 111,10 159,39 2,1 3,2 5,3l5 -32 79 0c41,0 82,0 123,0l0 0 83 0c53,0 107,0 160,-1l32 0 0 0 21 0 48 0 0 0 6 0c77,0 155,0 232,0l22 0 0 0 97 0c38,1 76,1 114,1 53,0 118,-1 170,9 11,1 21,4 31,7z"/>
   <path class="fil0" d="M1520 3100l37 1c61,0 121,2 182,3l7 1 23 1c60,3 120,6 179,10l21 2 33 3c56,5 112,11 168,17l41 5 28 5c78,11 156,24 233,40 35,6 74,15 108,16 26,1 53,-1 76,-13 29,-14 45,-40 49,-71 4,-35 -9,-91 -16,-125 -8,-36 -17,-72 -25,-108 -8,-35 -16,-71 -24,-107 -9,-40 -19,-87 -34,-125 -11,-28 -29,-51 -51,-71 -26,-24 -57,-38 -91,-46 -49,-12 -119,-12 -170,-13 -39,0 -79,0 -119,0l-54 0 7 53c1,3 1,6 1,10 -1,-2 -2,-3 -3,-4 -26,-27 -58,-45 -95,-51 -49,-9 -113,-9 -163,-9 -37,0 -75,0 -113,0l-48 0 1 48c2,50 4,99 5,148 -10,-53 -21,-106 -32,-158l-7 -38 -38 0c-38,0 -76,0 -114,0 -39,0 -79,0 -118,0l-37 0 -8 37c-7,30 -14,61 -21,91 2,-26 4,-52 6,-78l4 -50 -51 0c-53,0 -107,0 -160,0l-42 0 0 0 -3 0c-54,1 -107,1 -161,1l-39 0 -7 39c-2,14 -4,28 -7,42 -13,-25 -35,-44 -60,-59 -41,-25 -89,-33 -135,-33 -53,0 -104,12 -149,39 -37,23 -72,53 -92,93 -21,41 -35,92 -48,137 -8,30 -16,60 -24,91 -9,30 -17,61 -25,91 -9,32 -19,69 -22,102 -3,29 3,58 18,83 18,29 48,45 81,53 35,9 72,7 107,-1 30,-6 59,-16 86,-32 3,-1 5,-3 7,-4l2 6 42 -7c38,-6 77,-12 116,-18l33 -5 6 -33c4,-19 7,-39 11,-59 5,9 11,17 18,25 23,26 57,39 90,46 40,9 82,10 123,6 37,-3 75,-9 110,-21 22,-8 43,-18 63,-31l-8 31 62 -2c61,-2 123,-3 184,-3l46 -1z"/>
   <path class="fil3" d="M836 2767c-57,4 -114,7 -171,12 4,-17 8,-34 11,-51 8,-32 10,-52 9,-60 -1,-8 -8,-12 -19,-11 -10,0 -17,4 -23,11 -5,7 -11,25 -18,55 -10,45 -21,91 -32,136 -10,46 -21,92 -31,137 -6,26 -8,42 -6,50 2,7 9,10 21,8 13,-3 23,-8 30,-18 7,-10 13,-28 19,-54 5,-22 9,-44 14,-66 -11,1 -23,3 -34,4 6,-28 12,-57 19,-85 67,-7 135,-13 202,-18 -9,48 -17,95 -26,142 -8,47 -17,95 -26,142 -39,6 -78,12 -117,18 -3,-12 -6,-24 -9,-36 -17,19 -36,34 -57,47 -21,12 -46,21 -73,27 -32,6 -61,7 -86,1 -25,-6 -43,-17 -52,-32 -10,-16 -13,-34 -12,-54 2,-21 10,-52 21,-95 8,-30 16,-60 25,-91 8,-30 16,-61 25,-91 16,-59 30,-101 44,-128 13,-27 38,-52 74,-74 36,-22 77,-32 125,-32 47,0 83,9 110,25 28,17 45,37 51,59 5,23 4,56 -4,99 -1,8 -3,15 -4,23zm461 -196c-4,54 -8,109 -12,163 -4,54 -8,109 -13,163 -3,37 -7,63 -11,78 -4,15 -16,31 -33,47 -19,17 -42,30 -70,40 -28,10 -61,16 -99,19 -42,3 -78,2 -109,-5 -30,-7 -52,-18 -65,-32 -14,-15 -20,-31 -20,-49 0,-18 5,-57 15,-115 9,-52 17,-103 26,-154 8,-52 17,-103 25,-154 54,-1 107,-1 161,-1 -8,63 -16,126 -24,188 -8,63 -16,126 -24,188 -3,22 -3,36 -1,42 3,6 9,9 19,8 11,-1 18,-5 22,-12 4,-6 7,-22 10,-47 7,-61 15,-122 22,-183 7,-61 14,-123 21,-184 54,0 107,0 160,0zm189 396c-4,29 -8,58 -12,87 -62,0 -124,2 -186,3 21,-81 41,-162 61,-244 19,-80 37,-161 55,-242 77,0 155,0 232,0 16,81 32,162 49,243 18,81 37,162 56,244 -62,-2 -123,-3 -184,-4 -2,-29 -5,-58 -8,-87 -21,0 -42,0 -63,0zm269 -396c38,0 75,0 113,0 76,0 127,3 154,7 28,5 51,18 70,38 20,21 32,53 38,98 5,40 1,67 -10,80 -11,13 -35,20 -72,21 35,8 59,18 72,30 12,12 21,23 25,32 4,10 9,36 14,78 3,23 5,46 8,68 3,23 6,46 8,69 -56,-7 -113,-13 -169,-18 -2,-28 -5,-56 -7,-83 -2,-28 -4,-56 -7,-84 -2,-27 -6,-44 -13,-51 -6,-6 -20,-10 -44,-11 3,37 6,75 8,112 3,38 6,75 9,113 -61,-5 -121,-8 -180,-11 -3,-81 -6,-163 -9,-244 -2,-81 -5,-163 -8,-244zm167 85c2,37 5,74 8,111 19,1 32,-1 39,-4 7,-4 10,-17 8,-39 -1,-10 -2,-19 -3,-28 -1,-16 -6,-27 -13,-32 -7,-5 -21,-8 -39,-8zm252 -84c40,0 80,0 120,0 77,0 131,4 159,11 29,7 52,19 70,35 18,17 31,35 39,55 8,20 19,59 32,117 8,36 17,72 25,108 8,36 16,71 24,107 13,55 18,92 16,109 -3,17 -10,29 -23,35 -14,7 -31,10 -53,9 -22,-2 -56,-7 -102,-16 -78,-16 -157,-29 -235,-41 -12,-88 -24,-176 -36,-264 -12,-89 -24,-177 -36,-265zm178 96c10,61 21,123 32,184 10,62 22,123 32,185 26,4 41,2 45,-5 5,-8 4,-31 -3,-69 -7,-37 -14,-74 -21,-111 -7,-37 -14,-74 -21,-111 -5,-26 -9,-43 -12,-50 -3,-7 -8,-13 -15,-16 -8,-4 -20,-6 -37,-7zm-832 11l-33 203 59 0 -26 -203z"/>
  </g>
 </g>
</svg>
