<?xml version="1.0" encoding="UTF-8"?>
<!DOCTYPE svg PUBLIC "-//W3C//DTD SVG 1.1//EN" "http://www.w3.org/Graphics/SVG/1.1/DTD/svg11.dtd">
<!-- Creator: CorelDRAW X7 -->
<svg xmlns="http://www.w3.org/2000/svg" xml:space="preserve" width="34.1915mm" height="40.798mm" version="1.1" style="shape-rendering:geometricPrecision; text-rendering:geometricPrecision; image-rendering:optimizeQuality; fill-rule:evenodd; clip-rule:evenodd"
viewBox="0 0 2647 3159"
 xmlns:xlink="http://www.w3.org/1999/xlink">
 <defs>
  <style type="text/css">
   <![CDATA[
    .fil0 {fill:#373435}
    .fil1 {fill:#373435;fill-rule:nonzero}
   ]]>
  </style>
 </defs>
 <g id="DESIGNED_x0020_BY_x0020_FREEPIK">
  <metadata id="CorelCorpID_0Corel-Layer"/>
  <g id="_2827056446320">
   <path class="fil0" d="M315 907l211 1376c5,36 16,71 31,105 18,-2 37,-4 55,-4 35,0 70,4 102,14 -28,-44 -49,-90 -56,-135l-191 -1252c150,-29 301,-52 453,-68 27,-52 58,-100 94,-143 -234,19 -468,55 -699,107zm945 2148c46,27 92,53 139,79 27,15 46,13 70,-1 46,-26 91,-51 136,-78 -44,-1 -89,-2 -134,-2l-35 -1 -45 1c-44,0 -88,1 -131,2zm1046 -657c17,-37 29,-75 36,-115l210 -1376c-231,-52 -464,-88 -699,-107 36,43 68,91 94,143 152,16 303,39 453,68l-191 1252c-6,44 -27,89 -54,132l42 0c33,0 72,1 109,3z"/>
   <path class="fil0" d="M1645 2336c-142,46 -282,46 -423,1 -5,19 -10,38 -15,57l-92 0c-81,-105 -151,-173 -282,-268 38,-283 37,-558 3,-842l26 -41c64,-270 183,-520 461,-571 7,14 14,28 20,42 -225,39 -364,225 -425,486 130,5 262,-36 397,-69 -149,105 -282,188 -429,196 30,242 26,553 -5,778 120,87 176,128 283,277 53,-190 119,-475 98,-693l-241 -113 16 -148 -57 -65 331 137 47 -22 -13 36c12,97 6,215 -21,311l110 105 110 -105c-25,-96 -33,-214 -22,-311l-13 -36 47 22 331 -137 -57 65 16 148 -241 113c-21,218 46,503 99,693 106,-149 162,-190 282,-277 -30,-225 -34,-536 -5,-778 -146,-8 -280,-91 -429,-196 135,33 268,74 397,69 -60,-254 -193,-438 -409,-483 7,-14 15,-28 22,-42 265,59 381,303 443,568l26 41c-35,289 -36,553 3,842 -134,97 -201,163 -282,268l-85 0 -7 0c-5,-19 -10,-38 -15,-58z"/>
   <path class="fil0" d="M1434 143c171,94 244,224 132,425 24,-150 -26,-291 -132,-425zm0 710c-25,-128 -83,-251 -184,-371 56,-5 103,15 143,49 -66,-95 -171,-152 -390,-101 22,-47 94,-76 178,-100 -111,-20 -243,35 -408,207 -242,230 -408,159 -572,80 174,4 274,-21 333,-63 -252,63 -434,-8 -534,-236 240,179 470,69 695,-166 228,-192 442,-195 647,-49 -247,-44 -386,1 -457,103 234,-99 427,-107 531,78 2,-34 -9,-67 -31,-101 17,17 32,34 46,54 87,122 108,308 3,616z"/>
   <path class="fil0" d="M1976 2411l-2 -16 105 0c40,0 79,0 118,0 55,1 126,1 178,14 41,10 78,27 109,55 27,25 48,54 62,88 16,39 26,88 36,129 8,36 16,71 24,106 7,35 16,70 24,105 9,41 22,98 16,139 -6,46 -31,85 -73,106 -30,15 -64,19 -97,17 -37,-1 -77,-10 -113,-17 -75,-15 -151,-27 -227,-39l-27 -4 -40 -4c-55,-7 -109,-13 -164,-18l-32 -3 -19 -1c-59,-4 -117,-8 -175,-10l-22 -1 -7 -1c-60,-1 -119,-3 -179,-3l-35 -1 -45 1c-60,0 -120,1 -181,3l-112 3c-35,11 -72,17 -108,20 -45,3 -91,3 -134,-7 -23,-5 -46,-13 -67,-24l-7 40 -65 10c-38,5 -76,11 -114,17l-51 9c-26,13 -53,22 -82,28 -41,8 -84,10 -125,0 -44,-11 -84,-33 -108,-73 -20,-33 -28,-71 -24,-109 3,-36 14,-74 23,-108 8,-30 16,-60 24,-90 9,-30 17,-60 25,-90 13,-47 28,-100 50,-143 23,-47 63,-83 107,-110 52,-31 110,-45 170,-45 55,0 110,10 157,39 2,1 3,2 5,3l5 -31 78 0c40,0 80,-1 120,-1l0 0 82 0c53,0 105,0 158,0l31 0 0 0 21 0 47 0 0 0 6 0c76,0 152,0 227,0l23 0 0 0 95 0c37,0 74,0 111,0 53,0 117,0 168,9 10,2 21,4 30,8zm-540 595l36 1c60,0 119,2 179,3l7 1 23 1c59,3 117,6 176,10l20 1 32 3c55,6 111,11 166,18l40 5 28 4c77,11 153,24 229,39 34,7 72,15 106,17 26,1 52,-2 75,-13 28,-14 44,-40 48,-71 4,-33 -9,-89 -16,-122 -8,-36 -16,-71 -24,-106 -8,-35 -16,-70 -24,-106 -9,-39 -19,-85 -34,-122 -11,-28 -28,-51 -50,-71 -25,-23 -56,-37 -89,-45 -48,-12 -117,-12 -167,-12 -39,0 -78,0 -118,0l-52 0 7 52c0,3 1,6 1,9 -1,-1 -2,-2 -3,-3 -26,-27 -57,-44 -94,-51 -48,-9 -111,-8 -160,-8 -37,0 -74,0 -111,0l-48 0 2 47c2,49 3,97 5,145 -11,-52 -21,-103 -32,-155l-7 -37 -38 0c-37,0 -74,0 -111,0 -39,0 -78,0 -116,0l-37 0 -8 36c-7,30 -13,60 -20,90 2,-26 4,-51 6,-77l3 -49 -49 0c-53,0 -105,0 -158,0l-41 0 0 0 -4 0c-52,0 -105,0 -157,1l-39 0 -6 38c-3,14 -5,28 -7,41 -14,-24 -35,-43 -60,-58 -40,-24 -87,-32 -133,-32 -51,0 -101,11 -146,39 -36,22 -71,52 -90,90 -21,41 -35,92 -47,135 -8,30 -16,60 -24,90 -9,30 -17,60 -25,90 -8,31 -18,68 -21,100 -3,29 2,56 17,81 18,29 48,45 80,53 34,8 70,6 105,-1 30,-6 59,-17 85,-32 2,-1 5,-3 7,-4l2 6 41 -7c38,-6 76,-12 114,-18l33 -5 6 -32c3,-19 7,-39 10,-58 5,9 11,17 18,25 23,25 56,38 89,45 39,9 80,9 120,6 37,-3 74,-9 109,-21 21,-8 42,-17 61,-30l-8 30 61 -2c61,-2 121,-3 182,-3l45 -1z"/>
   <path class="fil1" d="M763 2679c-56,3 -112,7 -168,11 4,-16 8,-33 11,-50 7,-31 10,-51 9,-59 -2,-7 -8,-11 -19,-11 -10,1 -17,4 -22,11 -6,7 -11,25 -18,54 -10,45 -21,90 -31,135 -11,44 -21,89 -32,134 -5,25 -8,42 -5,49 2,7 9,9 21,7 13,-2 23,-7 29,-17 7,-9 13,-27 18,-53 5,-21 10,-43 14,-65 -11,2 -22,3 -33,4 6,-28 12,-56 18,-84 67,-6 133,-12 199,-17 -8,47 -17,93 -25,140 -9,46 -17,92 -26,139 -38,6 -77,11 -115,18 -3,-12 -6,-24 -9,-36 -16,19 -35,34 -56,46 -21,12 -45,21 -71,27 -32,6 -60,7 -85,1 -25,-6 -42,-16 -51,-32 -10,-15 -13,-33 -12,-53 2,-20 9,-51 21,-92 8,-30 16,-60 24,-90 8,-30 16,-60 24,-90 16,-57 30,-99 44,-126 13,-26 38,-51 73,-72 35,-22 76,-32 122,-32 46,0 82,9 109,25 28,17 44,36 50,58 5,22 4,55 -4,97 -1,8 -3,15 -4,23zm454 -193c-4,53 -8,107 -13,160 -4,54 -8,107 -12,160 -3,37 -7,62 -11,77 -4,15 -15,31 -33,47 -18,16 -41,29 -69,39 -27,9 -60,15 -97,18 -41,3 -76,2 -106,-5 -31,-6 -52,-17 -65,-31 -13,-15 -19,-31 -19,-49 0,-17 5,-55 14,-113 9,-50 17,-101 26,-151 8,-51 16,-101 25,-151 53,-1 105,-1 158,-1 -8,62 -16,123 -24,185 -8,62 -16,123 -24,185 -2,22 -2,35 0,41 2,6 8,8 18,8 11,-1 18,-5 22,-12 4,-6 7,-22 10,-46 7,-60 14,-120 21,-181 7,-60 14,-120 21,-180 53,0 105,0 158,0zm185 389c-4,29 -8,57 -12,86 -61,0 -121,1 -182,3 20,-80 40,-160 59,-240 19,-79 37,-159 55,-238 76,0 152,0 227,0 16,79 32,159 49,238 17,80 36,160 55,241 -61,-2 -121,-4 -181,-4 -2,-29 -5,-57 -8,-86 -20,0 -41,0 -62,0zm265 -389c37,0 74,0 111,0 74,0 125,2 152,7 27,5 49,18 68,38 20,20 32,52 37,95 5,40 2,66 -9,79 -11,13 -34,20 -71,21 34,8 58,18 70,30 13,11 21,22 25,31 4,10 9,35 14,76 3,23 5,45 8,68 3,22 5,45 8,67 -56,-6 -111,-12 -166,-17 -2,-28 -5,-55 -7,-83 -3,-27 -5,-54 -7,-82 -2,-26 -6,-43 -13,-49 -5,-7 -19,-11 -43,-12 2,37 5,74 8,111 3,36 5,73 8,110 -59,-4 -118,-7 -177,-10 -3,-80 -5,-160 -8,-240 -3,-80 -5,-160 -8,-240zm164 84c2,36 5,72 8,109 18,0 31,-1 38,-5 7,-3 10,-16 8,-38 -1,-9 -2,-18 -3,-27 -1,-16 -5,-26 -13,-31 -7,-5 -20,-8 -38,-8zm248 -83c39,0 79,0 118,0 76,0 128,4 156,11 29,7 51,18 69,34 18,17 31,34 39,54 7,20 18,58 31,115 8,36 16,71 24,106 8,35 16,71 24,106 12,54 17,90 15,107 -2,16 -9,28 -22,35 -14,6 -31,9 -53,8 -21,-1 -54,-7 -99,-16 -78,-15 -155,-28 -231,-39 -12,-87 -24,-174 -36,-261 -11,-87 -23,-174 -35,-260zm175 94c10,61 21,121 31,182 10,60 21,120 32,181 25,4 40,2 44,-5 5,-8 4,-30 -3,-67 -7,-37 -14,-73 -21,-110 -7,-36 -13,-72 -20,-109 -5,-25 -9,-42 -12,-49 -3,-7 -8,-13 -15,-16 -7,-4 -19,-6 -36,-7zm-818 11l-33 200 58 0 -25 -200z"/>
  </g>
 </g>
</svg>
