<?xml version="1.0" encoding="UTF-8"?>
<!DOCTYPE svg PUBLIC "-//W3C//DTD SVG 1.1//EN" "http://www.w3.org/Graphics/SVG/1.1/DTD/svg11.dtd">
<!-- Creator: CorelDRAW X7 -->
<svg xmlns="http://www.w3.org/2000/svg" xml:space="preserve" width="10.0328mm" height="11.9713mm" version="1.1" style="shape-rendering:geometricPrecision; text-rendering:geometricPrecision; image-rendering:optimizeQuality; fill-rule:evenodd; clip-rule:evenodd"
viewBox="0 0 126 151"
 xmlns:xlink="http://www.w3.org/1999/xlink">
 <defs>
  <style type="text/css">
   <![CDATA[
    .fil0 {fill:#FEFEFE}
    .fil1 {fill:#FEFEFE;fill-rule:nonzero}
   ]]>
  </style>
 </defs>
 <g id="DESIGNED_x0020_BY_x0020_FREEPIK">
  <metadata id="CorelCorpID_0Corel-Layer"/>
  <g id="_2827140039536">
   <path class="fil0" d="M15 43l10 66c0,2 1,3 2,5 0,0 1,0 2,0 2,0 3,0 5,0 -1,-2 -2,-4 -3,-6l-9 -60c7,-1 15,-2 22,-3 1,-3 3,-5 4,-7 -11,1 -22,3 -33,5zm45 103c2,1 4,2 7,3 1,1 2,1 3,0 2,-1 4,-2 6,-3 -2,0 -4,-1 -6,-1l-2 0 -2 0c-2,0 -4,0 -6,1zm50 -32c1,-1 1,-3 2,-5l10 -66c-11,-2 -23,-4 -34,-5 2,2 4,4 5,7 7,1 14,2 21,3l-9 60c0,2 -1,4 -2,6l2 0c1,0 3,0 5,0z"/>
   <path class="fil0" d="M78 111c-6,2 -13,2 -20,0 0,1 0,2 0,3l-5 0c-4,-5 -7,-8 -13,-13 2,-13 1,-26 0,-40l1 -2c3,-13 9,-25 22,-27 0,1 1,1 1,2 -11,2 -17,11 -20,23 6,0 12,-2 19,-3 -7,5 -14,9 -21,9 2,12 1,27 0,37 6,4 8,6 13,14 3,-10 6,-23 5,-34l-11 -5 0 -7 -2 -3 15 6 3 -1 -1 2c1,5 0,10 -1,15l5 5 6 -5c-2,-5 -2,-10 -1,-15l-1 -2 2 1 16 -6 -3 3 1 7 -12 5c-1,11 3,24 5,34 5,-8 8,-10 14,-14 -2,-10 -2,-25 -1,-37 -7,0 -13,-4 -20,-9 6,1 13,3 19,3 -3,-12 -9,-21 -20,-23 1,0 1,-1 1,-2 13,3 19,15 22,27l1 2c-2,14 -2,27 0,40 -6,5 -10,8 -14,13l-4 0 0 0c0,-1 0,-2 -1,-3z"/>
   <path class="fil0" d="M68 7c8,4 12,10 7,20 1,-7 -2,-14 -7,-20zm0 34c-1,-6 -4,-12 -8,-18 2,0 4,1 6,2 -3,-4 -8,-7 -18,-5 1,-2 4,-3 8,-4 -5,-1 -11,1 -19,10 -12,11 -20,7 -27,3 8,1 13,-1 15,-3 -12,3 -20,0 -25,-11 11,9 22,3 33,-8 11,-9 21,-9 31,-2 -12,-2 -18,0 -22,5 11,-5 21,-5 25,4 1,-2 0,-4 -1,-5 1,1 2,1 2,2 4,6 5,15 0,30z"/>
   <path class="fil0" d="M94 115l0 -1 5 0c2,0 4,0 6,0 2,0 6,0 8,1 2,0 4,1 5,2 2,2 3,3 3,5 1,1 2,4 2,6 0,1 1,3 1,5 1,1 1,3 1,5 1,2 1,4 1,6 0,3 -1,4 -3,5 -2,1 -3,1 -5,1 -2,0 -4,0 -5,-1 -4,0 -8,-1 -11,-1l-2 -1 -1 0c-3,0 -6,0 -8,-1l-2 0 -1 0c-2,0 -5,0 -8,0l-1 0 0 0c-3,0 -6,-1 -9,-1l-2 0 -2 0c-3,0 -5,1 -8,1l-6 0c-1,0 -3,1 -5,1 -2,0 -4,0 -6,-1 -1,0 -2,0 -3,-1l-1 2 -3 1c-2,0 -3,0 -5,0l-3 1c-1,0 -2,1 -4,1 -2,1 -4,1 -6,0 -2,0 -4,-1 -5,-3 -1,-2 -1,-4 -1,-6 0,-1 1,-3 1,-5 1,-1 1,-3 1,-4 1,-1 1,-3 2,-4 0,-2 1,-5 2,-7 1,-2 3,-4 5,-5 3,-2 5,-2 8,-2 3,0 5,0 8,1 0,0 0,1 0,1l0 -2 4 0c2,0 4,0 6,0l0 0 3 0c3,0 5,0 8,0l1 0 0 0 1 0 3 0 0 0 0 0c4,0 7,0 11,0l1 0 0 0 4 0c2,0 4,0 6,0 2,0 5,0 8,0 0,1 1,1 1,1zm-26 28l2 0c3,0 6,0 9,0l0 0 1 0c3,1 6,1 8,1l1 0 2 0c3,0 5,1 8,1l2 0 1 0c4,1 7,2 11,2 2,1 3,1 5,1 1,0 3,0 4,0 1,-1 2,-2 2,-4 0,-1 0,-4 -1,-6 0,-1 -1,-3 -1,-5 0,-1 -1,-3 -1,-5 -1,-2 -1,-4 -2,-6 0,-1 -1,-2 -2,-3 -1,-1 -3,-2 -4,-2 -3,-1 -6,-1 -8,-1 -2,0 -4,0 -6,0l-2 0 0 3c0,0 0,0 0,0 0,0 0,0 0,0 -1,-1 -3,-2 -5,-2 -2,-1 -5,-1 -7,-1 -2,0 -4,0 -6,0l-2 0 0 3c0,2 0,4 0,6 0,-2 -1,-5 -1,-7l0 -2 -2 0c-2,0 -4,0 -6,0 -1,0 -3,0 -5,0l-2 0 0 2c0,1 -1,3 -1,4 0,-1 0,-2 0,-3l0 -3 -2 0c-3,0 -5,0 -8,0l-1 0 0 0 -1 0c-2,0 -5,0 -7,0l-2 0 0 2c0,1 -1,1 -1,2 0,-1 -1,-2 -3,-3 -1,-1 -4,-1 -6,-1 -2,0 -5,0 -7,2 -2,1 -3,2 -4,4 -1,2 -2,4 -2,6 -1,2 -1,3 -1,5 -1,1 -1,2 -2,4 0,1 -1,3 -1,5 0,1 0,2 1,4 1,1 2,2 4,2 2,0 3,0 5,0 1,0 3,-1 4,-1 0,-1 0,-1 0,-1l0 1 2 -1c2,0 4,0 6,-1l1 0 1 -1c0,-1 0,-2 0,-3 0,0 1,1 1,1 1,1 3,2 4,2 2,1 4,1 6,1 2,-1 3,-1 5,-1 1,-1 2,-1 3,-2l0 1 3 0c2,0 5,0 8,0l2 0z"/>
   <path class="fil1" d="M36 128c-2,0 -5,0 -8,0 1,-1 1,-1 1,-2 0,-2 0,-3 0,-3 0,0 0,-1 -1,-1 0,0 0,1 -1,1 0,0 0,1 -1,3 0,2 -1,4 -1,6 0,2 -1,4 -1,6 -1,2 -1,2 -1,3 0,0 1,0 1,0 1,0 1,0 2,-1 0,0 0,-1 1,-2 0,-1 0,-2 0,-3 0,0 -1,0 -1,0 0,-2 0,-3 0,-4 4,-1 7,-1 10,-1 0,2 -1,4 -1,7 -1,2 -1,4 -1,6 -2,1 -4,1 -6,1 0,0 0,-1 0,-2 -1,1 -2,2 -3,3 -1,0 -2,1 -3,1 -2,0 -3,0 -5,0 -1,0 -2,-1 -2,-2 0,0 -1,-1 0,-2 0,-1 0,-3 0,-5 1,-1 1,-2 2,-4 0,-1 0,-3 1,-4 1,-3 1,-5 2,-6 0,-1 2,-2 3,-4 2,-1 4,-1 6,-1 2,0 4,0 5,1 2,1 2,2 3,3 0,1 0,3 0,5 -1,0 -1,0 -1,1zm22 -10c0,3 0,6 -1,8 0,3 0,5 0,8 0,1 -1,3 -1,3 0,1 0,2 -1,3 -1,0 -2,1 -4,1 -1,1 -2,1 -4,1 -2,0 -4,0 -5,0 -2,0 -3,-1 -3,-1 -1,-1 -1,-2 -1,-3 0,-1 0,-2 0,-5 1,-3 1,-5 2,-7 0,-3 0,-5 1,-8 2,0 5,0 7,0 0,3 0,6 -1,9 0,3 -1,6 -1,9 0,1 0,2 0,2 0,0 0,0 1,0 0,0 1,0 1,0 0,0 0,-1 0,-2 1,-3 1,-6 1,-9 1,-3 1,-6 1,-9 3,0 5,0 8,0zm9 19c0,1 -1,3 -1,4 -3,0 -6,0 -8,0 1,-4 1,-7 2,-11 1,-4 2,-8 3,-12 4,0 7,0 11,0 1,4 1,8 2,12 1,4 2,7 3,11 -3,0 -6,0 -9,0 0,-1 0,-3 0,-4 -1,0 -2,0 -3,0zm12 -19c2,0 4,0 6,0 3,0 6,1 7,1 1,0 2,1 3,2 1,1 2,2 2,4 0,2 0,3 0,4 -1,1 -2,1 -4,1 2,0 3,1 3,1 1,1 1,1 2,2 0,0 0,1 0,3 0,1 1,3 1,4 0,1 0,2 0,3 -3,0 -5,-1 -8,-1 0,-1 0,-3 0,-4 0,-1 0,-3 0,-4 -1,-1 -1,-2 -1,-2 0,0 -1,-1 -2,-1 0,2 0,4 0,6 0,1 0,3 1,5 -3,0 -6,-1 -9,-1 0,-4 0,-7 0,-11 0,-4 0,-8 -1,-12zm8 4c0,2 0,4 1,6 0,0 1,0 1,-1 1,0 1,0 1,-1 0,-1 0,-1 0,-2 0,0 -1,-1 -1,-1 0,0 -1,-1 -2,-1zm12 -4c2,0 4,0 6,0 3,1 6,1 7,1 1,0 3,1 3,2 1,0 2,1 2,2 1,1 1,3 2,6 0,1 0,3 1,5 0,1 1,3 1,5 1,2 1,4 1,5 0,1 -1,1 -1,2 -1,0 -2,0 -3,0 -1,0 -2,0 -5,-1 -3,-1 -7,-1 -11,-2 0,-4 -1,-8 -1,-12 -1,-4 -1,-8 -2,-13zm8 5c1,3 1,6 2,9 0,3 1,5 1,8 2,0 2,0 3,0 0,0 0,-1 -1,-3 0,-2 0,-4 -1,-5 0,-2 0,-4 -1,-6 0,-1 0,-2 0,-2 0,0 -1,-1 -1,-1 0,0 -1,0 -2,0zm-39 1l-1 9 3 0 -2 -9z"/>
  </g>
 </g>
</svg>
