<?xml version="1.0" encoding="UTF-8"?>
<!DOCTYPE svg PUBLIC "-//W3C//DTD SVG 1.1//EN" "http://www.w3.org/Graphics/SVG/1.1/DTD/svg11.dtd">
<!-- Creator: CorelDRAW X7 -->
<svg xmlns="http://www.w3.org/2000/svg" xml:space="preserve" width="34.1915mm" height="40.798mm" version="1.1" style="shape-rendering:geometricPrecision; text-rendering:geometricPrecision; image-rendering:optimizeQuality; fill-rule:evenodd; clip-rule:evenodd"
viewBox="0 0 1140 1360"
 xmlns:xlink="http://www.w3.org/1999/xlink">
 <defs>
  <style type="text/css">
   <![CDATA[
    .fil0 {fill:#FEFEFE}
    .fil1 {fill:#FEFEFE;fill-rule:nonzero}
   ]]>
  </style>
 </defs>
 <g id="DESIGNED_x0020_BY_x0020_FREEPIK">
  <metadata id="CorelCorpID_0Corel-Layer"/>
  <g id="_2827056429904">
   <path class="fil0" d="M136 390l90 593c3,16 8,31 14,45 8,-1 16,-1 24,-1 15,0 29,1 44,6 -12,-19 -22,-39 -25,-59l-82 -539c65,-12 130,-22 195,-29 12,-22 25,-43 41,-61 -101,8 -202,23 -301,45zm406 925c20,12 40,23 60,34 12,7 20,6 31,0 19,-11 39,-22 58,-34 -19,0 -38,0 -57,-1l-16 0 -19 0c-19,1 -38,1 -57,1zm451 -282c7,-16 13,-33 15,-50l91 -593c-100,-22 -200,-37 -301,-45 16,18 29,39 40,61 66,7 131,17 196,29l-83 539c-3,19 -11,39 -23,57l18 0c14,0 31,0 47,2z"/>
   <path class="fil0" d="M708 1006c-61,20 -121,20 -182,0 -2,8 -4,17 -6,25l-40 0c-35,-45 -65,-75 -121,-116 16,-121 16,-240 1,-362l11 -18c28,-116 79,-224 199,-246 3,6 6,12 8,19 -97,16 -156,96 -183,209 56,2 113,-16 171,-30 -64,45 -121,81 -184,84 12,105 11,239 -3,336 52,37 76,55 122,119 23,-82 52,-205 42,-299l-103 -48 6 -64 -24 -28 143 59 20 -10 -6 16c5,42 3,92 -9,134l47 45 48 -45c-11,-42 -14,-92 -10,-134l-5 -16 20 10 143 -59 -25 28 7 64 -104 48c-9,94 20,217 43,299 45,-64 70,-82 121,-119 -13,-97 -15,-231 -2,-336 -63,-3 -120,-39 -185,-84 58,14 115,32 171,30 -26,-110 -83,-189 -176,-208 3,-6 6,-12 9,-18 115,25 165,130 191,244l12 18c-15,124 -16,238 1,362 -58,42 -87,70 -122,116l-36 0 -3 0c-2,-8 -5,-17 -7,-25z"/>
   <path class="fil0" d="M617 62c74,40 106,96 57,183 11,-65 -11,-126 -57,-183zm0 305c-10,-55 -35,-108 -79,-159 24,-2 44,6 62,21 -28,-41 -74,-66 -168,-44 10,-20 40,-33 76,-43 -47,-9 -104,15 -175,89 -104,99 -176,69 -246,35 75,1 118,-10 143,-28 -109,28 -187,-3 -230,-101 104,77 202,29 299,-72 98,-82 191,-83 279,-21 -107,-19 -167,1 -197,45 101,-43 184,-46 229,33 1,-14 -4,-29 -14,-43 8,7 14,15 20,23 38,52 47,133 1,265z"/>
   <path class="fil0" d="M851 1038l-1 -7 45 0c17,0 34,0 51,0 23,0 54,1 77,6 17,4 33,12 46,24 12,11 21,23 27,38 7,17 12,38 16,55 3,16 7,31 10,46 3,15 7,30 10,45 4,18 10,43 7,60 -2,20 -13,37 -31,46 -13,6 -27,8 -42,7 -16,-1 -33,-4 -48,-7 -33,-7 -65,-12 -98,-17l-12 -2 -17 -2c-24,-2 -47,-5 -71,-7l-13 -1 -9 -1c-25,-2 -50,-3 -75,-4l-10 -1 -3 0c-25,-1 -51,-1 -76,-2l-16 0 -19 0c-26,1 -52,1 -78,2l-48 1c-15,5 -31,7 -47,9 -19,1 -39,1 -58,-3 -10,-2 -19,-6 -28,-10l-3 17 -28 4c-17,2 -33,5 -49,7l-22 4c-12,6 -23,10 -35,12 -18,4 -37,5 -55,0 -19,-4 -36,-14 -46,-31 -9,-15 -12,-31 -10,-47 1,-15 6,-32 10,-47 3,-13 7,-26 10,-39 4,-12 7,-25 11,-38 5,-20 12,-43 21,-62 10,-20 27,-35 46,-47 23,-14 48,-19 74,-19 23,0 47,4 67,16 1,1 2,1 2,2l3 -14 33 0c17,0 34,0 52,0l0 0 35 0c23,0 45,0 68,0l13 0 0 0 9 0 20 0 0 0 3 0c33,0 65,0 98,0l10 0 0 0 41 0c16,0 32,0 48,0 22,0 50,0 72,4 4,0 9,2 13,3zm-233 256l16 1c26,0 51,0 77,1l3 0 10 1c25,1 50,2 76,4l8 1 14 1c24,2 48,5 71,8l18 2 12 2c33,5 66,10 98,16 15,3 31,7 46,8 11,0 22,-1 32,-6 12,-6 19,-17 21,-30 2,-15 -4,-39 -7,-53 -3,-15 -7,-30 -10,-46 -4,-15 -7,-30 -11,-45 -3,-17 -8,-37 -14,-53 -5,-12 -12,-22 -22,-30 -11,-10 -24,-16 -38,-20 -21,-5 -50,-5 -72,-5 -17,0 -34,0 -51,0l-22 0 3 22c0,2 0,3 0,4 0,0 -1,-1 -1,-1 -11,-12 -25,-19 -41,-22 -20,-4 -47,-3 -68,-3 -16,0 -32,0 -48,0l-21 0 1 20c1,21 1,42 2,62 -5,-22 -9,-44 -13,-67l-4 -15 -16 0c-16,0 -32,0 -48,0 -17,0 -33,0 -50,0l-16 0 -3 15c-3,13 -6,26 -9,39 1,-11 2,-22 3,-33l1 -21 -21 0c-23,0 -45,0 -68,0l-18 0 0 0 -1 0c-23,0 -45,0 -68,0l-17 0 -3 16c-1,6 -2,12 -3,18 -5,-10 -15,-19 -25,-25 -17,-10 -38,-14 -57,-14 -23,0 -44,5 -63,17 -16,10 -31,22 -39,39 -9,17 -15,39 -20,58 -4,13 -7,26 -11,39 -3,13 -7,25 -10,38 -4,14 -8,30 -10,44 -1,12 2,24 8,34 8,13 20,20 34,23 15,4 31,3 46,0 12,-3 25,-7 36,-14 1,0 2,-1 3,-2l1 3 17 -3c17,-3 33,-5 50,-8l14 -2 2 -14c2,-8 3,-16 5,-25 2,4 5,8 8,11 9,11 24,16 38,19 17,4 34,4 52,3 15,-1 31,-4 46,-9 10,-3 19,-8 27,-13l-4 13 27 -1c26,-1 52,-1 78,-1l19 -1z"/>
   <path class="fil1" d="M329 1153c-25,2 -49,4 -73,5 2,-7 3,-14 5,-21 3,-14 4,-22 4,-25 -1,-4 -4,-5 -8,-5 -5,0 -8,1 -10,5 -2,3 -5,10 -8,23 -4,19 -9,38 -13,58 -5,19 -9,38 -14,57 -2,11 -3,18 -2,21 1,4 4,5 9,4 6,-1 10,-4 13,-8 2,-4 5,-12 8,-23 2,-9 4,-18 6,-27 -5,0 -10,1 -15,1 3,-12 6,-24 8,-36 29,-3 57,-5 86,-7 -4,20 -7,40 -11,60 -4,20 -7,40 -11,60 -17,2 -33,5 -50,7 -1,-5 -2,-10 -4,-15 -7,8 -15,15 -24,20 -9,5 -19,9 -31,11 -13,3 -25,4 -36,1 -11,-3 -18,-7 -22,-14 -4,-6 -6,-14 -5,-23 1,-8 4,-22 9,-39 3,-13 7,-26 10,-39 4,-13 7,-26 11,-39 7,-25 13,-43 18,-54 6,-11 17,-22 32,-31 15,-9 33,-14 53,-14 20,0 35,4 47,11 11,7 19,15 21,25 2,9 2,23 -2,42 0,3 -1,6 -1,9zm195 -83c-2,23 -4,46 -5,69 -2,23 -4,46 -6,69 -1,16 -3,27 -4,33 -2,7 -7,14 -15,21 -7,7 -17,12 -29,16 -12,4 -26,7 -42,8 -18,2 -33,1 -46,-2 -13,-3 -22,-7 -28,-13 -5,-7 -8,-14 -8,-21 0,-8 2,-24 6,-49 4,-22 7,-43 11,-65 4,-22 7,-44 11,-65 23,0 45,0 68,0 -4,26 -7,53 -10,79 -4,27 -7,53 -10,80 -2,9 -2,15 -1,17 1,3 4,4 8,4 5,-1 8,-2 10,-5 1,-3 3,-10 4,-20 3,-26 6,-52 9,-78 3,-26 6,-52 9,-78 23,0 45,0 68,0zm80 168c-2,12 -4,25 -5,37 -27,0 -53,1 -79,1 9,-34 17,-69 26,-103 8,-34 15,-68 23,-103 33,0 65,0 98,0 7,35 14,69 21,103 8,34 15,69 24,103 -26,0 -52,-1 -78,-1 -1,-12 -2,-25 -3,-37 -9,0 -18,0 -27,0zm114 -168c16,0 32,0 48,0 32,1 53,2 65,4 12,2 21,7 30,16 8,8 13,22 15,41 2,17 1,28 -4,34 -4,5 -14,8 -30,9 15,3 25,8 30,13 5,5 9,9 11,13 1,4 3,15 6,33 1,10 2,19 3,29 2,10 2,19 4,29 -24,-3 -48,-5 -72,-8 -1,-11 -2,-23 -3,-35 -1,-12 -2,-24 -3,-35 -1,-12 -3,-19 -5,-22 -3,-3 -9,-4 -19,-5 1,16 2,32 3,48 2,16 3,32 4,47 -26,-1 -51,-3 -76,-4 -1,-34 -3,-69 -4,-103 -1,-35 -2,-69 -3,-104zm70 36c1,16 3,32 4,47 8,1 13,0 16,-1 3,-2 4,-8 4,-17 -1,-4 -1,-8 -1,-12 -1,-6 -3,-11 -6,-13 -3,-2 -9,-3 -17,-4zm107 -35c17,0 34,0 51,0 33,0 55,2 67,5 13,3 22,8 30,14 8,7 13,15 16,23 4,9 8,25 14,50 3,15 7,31 10,46 4,15 7,30 11,45 5,24 7,39 6,46 -1,7 -4,13 -9,15 -6,3 -14,4 -23,4 -9,-1 -24,-3 -43,-7 -33,-7 -66,-12 -99,-17 -5,-37 -10,-75 -16,-112 -5,-37 -10,-75 -15,-112zm75 40c5,26 9,53 14,79 4,26 9,52 13,78 11,1 18,1 20,-3 2,-3 1,-12 -2,-29 -3,-15 -6,-31 -9,-47 -3,-15 -5,-31 -8,-47 -2,-11 -4,-18 -5,-21 -2,-3 -4,-5 -7,-7 -3,-1 -8,-2 -16,-3zm-352 5l-14 86 25 0 -11 -86z"/>
  </g>
 </g>
</svg>
