<?xml version="1.0" encoding="UTF-8"?>
<!DOCTYPE svg PUBLIC "-//W3C//DTD SVG 1.1//EN" "http://www.w3.org/Graphics/SVG/1.1/DTD/svg11.dtd">
<!-- Creator: CorelDRAW X7 -->
<svg xmlns="http://www.w3.org/2000/svg" xml:space="preserve" width="34.5805mm" height="40.8025mm" version="1.1" style="shape-rendering:geometricPrecision; text-rendering:geometricPrecision; image-rendering:optimizeQuality; fill-rule:evenodd; clip-rule:evenodd"
viewBox="0 0 479 565"
 xmlns:xlink="http://www.w3.org/1999/xlink">
 <defs>
  <style type="text/css">
   <![CDATA[
    .fil0 {fill:#FEFEFE}
    .fil2 {fill:#FEFEFE}
    .fil1 {fill:#373435}
    .fil3 {fill:#373435;fill-rule:nonzero}
   ]]>
  </style>
 </defs>
 <g id="DESIGNED_x0020_BY_x0020_FREEPIK">
  <metadata id="CorelCorpID_0Corel-Layer"/>
  <g id="_2827144503184">
   <path class="fil0" d="M62 153c129,-29 263,-29 392,0l10 2 -38 249c0,3 -1,6 -2,9 9,3 17,6 23,12 6,6 11,12 14,20 3,7 5,16 6,24 2,6 3,12 5,18 1,6 2,12 4,18 2,9 4,19 3,28 -2,12 -8,22 -19,27 -7,4 -15,5 -22,4 -8,0 -15,-1 -22,-3 -13,-2 -25,-4 -38,-6l-5 -1 -7 -1c-9,-1 -18,-2 -28,-3l-5 0 -3 -1c-10,0 -20,-1 -30,-1l-4 0 -1 -1 -5 0c-6,4 -13,8 -20,12 -8,5 -15,5 -23,0 -7,-4 -14,-8 -21,-12l-7 0 -17 1c-7,2 -14,3 -20,3 -9,1 -18,1 -27,-1 0,0 0,0 0,0l0 2 -20 3c-6,0 -13,1 -19,3l-7 1c-5,2 -10,4 -16,5 -8,2 -18,2 -26,0 -11,-3 -20,-9 -26,-18 -5,-8 -7,-17 -6,-26 1,-7 3,-14 5,-20 1,-6 2,-11 4,-16 1,-5 3,-10 4,-16 3,-9 5,-18 10,-26 5,-11 13,-18 22,-24 4,-2 8,-4 12,-5 -1,-3 -2,-6 -2,-9l-38 -249 10 -2z"/>
   <path class="fil1" d="M65 164l36 238c4,26 24,48 41,68 30,33 70,57 110,79 5,3 8,3 12,0 41,-23 80,-46 110,-79 17,-20 37,-42 41,-68l37 -238c-128,-28 -260,-28 -387,0z"/>
   <path class="fil0" d="M258 526c35,-20 72,-41 99,-71 13,-15 32,-36 35,-56l33 -217c-55,-11 -111,-16 -167,-16 -56,0 -112,5 -167,16l33 217c3,20 23,41 36,56 26,30 63,52 98,71z"/>
   <path class="fil0" d="M289 421c-20,5 -41,5 -62,0 -3,11 -6,23 -9,34 -27,-37 -35,-50 -72,-76 7,-55 7,-103 0,-157l5 0c14,-57 41,-108 107,-108 67,0 94,51 107,108l5 0c-6,54 -7,102 0,157 -37,26 -45,39 -71,76 -3,-12 -7,-23 -10,-34z"/>
   <path class="fil1" d="M295 411c-25,8 -49,8 -73,0 -3,9 -5,18 -7,26 -20,-28 -32,-41 -61,-62 7,-49 7,-97 1,-146l4 -7c13,-52 37,-100 99,-100 62,0 87,48 99,100l5 7c-6,50 -7,96 0,146 -29,21 -40,34 -60,62 -3,-9 -5,-17 -7,-26z"/>
   <path class="fil2" d="M258 186l8 -29c6,-18 13,-31 22,-48 23,-44 -1,-73 -30,-89 -10,-6 -20,-10 -29,-12 -34,-16 -78,-7 -104,20 -18,19 -44,41 -71,42 -14,0 -28,-5 -39,-14 -11,-10 -20,-7 -12,9 9,20 20,33 34,41l-17 -1c-4,0 -7,3 0,6l22 10c9,5 19,9 29,12 31,7 57,-6 79,-27 6,-7 14,-15 23,-22 -1,9 4,8 12,5 9,-2 15,-3 24,-3 6,2 9,7 11,10 15,17 26,37 30,60l8 30z"/>
   <path class="fil0" d="M258 129c48,0 77,35 89,86 -22,1 -45,-6 -68,-12 25,18 49,32 74,34 -5,42 -5,96 1,134 -21,15 -31,23 -49,48 -9,-33 -21,-82 -17,-120l41 -19 -2 -26 10 -11 -58 24 -8 -4 2 6c-1,17 0,37 4,54l-19 18 -19 -18c5,-17 6,-37 4,-54l2 -6 -8 4 -57 -24 10 11 -3 26 41 19c4,38 -7,87 -17,120 -18,-25 -28,-33 -48,-48 5,-38 6,-92 0,-134 26,-2 49,-16 75,-34 -24,6 -47,13 -69,12 12,-51 41,-86 89,-86z"/>
   <path class="fil1" d="M258 32c30,16 42,39 23,74 4,-26 -4,-51 -23,-74zm0 123c-4,-22 -14,-44 -32,-64 10,-1 18,2 25,8 -11,-16 -29,-26 -67,-17 4,-8 16,-14 30,-18 -19,-3 -42,6 -70,36 -42,40 -71,28 -99,14 30,1 47,-4 58,-11 -44,11 -76,-1 -93,-41 42,31 82,12 120,-29 40,-33 77,-33 112,-8 -42,-8 -67,0 -79,18 41,-17 74,-19 92,13 0,-5 -1,-11 -5,-17 3,3 5,6 8,9 15,21 18,53 0,107z"/>
   <path class="fil1" d="M352 424l0 -3 18 1c7,0 13,0 20,0 10,0 22,0 31,2 7,2 13,5 19,10 4,4 8,9 11,15 2,6 4,15 6,22 1,6 3,12 4,18 1,6 3,12 4,19 2,7 4,17 3,24 -1,8 -5,14 -13,18 -5,2 -11,3 -17,3 -6,0 -13,-2 -19,-3 -13,-3 -26,-5 -39,-7l-5 -1 -7 0c-9,-1 -19,-2 -28,-3l-6 -1 -3 0c-10,-1 -20,-1 -30,-2l-4 0 -1 0c-11,0 -21,-1 -31,-1l-6 0 -8 0c-11,0 -21,1 -31,1l-20 0c-6,2 -12,3 -19,4 -7,0 -15,0 -23,-1 -4,-1 -8,-3 -11,-4l-2 6 -11 2c-6,1 -13,2 -19,3l-9 2c-5,2 -10,3 -14,4 -8,2 -15,2 -22,1 -8,-2 -15,-6 -19,-13 -3,-6 -5,-12 -4,-19 1,-6 2,-13 4,-19 1,-5 3,-10 4,-15 2,-6 3,-11 4,-16 3,-8 5,-17 9,-25 4,-8 11,-14 19,-19 9,-5 19,-7 29,-7 10,0 19,1 27,6 0,0 1,1 1,1l1 -5 13 -1c7,0 14,0 21,0l0 0 14 0c9,0 19,0 28,0l5 0 0 0 4 0 8 0 0 0 1 0c13,0 26,0 39,0l4 0 0 0 17 0c6,0 12,0 19,0 9,0 20,0 29,2 2,0 3,1 5,1z"/>
   <path class="fil0" d="M259 527l6 0c10,0 20,1 31,1l1 0 4 0c10,1 20,1 30,2l4 0 5 1c10,1 19,2 29,3l7 1 5 0c13,2 26,5 39,7 6,1 13,3 19,3 4,0 9,0 13,-2 5,-3 7,-7 8,-12 1,-6 -1,-16 -3,-22 -1,-6 -3,-12 -4,-18 -1,-6 -3,-12 -4,-18 -2,-7 -3,-15 -6,-21 -2,-5 -5,-9 -9,-13 -4,-4 -9,-6 -15,-7 -8,-2 -20,-2 -29,-2 -7,-1 -13,-1 -20,-1l-9 0 1 9c0,1 0,2 0,2 0,0 0,0 0,-1 -5,-4 -10,-7 -17,-8 -8,-2 -19,-2 -27,-2 -7,0 -13,0 -20,0l-8 0 1 9c0,8 0,16 0,25 -1,-9 -3,-18 -5,-27l-1 -7 -7 0c-6,0 -13,0 -19,0 -7,0 -14,0 -20,0l-7 0 -1 6c-1,6 -2,11 -3,16 0,-4 0,-9 1,-13l0 -9 -8 0c-9,0 -19,0 -28,0l-7 0 0 0 0 0c-9,0 -19,0 -28,0l-6 0 -1 7c-1,2 -1,5 -2,7 -2,-4 -6,-7 -10,-10 -7,-4 -15,-5 -23,-5 -9,0 -17,2 -25,6 -7,4 -12,9 -16,16 -3,7 -6,16 -8,23 -1,5 -3,11 -4,16 -2,5 -3,10 -4,15 -2,6 -4,12 -4,18 -1,5 0,9 3,14 3,5 8,7 14,9 6,1 12,1 18,0 5,-1 10,-3 15,-6 0,0 0,0 1,-1l0 1 7 -1c7,-1 13,-2 20,-3l6 -1 1 -5c0,-4 1,-7 2,-10 0,1 1,3 3,4 4,4 9,7 15,8 7,1 14,1 21,1 6,-1 12,-2 18,-4 4,-1 8,-3 11,-5l-1 5 10 0c11,0 21,-1 32,-1l8 0z"/>
   <path class="fil3" d="M142 471c-10,0 -19,1 -29,2 1,-3 1,-6 2,-9 1,-5 2,-9 1,-10 0,-2 -1,-2 -3,-2 -1,0 -3,1 -4,2 -1,1 -2,4 -3,9 -1,8 -3,16 -5,23 -2,8 -4,16 -5,24 -1,4 -2,7 -1,8 0,1 1,2 3,1 2,0 4,-1 5,-3 1,-1 2,-4 3,-9 1,-4 2,-7 3,-11 -2,0 -4,0 -6,1 1,-5 2,-10 3,-15 12,-1 23,-2 35,-3 -2,8 -3,16 -5,24 -1,8 -3,16 -4,24 -7,1 -13,2 -20,3 -1,-2 -1,-4 -2,-6 -2,4 -6,6 -9,8 -4,2 -8,4 -13,5 -5,1 -10,1 -14,0 -5,-1 -8,-3 -9,-5 -2,-3 -2,-6 -2,-10 0,-3 1,-8 3,-16 2,-5 3,-10 5,-15 1,-5 2,-10 4,-16 2,-10 5,-17 7,-21 3,-5 7,-9 13,-13 6,-4 13,-5 21,-5 8,0 14,1 19,4 5,3 8,6 8,10 1,4 1,9 0,17 0,1 -1,2 -1,4zm79 -34c-1,9 -2,19 -2,28 -1,9 -2,18 -3,28 0,6 -1,10 -2,13 0,3 -2,5 -5,8 -3,3 -7,5 -12,7 -5,1 -10,2 -17,3 -7,1 -13,0 -18,-1 -6,-1 -9,-3 -12,-5 -2,-3 -3,-6 -3,-9 0,-3 1,-9 3,-19 1,-9 3,-18 4,-26 1,-9 3,-18 4,-27 10,0 19,0 28,0 -2,11 -3,22 -4,32 -2,11 -3,22 -4,32 -1,4 -1,6 -1,7 1,1 2,2 4,2 1,0 3,-1 3,-2 1,-1 2,-4 2,-8 1,-11 3,-21 4,-32 1,-10 2,-20 3,-31 9,0 19,0 28,0zm32 68c-1,5 -2,9 -2,14 -11,0 -21,1 -32,1 4,-14 7,-28 10,-42 4,-13 7,-27 10,-41 13,0 26,0 39,0 3,14 6,28 9,42 3,13 6,27 9,41 -10,0 -21,-1 -31,-1 -1,-5 -1,-9 -2,-14 -3,0 -7,0 -10,0zm45 -68c7,0 13,0 20,0 13,0 21,1 26,2 5,0 9,3 12,6 3,3 5,9 6,17 1,6 0,11 -1,13 -2,2 -6,4 -13,4 6,1 10,3 12,5 3,2 4,4 5,5 0,2 1,6 2,14 1,3 1,7 2,11 0,4 0,8 1,12 -10,-1 -19,-2 -29,-3 0,-5 -1,-10 -1,-14 0,-5 -1,-10 -1,-15 -1,-4 -1,-7 -2,-8 -1,-1 -4,-2 -8,-2 1,6 1,13 2,19 0,6 0,13 1,19 -10,-1 -21,-1 -31,-2 0,-14 -1,-27 -1,-41 -1,-14 -1,-28 -2,-42zm29 15c0,6 1,12 1,19 3,0 6,-1 7,-1 1,-1 2,-3 1,-7 0,-1 0,-3 0,-4 -1,-3 -1,-5 -2,-6 -2,-1 -4,-1 -7,-1zm43 -15c7,0 13,0 20,0 13,1 22,1 27,2 5,2 9,4 12,6 3,3 5,6 7,10 1,3 3,10 5,20 2,6 3,12 4,18 2,6 3,12 5,18 2,9 3,16 2,19 0,2 -1,5 -4,6 -2,1 -5,1 -9,1 -3,0 -9,-1 -17,-3 -13,-2 -27,-5 -40,-7 -2,-15 -4,-30 -6,-45 -2,-15 -4,-30 -6,-45zm30 17c2,10 4,21 5,31 2,11 4,21 6,31 4,1 7,1 8,0 0,-2 0,-6 -1,-12 -1,-6 -2,-13 -4,-19 -1,-6 -2,-13 -3,-19 -1,-4 -2,-7 -2,-8 -1,-2 -1,-3 -3,-3 -1,-1 -3,-1 -6,-1zm-141 2l-6 34 10 0 -4 -34z"/>
  </g>
 </g>
</svg>
