<?xml version="1.0" encoding="UTF-8"?>
<!DOCTYPE svg PUBLIC "-//W3C//DTD SVG 1.1//EN" "http://www.w3.org/Graphics/SVG/1.1/DTD/svg11.dtd">
<!-- Creator: CorelDRAW X7 -->
<svg xmlns="http://www.w3.org/2000/svg" xml:space="preserve" width="10.0328mm" height="11.9713mm" version="1.1" style="shape-rendering:geometricPrecision; text-rendering:geometricPrecision; image-rendering:optimizeQuality; fill-rule:evenodd; clip-rule:evenodd"
viewBox="0 0 152 182"
 xmlns:xlink="http://www.w3.org/1999/xlink">
 <defs>
  <style type="text/css">
   <![CDATA[
    .fil0 {fill:#373435}
    .fil1 {fill:#373435;fill-rule:nonzero}
   ]]>
  </style>
 </defs>
 <g id="DESIGNED_x0020_BY_x0020_FREEPIK">
  <metadata id="CorelCorpID_0Corel-Layer"/>
  <g id="_2827056444784">
   <path class="fil0" d="M18 52l12 79c1,3 1,5 2,7 1,-1 2,-1 3,-1 2,0 4,1 6,1 -1,-2 -3,-5 -3,-8l-11 -72c9,-1 17,-3 26,-4 2,-3 3,-5 5,-8 -13,1 -27,3 -40,6zm55 124c2,1 5,3 8,4 1,1 2,1 4,0 2,-1 5,-3 7,-4 -2,0 -5,0 -7,0l-2 0 -3 0c-2,0 -5,0 -7,0zm60 -38c1,-2 2,-4 2,-7l12 -79c-13,-3 -27,-5 -40,-6 2,3 4,5 5,8 9,1 18,3 26,4l-11 72c0,3 -1,5 -3,8l3 0c1,0 4,0 6,0z"/>
   <path class="fil0" d="M95 135c-8,2 -17,2 -25,0 0,1 0,2 0,3l-6 0c-4,-6 -8,-10 -16,-16 2,-16 2,-32 0,-48l2 -2c3,-16 10,-30 26,-33 1,0 1,1 1,2 -13,2 -21,13 -24,28 7,0 15,-2 23,-4 -9,6 -17,11 -25,11 2,14 2,32 0,45 7,5 10,8 16,16 3,-11 7,-27 6,-40l-14 -6 1 -9 -4 -4 20 8 2 -1 -1 2c1,6 1,13 -1,18l7 6 6 -6c-2,-5 -2,-12 -1,-18l-1 -2 3 1 19 -8 -4 4 1 9 -14 6c-1,13 3,29 6,40 6,-8 9,-11 16,-16 -1,-13 -2,-31 0,-45 -8,0 -16,-5 -25,-11 8,2 16,4 23,4 -3,-15 -11,-25 -23,-28 0,0 1,-1 1,-2 15,3 22,17 25,33l2 2c-2,17 -2,32 0,48 -8,6 -11,10 -16,16l-5 0 0 0c-1,-1 -1,-2 -1,-3z"/>
   <path class="fil0" d="M83 8c9,6 14,13 7,25 2,-9 -1,-17 -7,-25zm0 41c-2,-7 -5,-14 -11,-21 3,-1 6,1 8,3 -4,-6 -10,-9 -22,-6 1,-3 5,-5 10,-6 -6,-1 -14,2 -23,12 -14,13 -24,9 -33,5 10,0 15,-2 19,-4 -15,4 -25,-1 -31,-14 14,11 27,4 40,-9 13,-11 25,-11 37,-3 -14,-3 -22,0 -26,6 13,-6 25,-6 31,4 0,-2 -1,-4 -2,-5 1,0 2,2 2,3 5,7 7,17 1,35z"/>
   <path class="fil0" d="M114 139l0 -1 6 0c2,0 4,0 7,0 3,0 7,0 10,1 2,0 4,1 6,3 2,1 3,3 4,5 1,2 1,5 2,7 0,2 1,4 1,7 1,2 1,4 1,6 1,2 2,5 1,8 0,2 -1,4 -4,6 -2,1 -3,1 -5,1 -3,0 -5,-1 -7,-1 -4,-1 -9,-2 -13,-3l-2 0 -2 0c-3,0 -6,-1 -9,-1l-2 0 -1 0c-4,-1 -7,-1 -10,-1l-2 0 0 0c-3,0 -7,0 -10,0l-2 0 -3 0c-3,0 -7,0 -10,0l-7 0c-2,1 -4,1 -6,1 -3,1 -5,0 -8,0 -1,0 -2,-1 -4,-1l0 2 -4 0c-2,1 -4,1 -6,1l-3 1c-2,1 -3,1 -5,2 -2,0 -5,0 -7,0 -3,-1 -5,-2 -6,-5 -2,-2 -2,-4 -2,-6 0,-2 1,-4 2,-6 0,-2 1,-4 1,-5 0,-2 1,-4 1,-6 1,-2 2,-5 3,-8 2,-2 4,-5 6,-6 3,-2 7,-3 10,-3 3,0 7,1 9,3 0,0 0,0 1,0l0 -2 4 0c3,0 5,0 7,0l0 0 5 0c3,0 6,0 9,0l2 0 0 0 1 0 3 0 0 0 0 0c4,0 9,0 13,0l2 0 0 0 5 0c2,0 4,0 6,0 3,0 7,0 10,0 1,0 1,1 2,1zm-31 34l2 0c3,0 7,0 10,0l1 0 1 0c3,1 7,1 10,1l1 0 2 0c3,1 6,1 9,1l3 1 1 0c5,0 9,1 14,2 2,0 4,1 6,1 1,0 3,0 4,-1 2,-1 3,-2 3,-4 0,-2 -1,-5 -1,-7 -1,-2 -1,-4 -2,-6 0,-2 0,-4 -1,-6 0,-2 -1,-5 -2,-7 0,-2 -1,-3 -3,-4 -1,-1 -3,-2 -5,-3 -3,0 -7,0 -9,0 -3,0 -5,0 -7,0l-3 0 0 3c0,0 0,0 0,0 0,0 0,0 0,0 -1,-2 -3,-3 -5,-3 -3,-1 -7,0 -10,0 -2,0 -4,0 -6,0l-3 0 0 2c0,3 1,6 1,9 -1,-3 -2,-6 -2,-9l-1 -2 -2 0c-2,0 -4,0 -6,0 -2,0 -5,0 -7,0l-2 0 0 2c-1,1 -1,3 -2,5 0,-2 1,-3 1,-5l0 -2 -3 0c-3,0 -6,0 -9,0l-2 0 0 0 -1 0c-3,0 -6,0 -9,0l-2 0 0 2c0,1 -1,1 -1,2 0,-1 -2,-2 -3,-3 -2,-2 -5,-2 -8,-2 -3,0 -6,1 -8,2 -2,1 -4,3 -5,5 -2,3 -2,6 -3,8 -1,2 -1,4 -1,5 -1,2 -1,4 -2,5 0,2 -1,4 -1,6 0,2 0,4 1,5 1,2 3,3 4,3 2,0 5,0 7,0 1,0 3,-1 4,-2 1,0 1,0 1,0l0 0 2 0c2,-1 5,-1 7,-1l2 0 0 -2c0,-1 1,-3 1,-4 0,1 0,1 1,2 1,1 3,2 5,2 2,1 4,1 7,1 2,0 4,-1 6,-2 1,0 2,-1 4,-1l-1 1 4 0c3,0 7,0 10,0l3 0z"/>
   <path class="fil1" d="M44 154c-3,0 -7,1 -10,1 0,-1 1,-2 1,-3 0,-2 0,-3 0,-3 0,-1 0,-1 -1,-1 0,0 -1,0 -1,1 0,0 -1,1 -1,3 -1,2 -1,5 -2,8 0,2 -1,5 -2,7 0,2 0,3 0,3 0,0 1,1 1,0 1,0 2,0 2,-1 0,0 1,-1 1,-3 0,-1 1,-2 1,-3 -1,0 -1,0 -2,0 0,-2 1,-3 1,-5 4,0 8,-1 11,-1 0,3 -1,5 -1,8 -1,3 -1,5 -1,8 -3,0 -5,1 -7,1 0,0 0,-1 -1,-2 -1,1 -2,2 -3,3 -1,1 -2,1 -4,1 -2,1 -3,1 -5,0 -1,0 -2,-1 -3,-1 0,-1 -1,-2 0,-3 0,-2 0,-3 1,-6 0,-2 1,-3 1,-5 1,-2 1,-3 1,-5 1,-3 2,-6 3,-7 1,-2 2,-3 4,-5 2,-1 5,-1 7,-1 3,0 5,0 7,1 1,1 2,2 2,3 1,2 1,4 0,6 0,0 0,1 0,1zm26 -11c0,3 0,6 -1,9 0,3 0,7 0,10 -1,2 -1,3 -1,4 0,1 -1,2 -2,3 -1,1 -2,1 -4,2 -1,1 -3,1 -5,1 -3,0 -5,0 -7,0 -1,-1 -3,-1 -3,-2 -1,-1 -1,-2 -1,-3 0,-1 0,-3 0,-6 1,-3 1,-6 2,-9 0,-3 1,-6 1,-9 3,0 6,0 9,0 0,4 0,7 -1,11 0,3 -1,7 -1,10 0,2 0,3 0,3 0,0 0,0 1,0 0,0 1,0 1,0 0,-1 0,-2 1,-3 0,-4 0,-7 1,-10 0,-4 1,-7 1,-11 3,0 6,0 9,0zm11 23c0,1 -1,3 -1,5 -3,0 -7,0 -10,0 1,-5 2,-10 3,-14 1,-5 2,-9 3,-14 4,0 9,0 13,0 1,5 2,9 3,14 1,4 2,9 3,14 -3,0 -7,0 -10,0 0,-2 -1,-4 -1,-5 -1,0 -2,0 -3,0zm15 -23c2,0 4,0 6,0 5,0 8,0 9,1 2,0 3,1 4,2 1,1 2,3 2,5 0,3 0,4 0,5 -1,1 -2,1 -4,1 2,0 3,1 4,2 0,0 1,1 1,2 0,0 1,2 1,4 0,1 0,2 0,4 1,1 1,2 1,4 -3,-1 -7,-1 -10,-1 0,-2 0,-3 0,-5 0,-2 0,-3 -1,-5 0,-1 0,-2 0,-3 -1,0 -1,0 -3,0 0,2 1,4 1,6 0,2 0,4 0,6 -3,0 -7,0 -10,0 0,-5 0,-9 -1,-14 0,-5 0,-9 0,-14zm9 5c1,2 1,4 1,6 1,0 2,0 2,0 1,0 1,-1 1,-2 -1,-1 -1,-1 -1,-2 0,-1 0,-1 0,-2 -1,0 -2,0 -3,0zm15 -5c2,0 4,0 7,0 4,0 7,0 9,1 1,0 2,1 3,2 2,1 2,2 3,3 0,1 1,3 2,7 0,2 0,4 1,6 0,2 1,4 1,6 1,3 1,5 1,6 0,1 0,2 -1,2 -1,0 -2,0 -3,0 -1,0 -3,0 -6,-1 -4,0 -9,-1 -13,-2 -1,-5 -2,-10 -2,-15 -1,-5 -2,-10 -2,-15zm10 6c0,3 1,7 2,10 0,4 1,7 1,11 2,0 3,0 3,-1 0,0 0,-1 0,-4 -1,-2 -1,-4 -1,-6 -1,-2 -1,-4 -2,-6 0,-2 0,-3 0,-3 0,0 -1,-1 -1,-1 -1,0 -1,0 -2,0zm-47 0l-2 12 3 0 -1 -12z"/>
  </g>
 </g>
</svg>
