<?xml version="1.0" encoding="UTF-8"?>
<!DOCTYPE svg PUBLIC "-//W3C//DTD SVG 1.1//EN" "http://www.w3.org/Graphics/SVG/1.1/DTD/svg11.dtd">
<!-- Creator: CorelDRAW X7 -->
<svg xmlns="http://www.w3.org/2000/svg" xml:space="preserve" width="62.053mm" height="74.043mm" version="1.1" style="shape-rendering:geometricPrecision; text-rendering:geometricPrecision; image-rendering:optimizeQuality; fill-rule:evenodd; clip-rule:evenodd"
viewBox="0 0 2909 3471"
 xmlns:xlink="http://www.w3.org/1999/xlink">
 <defs>
  <style type="text/css">
   <![CDATA[
    .fil0 {fill:#373435}
    .fil1 {fill:#373435;fill-rule:nonzero}
   ]]>
  </style>
 </defs>
 <g id="DESIGNED_x0020_BY_x0020_FREEPIK">
  <metadata id="CorelCorpID_0Corel-Layer"/>
  <g id="_2827056441872">
   <path class="fil0" d="M347 996l231 1512c6,40 18,79 34,116 20,-3 40,-4 61,-4 38,0 76,4 112,15 -31,-48 -54,-99 -62,-149l-210 -1375c165,-32 331,-57 498,-75 29,-57 63,-110 104,-157 -258,21 -515,60 -768,117zm1037 2361c51,29 102,58 153,87 30,16 51,14 77,-1 50,-29 101,-57 150,-86 -49,-1 -98,-2 -147,-3l-39 0 -50 0c-48,1 -96,1 -144,3zm1149 -722c19,-40 33,-82 40,-127l231 -1512c-253,-57 -510,-96 -768,-117 40,47 74,100 104,157 167,18 333,43 498,75l-210 1375c-8,49 -30,98 -60,146l46 0c36,0 79,0 119,3z"/>
   <path class="fil0" d="M1807 2567c-155,50 -310,50 -464,1 -5,21 -11,42 -17,63l-101 0c-89,-115 -165,-191 -309,-295 41,-311 40,-614 2,-925l29 -45c70,-297 202,-571 506,-628 8,15 16,31 23,47 -248,43 -400,247 -467,534 142,5 288,-40 436,-77 -164,116 -310,207 -471,216 32,266 28,608 -6,855 132,96 193,141 310,305 59,-209 132,-522 108,-762l-264 -124 17 -163 -62 -72 364 152 51 -25 -14 40c13,106 6,235 -24,342l121 115 121 -115c-27,-107 -36,-236 -23,-342l-15 -40 52 25 364 -152 -63 72 17 163 -264 124c-24,240 50,553 108,762 117,-164 179,-209 310,-305 -33,-247 -37,-589 -5,-855 -161,-9 -308,-100 -472,-216 149,37 294,82 436,77 -65,-280 -212,-482 -448,-531 7,-15 15,-31 23,-46 291,64 419,333 487,624l29 45c-38,317 -40,608 3,925 -147,107 -221,179 -310,295l-93 0 -8 0c-5,-22 -11,-43 -17,-64z"/>
   <path class="fil0" d="M1575 157c188,103 269,246 146,467 26,-164 -29,-319 -146,-467zm0 780c-27,-140 -91,-276 -202,-407 62,-5 113,16 158,53 -73,-103 -188,-167 -429,-110 25,-52 103,-84 196,-111 -123,-22 -268,39 -449,228 -265,253 -448,175 -628,88 191,5 301,-24 366,-69 -278,69 -478,-9 -587,-259 264,196 517,75 764,-183 250,-211 486,-214 710,-54 -271,-48 -424,2 -502,114 258,-109 470,-118 584,85 2,-37 -9,-74 -34,-111 18,18 35,38 51,59 95,134 118,339 2,677z"/>
   <path class="fil0" d="M2172 2649l-3 -18 116 0c43,1 86,1 129,1 60,0 138,0 196,15 44,11 85,30 119,61 30,27 53,59 68,96 18,43 29,97 40,142 8,39 17,78 26,116 9,39 18,78 26,116 11,44 25,108 19,153 -7,50 -34,93 -80,116 -34,16 -71,21 -107,19 -41,-2 -85,-11 -124,-19 -83,-16 -166,-30 -250,-43l-30 -4 -43 -5c-60,-7 -121,-14 -181,-19l-34 -4 -22 -1c-64,-5 -128,-8 -193,-11l-24 -1 -7 -1c-65,-2 -131,-3 -196,-4l-39 0 -50 0c-66,1 -132,2 -198,4l-123 3c-39,12 -79,19 -120,22 -48,4 -99,3 -147,-7 -25,-6 -50,-14 -73,-27l-8 44 -71 11c-42,6 -84,12 -125,19l-57 10c-28,14 -58,24 -89,30 -45,10 -93,12 -138,1 -49,-12 -92,-37 -118,-81 -23,-36 -31,-78 -27,-120 4,-39 15,-81 25,-119 9,-33 18,-66 27,-99 9,-32 18,-65 27,-98 14,-52 31,-110 55,-157 26,-52 69,-91 118,-121 57,-34 121,-49 187,-49 60,0 120,11 172,42 2,1 4,2 6,4l5 -34 85 -1c44,0 89,0 133,0l0 0 90 0c57,0 115,0 173,0l35 -1 0 0 22 0 52 0 0 0 6 0c84,0 167,0 251,0l24 0 0 0 105 1c40,0 81,0 122,0 57,0 128,-1 184,9 12,2 23,5 34,9zm-594 654l39 1c66,0 132,2 197,4l8 0 25 1c64,3 129,7 193,12l23 1 35 3c61,6 121,13 181,20l45 5 31 5c84,12 168,26 252,43 37,7 79,16 116,18 28,1 57,-2 82,-14 31,-16 48,-44 53,-78 5,-37 -9,-98 -18,-135 -9,-38 -18,-77 -26,-115 -9,-39 -18,-78 -26,-117 -10,-43 -21,-94 -37,-134 -13,-30 -32,-56 -56,-78 -27,-25 -61,-40 -97,-49 -53,-13 -129,-13 -184,-14 -43,0 -86,0 -129,0l-58 0 8 57c0,4 1,7 1,11 -1,-2 -2,-3 -4,-4 -28,-30 -62,-49 -103,-56 -53,-10 -121,-9 -175,-9 -41,0 -82,0 -122,0l-53 0 2 52c2,53 4,106 6,159 -12,-57 -24,-114 -35,-170l-8 -41 -41 0c-41,0 -82,0 -123,0 -43,0 -85,0 -128,0l-40 0 -9 39c-7,33 -15,66 -22,99 2,-28 4,-56 6,-84l4 -54 -54 0c-58,0 -116,0 -173,0l-45 0 0 0 -4 0c-58,0 -116,1 -174,1l-42 0 -7 42c-3,15 -5,30 -8,45 -15,-27 -38,-48 -65,-64 -44,-26 -96,-35 -146,-35 -57,0 -112,13 -161,42 -40,25 -78,58 -99,100 -23,45 -38,100 -51,148 -10,33 -18,66 -27,99 -9,33 -18,66 -27,99 -9,34 -20,74 -24,110 -3,31 3,62 20,89 19,32 52,49 87,58 38,9 78,7 116,-1 32,-7 64,-18 93,-35 3,-2 5,-3 8,-5l1 7 45 -8c42,-7 84,-13 126,-19l36 -5 7 -36c4,-21 7,-43 11,-64 6,10 12,19 20,27 25,28 61,42 97,50 43,10 89,10 132,7 41,-3 81,-10 120,-23 23,-9 46,-20 67,-34l-8 33 67 -2c66,-1 132,-3 199,-3l50 -1z"/>
   <path class="fil1" d="M838 2943c-61,4 -123,8 -184,13 4,-18 8,-36 12,-55 8,-34 11,-56 9,-65 -1,-8 -8,-12 -20,-12 -11,1 -19,5 -25,12 -5,8 -12,28 -19,59 -11,50 -23,99 -34,148 -12,50 -23,99 -35,148 -6,28 -9,46 -6,54 2,7 10,10 23,8 14,-2 25,-9 32,-19 7,-11 14,-30 20,-58 6,-24 11,-48 16,-72 -13,2 -25,3 -37,5 6,-31 14,-62 20,-93 73,-7 146,-13 218,-18 -9,51 -18,102 -27,153 -9,51 -19,102 -28,153 -42,6 -85,13 -127,20 -4,-13 -7,-26 -10,-40 -17,21 -38,38 -61,51 -23,14 -49,23 -79,29 -34,8 -66,8 -93,2 -27,-7 -46,-18 -56,-35 -11,-17 -15,-37 -12,-59 2,-22 9,-56 22,-101 9,-33 17,-66 26,-99 9,-33 18,-66 27,-98 18,-64 33,-110 48,-139 14,-29 42,-56 81,-79 38,-24 83,-35 134,-35 51,0 90,9 120,27 30,19 48,39 54,64 6,24 4,60 -4,107 -1,8 -3,16 -5,24zm499 -212c-4,59 -9,118 -14,177 -4,58 -9,117 -13,176 -3,40 -7,68 -12,84 -5,16 -17,33 -36,51 -20,18 -45,32 -76,43 -30,10 -66,17 -107,20 -45,4 -84,2 -117,-5 -33,-7 -57,-19 -71,-35 -14,-16 -21,-33 -21,-53 0,-19 5,-61 16,-124 9,-56 19,-111 28,-166 9,-56 18,-111 28,-167 57,0 115,0 173,0 -9,68 -18,135 -26,203 -9,68 -17,136 -26,203 -3,24 -3,39 -1,45 3,7 10,9 20,9 12,-1 20,-5 24,-13 5,-7 9,-24 12,-51 7,-66 15,-132 23,-198 8,-66 15,-132 23,-198 58,0 115,0 173,-1zm204 429c-5,31 -9,62 -14,93 -66,1 -133,2 -200,4 23,-88 45,-176 65,-263 21,-88 41,-175 60,-263 84,0 167,0 251,0 17,88 35,175 53,263 19,87 39,175 60,263 -66,-2 -132,-3 -198,-4 -3,-31 -6,-62 -9,-93 -23,-1 -46,-1 -68,0zm290 -429c41,1 82,1 123,1 81,0 137,2 166,8 30,5 55,19 76,41 21,21 34,57 40,105 6,43 2,72 -10,87 -12,14 -38,21 -78,22 38,9 64,20 77,33 14,13 23,24 28,34 4,11 9,39 15,84 3,25 6,50 9,74 3,25 6,50 8,75 -61,-8 -122,-14 -182,-20 -3,-30 -5,-60 -8,-90 -2,-30 -5,-60 -7,-91 -3,-29 -7,-47 -14,-54 -7,-7 -22,-12 -48,-13 3,41 6,81 9,122 3,40 6,81 9,121 -65,-4 -130,-8 -195,-11 -3,-88 -6,-176 -8,-264 -3,-88 -7,-176 -10,-264zm181 93c2,40 5,80 8,119 21,1 35,0 42,-4 8,-5 11,-19 9,-43 -1,-10 -2,-20 -3,-29 -1,-18 -6,-29 -14,-35 -8,-5 -22,-8 -42,-8zm273 -92c43,1 86,1 129,1 83,0 141,4 172,12 31,7 56,20 75,38 20,17 34,37 43,58 8,22 20,64 34,127 9,39 18,78 27,117 8,38 17,77 26,116 14,59 19,98 17,117 -3,18 -11,31 -25,39 -15,7 -34,9 -57,8 -24,-1 -61,-7 -110,-17 -85,-17 -170,-31 -254,-43 -13,-96 -26,-191 -39,-286 -13,-96 -26,-191 -38,-287zm191 104c12,67 23,133 35,199 11,67 23,133 34,200 28,4 45,2 50,-6 4,-8 3,-33 -4,-74 -8,-40 -15,-80 -23,-120 -7,-40 -15,-80 -22,-120 -6,-28 -10,-46 -13,-54 -3,-8 -9,-14 -17,-18 -8,-4 -21,-6 -40,-7zm-899 13l-35 219 63 0 -28 -219z"/>
  </g>
 </g>
</svg>
