<?xml version="1.0" encoding="UTF-8"?>
<!DOCTYPE svg PUBLIC "-//W3C//DTD SVG 1.1//EN" "http://www.w3.org/Graphics/SVG/1.1/DTD/svg11.dtd">
<!-- Creator: CorelDRAW X7 -->
<svg xmlns="http://www.w3.org/2000/svg" xml:space="preserve" width="10.7534mm" height="12.6882mm" version="1.1" style="shape-rendering:geometricPrecision; text-rendering:geometricPrecision; image-rendering:optimizeQuality; fill-rule:evenodd; clip-rule:evenodd"
viewBox="0 0 141 167"
 xmlns:xlink="http://www.w3.org/1999/xlink">
 <defs>
  <style type="text/css">
   <![CDATA[
    .fil0 {fill:#FEFEFE}
    .fil7 {fill:#FEFEFE}
    .fil6 {fill:#201E1E}
    .fil1 {fill:#201E1E}
    .fil4 {fill:#25B8EB}
    .fil2 {fill:#25B8EB}
    .fil5 {fill:#2A94BA}
    .fil3 {fill:#7FDBFF}
    .fil8 {fill:#7FDBFF}
    .fil10 {fill:url(#id0)}
    .fil9 {fill:url(#id1)}
    .fil11 {fill:url(#id2);fill-rule:nonzero}
   ]]>
  </style>
  <linearGradient id="id0" gradientUnits="userSpaceOnUse" x1="16.1819" y1="143.649" x2="135.83" y2="143.649">
   <stop offset="0" style="stop-opacity:1; stop-color:#FEFEFE"/>
   <stop offset="0.556863" style="stop-opacity:1; stop-color:#EDEEEF"/>
   <stop offset="0.639216" style="stop-opacity:1; stop-color:#E6E7E8"/>
   <stop offset="1" style="stop-opacity:1; stop-color:#DCDDDF"/>
  </linearGradient>
  <linearGradient id="id1" gradientUnits="userSpaceOnUse" x1="3.006" y1="23.9073" x2="85.6933" y2="23.9073">
   <stop offset="0" style="stop-opacity:1; stop-color:#DB000C"/>
   <stop offset="0.670588" style="stop-opacity:1; stop-color:#AF000A"/>
   <stop offset="0.811765" style="stop-opacity:1; stop-color:#890010"/>
   <stop offset="1" style="stop-opacity:1; stop-color:#820007"/>
  </linearGradient>
  <linearGradient id="id2" gradientUnits="userSpaceOnUse" x1="18.5252" y1="143.649" x2="133.484" y2="143.649">
   <stop offset="0" style="stop-opacity:1; stop-color:#DB000C"/>
   <stop offset="0.407843" style="stop-opacity:1; stop-color:#AF000A"/>
   <stop offset="0.639216" style="stop-opacity:1; stop-color:#9A0011"/>
   <stop offset="1" style="stop-opacity:1; stop-color:#820007"/>
  </linearGradient>
 </defs>
 <g id="DESIGNED_x0020_BY_x0020_FREEPIK">
  <metadata id="CorelCorpID_0Corel-Layer"/>
  <g id="_2827139976720">
   <path class="fil0" d="M18 45c38,-8 78,-8 116,0l3 1 -11 73c0,1 0,2 -1,3 3,1 5,2 7,4 2,1 3,3 4,5 1,3 1,5 2,7 0,2 1,4 1,6 1,2 1,3 1,5 1,3 2,6 1,8 0,4 -2,7 -5,8 -2,1 -5,2 -7,2 -2,0 -4,-1 -6,-1 -4,-1 -8,-2 -12,-2l-1 0 -2 -1c-3,0 -5,0 -8,-1l-2 0 -1 0c-3,0 -6,0 -9,0l-1 0 0 0 -1 0c-2,1 -4,2 -6,3 -3,1 -5,1 -7,0 -2,-1 -4,-2 -6,-3l-2 0 -6 0c-1,0 -3,1 -5,1 -3,0 -6,0 -8,-1 0,0 0,0 0,0l0 1 -6 1c-2,0 -4,0 -6,1l-2 0c-1,1 -3,1 -4,1 -3,1 -6,1 -8,0 -3,0 -6,-2 -8,-5 -1,-2 -2,-5 -2,-7 1,-3 1,-5 2,-7 0,-1 1,-3 1,-4 0,-2 1,-3 1,-5 1,-2 2,-5 3,-8 1,-3 4,-5 7,-7 1,0 2,-1 3,-1 0,-1 0,-2 0,-3l-12 -73 3 -1z"/>
   <path class="fil1" d="M19 48l11 71c1,7 7,14 12,20 9,10 20,16 32,23 2,1 3,1 4,0 12,-7 24,-13 32,-23 6,-6 11,-13 13,-20l10 -71c-37,-8 -76,-8 -114,0z"/>
   <path class="fil2" d="M76 49l0 106c10,-6 21,-12 29,-21 4,-4 10,-10 11,-16l10 -64c-17,-3 -33,-5 -50,-5z"/>
   <path class="fil3" d="M76 49l0 106c-10,-5 -21,-12 -29,-21 -4,-4 -9,-10 -10,-16l-10 -64c16,-3 33,-5 49,-5z"/>
   <path class="fil4" d="M76 155l0 -7c-8,-5 -17,-11 -25,-19 -4,-4 -9,-9 -10,-15l-11 -61c-1,0 -2,1 -3,1l10 64c1,6 6,12 10,16 8,9 19,16 29,21z"/>
   <path class="fil5" d="M76 155l0 -7c9,-5 17,-11 24,-19 5,-4 10,-9 11,-15l11 -61c1,0 2,1 4,1l-10 64c-1,6 -7,12 -11,16 -8,9 -19,15 -29,21z"/>
   <path class="fil0" d="M85 124c-6,2 -12,2 -18,0 -1,4 -2,7 -3,10 -8,-11 -10,-14 -21,-22 2,-16 2,-30 0,-46l2 -1c4,-16 12,-31 31,-31 20,0 28,15 32,31l1 1c-2,16 -2,30 0,46 -11,8 -13,11 -21,22 -1,-3 -2,-6 -3,-10z"/>
   <path class="fil6" d="M87 121c-7,3 -14,3 -22,0 0,3 -1,5 -2,8 -6,-8 -9,-12 -17,-18 1,-15 1,-29 0,-43l1 -2c4,-16 11,-30 29,-30 18,0 26,14 29,30l2 2c-2,14 -2,28 0,43 -9,6 -12,10 -18,18 -1,-3 -1,-5 -2,-8z"/>
   <path class="fil7" d="M76 55l2 -9c2,-5 4,-9 7,-14 7,-13 0,-22 -9,-26 -3,-2 -6,-3 -8,-4 -10,-4 -24,-2 -31,6 -5,6 -13,12 -21,13 -4,0 -8,-2 -12,-4 -3,-3 -5,-2 -3,2 2,6 6,10 10,12l-5 0c-1,0 -2,1 0,2l6 3c3,1 6,2 9,3 9,2 17,-2 23,-8 2,-2 4,-4 7,-6 0,2 1,2 4,1 2,0 4,-1 7,-1 1,1 2,2 3,3 4,5 8,11 9,18l2 9z"/>
   <path class="fil0" d="M76 38c14,0 23,10 27,25 -7,1 -14,-1 -21,-3 8,5 15,9 22,10 -1,12 -1,28 0,40 -6,4 -9,6 -14,14 -3,-10 -6,-24 -5,-36l12 -5 -1 -8 3 -3 -17 7 -2 -1 1 1c-1,5 0,11 1,16l-6 6 -5 -6c1,-5 1,-11 1,-16l0 -1 -2 1 -17 -7 3 3 -1 8 12 5c2,12 -2,26 -5,36 -5,-8 -8,-10 -14,-14 2,-12 2,-28 0,-40 8,-1 15,-5 22,-10 -7,2 -14,4 -20,3 3,-15 12,-25 26,-25z"/>
   <path class="fil8" d="M63 124c-6,-8 -13,-31 -14,-42 1,6 0,22 -1,28 6,4 11,8 15,14zm7 -45l2 -1 -20 -8 3 12 1 -7 -3 -3 17 7zm-8 -36c-6,4 -10,11 -12,20 5,0 10,0 16,-2 -4,0 -8,1 -12,0 1,-7 4,-13 8,-18z"/>
   <path class="fil2" d="M90 124c6,-8 13,-31 13,-42 0,6 1,22 1,28 -5,4 -10,8 -14,14zm-8 -45l-2 -1 21 -8 -4 12 -1 -7 3 -3 -17 7zm8 -36c6,4 10,11 13,20 -6,0 -10,0 -17,-2 4,0 9,1 13,0 -1,-7 -4,-13 -9,-18z"/>
   <path class="fil9" d="M76 9c9,5 13,12 7,22 1,-7 -1,-15 -7,-22zm0 37c-1,-7 -4,-13 -9,-19 3,0 5,1 7,2 -3,-5 -9,-8 -20,-5 1,-2 5,-4 9,-5 -5,-1 -12,2 -21,11 -12,11 -20,8 -29,4 9,0 14,-1 17,-4 -13,4 -22,0 -27,-12 12,10 24,4 36,-8 11,-10 22,-10 33,-3 -13,-2 -20,0 -24,6 12,-5 22,-6 27,4 0,-2 0,-4 -1,-6 1,1 1,2 2,3 5,6 6,16 0,32z"/>
   <path class="fil1" d="M104 125l0 -1 5 0c2,0 4,0 6,0 3,0 7,0 9,1 2,1 4,2 6,3 1,1 2,3 3,4 1,2 1,5 2,7 0,2 1,4 1,5 0,2 1,4 1,6 1,2 1,5 1,7 0,2 -1,4 -4,5 -1,1 -3,1 -5,1 -1,0 -3,0 -5,-1 -4,0 -8,-1 -12,-2l-1 0 -2 0c-3,0 -6,-1 -9,-1l-1 0 -1 0c-3,0 -6,-1 -9,-1l-1 0 -1 0c-3,0 -6,0 -9,0l-2 0 -2 0c-3,0 -6,0 -9,0l-6 0c-2,1 -4,1 -5,1 -3,1 -5,0 -7,0 -1,0 -3,-1 -4,-1l0 2 -3 0c-2,1 -4,1 -6,1l-3 1c-1,0 -3,1 -4,1 -2,0 -4,1 -6,0 -3,0 -5,-2 -6,-4 -1,-1 -1,-3 -1,-5 0,-2 1,-4 1,-6 0,-1 1,-3 1,-4 1,-2 1,-3 2,-5 0,-2 1,-5 2,-7 1,-3 3,-4 6,-6 2,-1 5,-2 8,-2 3,0 6,0 8,2 0,0 0,0 1,0l0 -2 4 0c2,0 4,0 6,0l0 0 4 0c3,0 5,0 8,0l2 0 0 0 1 0 2 0 0 0 0 0c4,0 8,0 12,0l1 0 0 0 5 0c2,0 4,0 6,0 2,0 6,0 8,1 1,0 1,0 2,0z"/>
   <path class="fil10" d="M76 156l2 0c3,0 6,0 9,0l1 0 1 0c3,0 6,0 9,0l1 1 1 0c3,0 6,0 9,1l2 0 1 0c4,1 8,1 12,2 2,0 4,1 6,1 1,0 2,0 3,-1 2,-1 3,-2 3,-3 0,-2 -1,-5 -1,-7 0,-1 -1,-3 -1,-5 -1,-2 -1,-4 -1,-5 -1,-2 -1,-5 -2,-7 -1,-1 -2,-2 -3,-3 -1,-1 -3,-2 -4,-3 -3,0 -6,0 -9,0 -2,0 -4,0 -6,0l-3 0 1 2c0,1 0,1 0,1 0,0 0,0 0,0 -2,-2 -3,-3 -5,-3 -3,0 -6,0 -8,0 -2,0 -4,0 -6,0l-2 0 0 2c0,3 0,5 0,8 -1,-3 -1,-6 -2,-8l0 -2 -2 0c-2,0 -4,0 -6,0 -2,0 -4,0 -6,0l-1 0 -1 2c0,1 0,3 -1,4 0,-1 0,-2 0,-4l1 -2 -3 0c-3,0 -5,0 -8,0l-2 0 0 0 0 0c-3,0 -6,0 -8,0l-2 0 -1 2c0,0 0,1 0,2 -1,-1 -2,-2 -3,-3 -2,-1 -4,-2 -7,-2 -2,0 -5,1 -7,2 -2,1 -4,3 -5,5 -1,2 -2,4 -2,7 -1,1 -1,3 -1,4 -1,2 -1,3 -2,5 0,1 -1,3 -1,5 0,1 0,3 1,4 1,2 3,2 4,3 2,0 4,0 6,0 1,-1 3,-1 4,-2 0,0 0,0 0,0l0 0 2 0c2,0 4,-1 6,-1l2 0 0 -2c0,-1 1,-2 1,-3 0,1 0,1 1,1 1,2 3,2 4,3 2,0 4,0 6,0 2,0 4,0 6,-1 1,0 2,-1 3,-2l0 2 3 0c3,0 6,0 9,0l2 0z"/>
   <path class="fil11" d="M42 139c-3,0 -6,0 -9,0 1,0 1,-1 1,-2 0,-2 0,-3 0,-3 0,0 0,-1 -1,-1 0,0 0,1 -1,1 0,0 0,1 -1,3 0,2 -1,4 -1,7 -1,2 -1,4 -2,6 0,2 0,3 0,3 0,0 0,0 1,0 1,0 1,0 1,-1 1,0 1,-1 1,-2 1,-1 1,-3 1,-4 0,0 -1,1 -2,1 1,-2 1,-3 1,-5 4,0 7,0 11,-1 -1,3 -1,5 -2,8 0,2 -1,4 -1,7 -2,0 -4,0 -6,1 0,-1 0,-2 0,-2 -1,1 -2,1 -3,2 -1,1 -3,1 -4,1 -2,1 -3,1 -4,1 -2,-1 -2,-1 -3,-2 0,-1 -1,-2 0,-3 0,-1 0,-2 1,-5 0,-1 0,-3 1,-4 0,-2 1,-3 1,-5 1,-3 2,-5 2,-6 1,-1 2,-3 4,-4 2,-1 4,-1 6,-1 3,0 4,0 6,1 1,1 2,2 2,3 1,1 1,3 0,5 0,0 0,1 0,1zm23 -10c0,3 0,6 -1,8 0,3 0,6 0,8 0,2 0,4 -1,4 0,1 0,2 -1,3 -1,1 -2,1 -4,2 -1,0 -3,1 -5,1 -2,0 -4,0 -5,-1 -2,0 -3,0 -4,-1 0,-1 -1,-2 -1,-3 0,-1 1,-3 1,-5 1,-3 1,-6 1,-8 1,-3 1,-5 2,-8 2,0 5,0 8,0 -1,3 -1,6 -1,10 -1,3 -1,6 -2,9 0,1 0,2 0,2 0,0 1,0 1,0 1,0 1,0 1,0 1,0 1,-1 1,-3 0,-3 1,-6 1,-9 0,-3 1,-6 1,-9 3,0 5,0 8,0zm10 20c-1,1 -1,3 -1,4 -3,0 -6,0 -9,0 1,-4 2,-8 3,-12 1,-4 2,-8 2,-12 4,0 8,0 12,0 1,4 2,8 3,12 0,4 1,8 2,12 -3,0 -6,0 -9,0 0,-1 0,-3 0,-4 -1,0 -2,0 -3,0zm13 -20c2,0 4,0 6,0 4,0 6,0 8,0 1,1 2,1 3,2 1,1 2,3 2,5 0,2 0,4 -1,4 0,1 -1,1 -3,1 2,1 3,1 3,2 1,0 1,1 2,1 0,1 0,2 0,4 1,1 1,3 1,4 0,1 0,2 0,3 -3,0 -5,0 -8,-1 0,-1 -1,-2 -1,-4 0,-1 0,-3 0,-4 0,-1 0,-2 -1,-3 0,0 -1,0 -2,0 0,2 0,4 1,5 0,2 0,4 0,6 -3,0 -6,0 -9,0 0,-5 0,-9 0,-13 -1,-4 -1,-8 -1,-12zm8 4c1,2 1,4 1,6 1,0 1,0 2,0 0,-1 0,-1 0,-2 0,-1 0,-1 0,-2 0,0 0,-1 -1,-1 0,-1 -1,-1 -2,-1zm13 -4c2,0 4,0 6,0 4,0 7,0 8,1 2,0 3,1 4,1 1,1 1,2 2,3 0,1 1,3 1,6 1,2 1,4 1,5 1,2 1,4 2,6 0,3 1,4 0,5 0,1 0,2 -1,2 0,0 -1,1 -2,1 -1,-1 -3,-1 -5,-1 -4,-1 -8,-2 -12,-2 -1,-5 -1,-9 -2,-14 -1,-4 -1,-8 -2,-13zm9 5c1,3 1,6 2,9 0,3 1,6 1,9 2,1 2,1 3,0 0,0 0,-1 -1,-3 0,-2 0,-4 -1,-6 0,-2 0,-4 -1,-5 0,-2 0,-3 0,-3 0,0 -1,-1 -1,-1 0,0 -1,0 -2,0zm-42 0l-1 11 3 0 -2 -11z"/>
  </g>
 </g>
</svg>
