<?xml version="1.0" encoding="UTF-8"?>
<!DOCTYPE svg PUBLIC "-//W3C//DTD SVG 1.1//EN" "http://www.w3.org/Graphics/SVG/1.1/DTD/svg11.dtd">
<!-- Creator: CorelDRAW X7 -->
<svg xmlns="http://www.w3.org/2000/svg" xml:space="preserve" width="67.9146mm" height="80.1343mm" version="1.1" style="shape-rendering:geometricPrecision; text-rendering:geometricPrecision; image-rendering:optimizeQuality; fill-rule:evenodd; clip-rule:evenodd"
viewBox="0 0 1785 2106"
 xmlns:xlink="http://www.w3.org/1999/xlink">
 <defs>
  <style type="text/css">
   <![CDATA[
    .fil0 {fill:#FEFEFE}
    .fil7 {fill:#FEFEFE}
    .fil6 {fill:#201E1E}
    .fil1 {fill:#201E1E}
    .fil4 {fill:#25B8EB}
    .fil2 {fill:#25B8EB}
    .fil5 {fill:#2A94BA}
    .fil3 {fill:#7FDBFF}
    .fil8 {fill:#7FDBFF}
    .fil9 {fill:url(#id0)}
    .fil10 {fill:url(#id1)}
    .fil11 {fill:url(#id2);fill-rule:nonzero}
   ]]>
  </style>
  <linearGradient id="id0" gradientUnits="userSpaceOnUse" x1="37.9311" y1="301.808" x2="1081.82" y2="301.808">
   <stop offset="0" style="stop-opacity:1; stop-color:#DB000C"/>
   <stop offset="0.670588" style="stop-opacity:1; stop-color:#AF000A"/>
   <stop offset="0.811765" style="stop-opacity:1; stop-color:#890010"/>
   <stop offset="1" style="stop-opacity:1; stop-color:#820007"/>
  </linearGradient>
  <linearGradient id="id1" gradientUnits="userSpaceOnUse" x1="204.256" y1="1813.46" x2="1714.75" y2="1813.46">
   <stop offset="0" style="stop-opacity:1; stop-color:#FEFEFE"/>
   <stop offset="0.556863" style="stop-opacity:1; stop-color:#EDEEEF"/>
   <stop offset="0.639216" style="stop-opacity:1; stop-color:#E6E7E8"/>
   <stop offset="1" style="stop-opacity:1; stop-color:#DCDDDF"/>
  </linearGradient>
  <linearGradient id="id2" gradientUnits="userSpaceOnUse" x1="233.847" y1="1813.46" x2="1685.14" y2="1813.46">
   <stop offset="0" style="stop-opacity:1; stop-color:#DB000C"/>
   <stop offset="0.407843" style="stop-opacity:1; stop-color:#AF000A"/>
   <stop offset="0.639216" style="stop-opacity:1; stop-color:#9A0011"/>
   <stop offset="1" style="stop-opacity:1; stop-color:#820007"/>
  </linearGradient>
 </defs>
 <g id="DESIGNED_x0020_BY_x0020_FREEPIK">
  <metadata id="CorelCorpID_0Corel-Layer"/>
  <g id="_2827139997232">
   <path class="fil0" d="M232 570c480,-107 980,-107 1460,0l38 9 -141 926c-2,12 -4,24 -8,35 32,9 60,23 85,45 22,20 39,44 51,72 11,29 18,60 25,90 5,23 10,45 15,68 5,23 10,45 16,68 7,32 15,71 11,104 -6,44 -30,81 -70,101 -26,13 -55,17 -84,15 -26,-1 -52,-6 -78,-12 -48,-9 -97,-17 -145,-24l-17 -3 -25 -3c-35,-4 -70,-8 -105,-11l-19 -2 -13 -1c-37,-2 -74,-4 -112,-6l-13 -1 -5 0 -16 0c-25,14 -51,29 -76,43 -30,17 -57,17 -87,1 -26,-15 -52,-30 -79,-45l-22 1 -67 2c-24,7 -49,11 -73,12 -33,3 -67,2 -99,-5 -1,0 -1,0 -1,0l-2 7 -71 10c-24,4 -49,8 -73,12l-27 4c-18,9 -37,15 -57,19 -33,7 -67,8 -99,0 -40,-10 -74,-31 -96,-67 -18,-29 -25,-62 -21,-96 2,-26 9,-52 16,-77 5,-19 10,-39 15,-58 6,-19 11,-39 16,-58 9,-34 20,-69 35,-100 19,-37 50,-66 85,-87 14,-9 28,-15 43,-21 -3,-10 -5,-21 -7,-32l-141 -926 38 -9z"/>
   <path class="fil1" d="M241 611l136 887c15,98 89,179 154,253 110,125 257,212 409,296 17,10 29,8 45,0 150,-86 298,-171 408,-296 65,-74 139,-155 154,-253l136 -887c-474,-106 -968,-106 -1442,0z"/>
   <path class="fil2" d="M962 618l0 1342c130,-73 267,-154 366,-266 50,-56 122,-133 134,-209l123 -806c-205,-41 -414,-61 -623,-61z"/>
   <path class="fil3" d="M962 618l0 1342c-131,-72 -267,-154 -366,-266 -50,-56 -122,-133 -134,-209l-123 -806c205,-41 414,-61 623,-61z"/>
   <path class="fil4" d="M962 1960l0 -88c-110,-67 -223,-138 -312,-238 -54,-59 -117,-122 -132,-201l-141 -761c-13,2 -26,4 -38,7l123 806c12,76 84,153 134,209 99,112 236,193 366,266z"/>
   <path class="fil5" d="M962 1960l0 -88c110,-67 215,-138 304,-238 54,-59 117,-122 131,-201l144 -763c14,3 29,6 44,9l-123 806c-12,76 -84,153 -134,209 -99,112 -236,193 -366,266z"/>
   <path class="fil0" d="M1078 1569c-77,20 -155,20 -232,0 -12,42 -23,84 -35,125 -99,-138 -129,-183 -267,-284 27,-203 25,-380 0,-582l20 -1c50,-212 150,-402 398,-402 248,0 348,190 398,402l20 1c-25,202 -28,379 0,582 -139,101 -168,146 -267,284 -12,-41 -24,-83 -35,-125z"/>
   <path class="fil6" d="M1098 1533c-91,29 -182,29 -272,0 -9,32 -18,64 -27,95 -74,-104 -117,-153 -224,-231 25,-182 24,-360 2,-542l17 -27c46,-196 137,-374 368,-374 231,0 322,178 368,374l17 27c-22,186 -23,356 2,542 -109,79 -149,126 -225,231 -8,-31 -18,-63 -26,-95z"/>
   <path class="fil7" d="M962 692l28 -106c23,-67 51,-116 83,-178 87,-167 -5,-276 -111,-335 -37,-20 -74,-34 -109,-43 -127,-60 -292,-27 -388,74 -67,70 -162,152 -263,155 -54,3 -105,-16 -146,-51 -43,-35 -73,-25 -45,36 33,71 75,121 128,150l-65 -1c-16,-1 -24,8 -1,19l82 39c35,18 71,34 110,44 113,28 213,-23 292,-102 24,-25 55,-54 89,-78 -6,31 14,29 45,18 32,-7 56,-13 89,-11 20,5 31,23 41,35 55,66 96,140 112,225l29 110z"/>
   <path class="fil0" d="M962 482c180,0 288,129 332,319 -83,2 -169,-24 -256,-45 96,68 182,121 277,126 -19,156 -17,357 3,502 -77,56 -113,82 -182,178 -34,-122 -77,-306 -63,-446l155 -73 -10 -96 36 -42 -213 89 -30 -14 8 23c-7,63 -2,138 14,201l-71 67 -71 -67c18,-63 22,-138 14,-201l8 -23 -30 14 -214 -89 37 42 -10 96 155 73c14,140 -29,324 -63,446 -69,-96 -105,-122 -182,-178 20,-145 22,-346 3,-502 94,-5 180,-58 277,-126 -87,21 -173,47 -256,45 44,-190 152,-319 332,-319z"/>
   <path class="fil8" d="M790 1565c-73,-106 -164,-395 -167,-525 3,77 -5,267 -16,344 72,51 133,110 183,181zm94 -571l29 -14 -259 -100 44 155 10 -86 -38 -44 214 89zm-101 -456c-74,57 -124,145 -153,262 64,1 126,-8 207,-31 -54,6 -110,9 -157,2 8,-91 48,-166 103,-233z"/>
   <path class="fil2" d="M1134 1565c73,-106 166,-395 169,-525 -3,77 5,267 15,344 -71,52 -134,110 -184,181zm-94 -571l-29 -14 260 -100 -44 155 -10 -86 37 -44 -214 89zm102 -456c74,57 124,145 152,262 -64,1 -125,-8 -207,-31 55,6 110,9 157,2 -8,-91 -47,-166 -102,-233z"/>
   <path class="fil9" d="M962 119c110,61 158,145 85,274 16,-96 -17,-187 -85,-274zm0 458c-16,-82 -53,-162 -119,-239 37,-3 67,9 93,31 -43,-61 -110,-98 -252,-65 15,-30 61,-49 115,-64 -72,-13 -157,22 -263,133 -156,149 -263,103 -368,52 112,2 176,-14 214,-41 -163,41 -280,-5 -344,-152 155,115 303,44 448,-107 147,-124 285,-125 417,-32 -159,-28 -249,1 -295,67 151,-64 276,-69 343,50 1,-22 -6,-43 -21,-65 11,11 21,22 30,35 56,78 70,198 2,397z"/>
   <path class="fil1" d="M1312 1581l-2 -11 68 1c26,0 51,0 76,0 35,0 81,0 115,9 26,6 50,17 70,35 17,16 31,35 40,57 10,25 17,56 23,83 5,23 10,46 15,68 5,23 11,46 16,68 6,26 14,63 11,90 -4,30 -20,55 -47,68 -20,10 -42,12 -63,11 -24,-1 -50,-6 -73,-11 -48,-9 -97,-18 -146,-25l-18 -3 -25 -3c-36,-4 -71,-8 -106,-11l-21 -2 -12 -1c-38,-2 -76,-4 -113,-6l-14 -1 -5 0c-38,-1 -76,-2 -115,-2l-22 -1 -30 1c-38,0 -77,1 -116,2l-72 2c-23,7 -47,11 -70,12 -29,3 -58,2 -87,-4 -14,-3 -29,-8 -42,-15l-5 25 -42 7c-24,3 -49,7 -73,11l-33 6c-17,8 -35,14 -53,17 -26,6 -54,7 -81,1 -28,-7 -54,-22 -69,-47 -13,-22 -18,-46 -16,-71 2,-23 9,-47 15,-69 5,-20 10,-39 16,-59 5,-19 10,-38 15,-57 9,-31 19,-65 33,-93 15,-30 40,-53 69,-70 33,-21 71,-29 110,-29 35,0 70,6 100,24 2,1 3,2 4,3l3 -20 50 -1c26,0 52,0 78,0l0 0 52 0c34,0 68,0 102,0l20 0 0 0 14 0 30 0 0 0 4 0c49,0 98,0 147,0l14 0 0 0 61 0c24,0 48,0 72,0 34,0 75,0 108,6 7,1 13,3 20,5z"/>
   <path class="fil10" d="M964 1965l23 0c38,0 77,1 115,2l5 1 14 0c38,2 76,4 114,7l13 1 21 2c35,3 71,7 106,11l26 3 18 3c50,7 99,15 148,25 22,4 46,10 68,11 17,0 34,-1 48,-9 19,-9 29,-25 31,-45 3,-22 -5,-58 -10,-79 -5,-23 -10,-45 -16,-68 -5,-23 -10,-46 -15,-68 -6,-25 -12,-55 -22,-79 -7,-18 -18,-33 -32,-46 -16,-14 -36,-24 -57,-29 -31,-7 -76,-7 -108,-8 -25,0 -51,0 -76,0l-34 0 5 34c0,2 0,4 1,6 -1,-1 -2,-2 -3,-2 -16,-18 -36,-29 -60,-33 -31,-6 -71,-5 -103,-5 -24,0 -48,0 -72,0l-30 0 1 30c1,31 2,62 3,94 -7,-34 -14,-67 -20,-101l-5 -23 -24 0c-24,0 -48,0 -73,0 -24,0 -49,0 -74,0l-24 0 -5 23c-4,19 -9,38 -13,58 1,-17 2,-33 4,-50l2 -31 -32 0c-34,0 -68,0 -101,0l-27 0 0 0 -2 0c-34,0 -68,0 -102,0l-25 0 -4 25c-1,9 -3,18 -4,27 -9,-16 -23,-29 -39,-38 -25,-16 -56,-21 -85,-21 -34,0 -66,8 -95,25 -23,15 -45,34 -58,59 -13,26 -22,58 -30,86 -5,20 -10,39 -16,58 -5,20 -10,39 -15,58 -6,20 -12,44 -14,65 -2,18 1,36 11,52 11,19 30,29 51,34 22,5 46,4 68,-1 19,-4 38,-10 55,-20 1,-1 3,-2 4,-3l1 4 27 -4c24,-4 49,-8 74,-12l21 -3 3 -21c3,-12 5,-25 7,-37 3,6 7,11 12,16 15,16 36,24 57,29 25,6 52,6 77,4 24,-2 48,-6 70,-14 14,-4 28,-11 40,-19l-5 19 39 -1c39,-1 78,-2 117,-2l30 0z"/>
   <path class="fil11" d="M530 1754c-36,2 -72,4 -109,7 3,-11 5,-21 8,-32 4,-20 6,-33 5,-38 -1,-5 -5,-8 -12,-7 -6,0 -11,2 -14,7 -4,4 -7,16 -12,34 -6,29 -13,58 -20,87 -7,29 -13,58 -20,87 -4,16 -5,27 -4,31 2,5 6,6 14,5 8,-1 15,-5 19,-11 4,-6 8,-18 12,-34 3,-14 6,-28 9,-42 -8,1 -15,2 -22,3 4,-18 8,-36 12,-55 43,-4 85,-7 128,-11 -5,30 -11,60 -16,90 -6,30 -11,60 -17,90 -24,4 -49,7 -74,12 -2,-8 -4,-16 -6,-23 -10,12 -22,21 -36,29 -13,8 -29,14 -46,17 -20,5 -39,5 -55,1 -16,-4 -27,-10 -33,-20 -6,-10 -8,-22 -7,-34 1,-13 6,-33 13,-60 5,-19 11,-39 16,-58 5,-19 10,-38 16,-58 10,-37 19,-64 27,-81 9,-17 25,-33 48,-47 22,-13 49,-20 79,-20 29,0 52,6 70,16 17,11 28,23 32,37 3,15 2,36 -3,63 0,5 -1,10 -2,15zm292 -125c-2,35 -5,69 -8,104 -2,34 -5,68 -8,103 -1,23 -4,40 -7,49 -3,10 -10,20 -21,30 -12,11 -26,19 -44,25 -18,7 -39,11 -63,12 -26,3 -49,2 -69,-3 -19,-4 -33,-11 -41,-20 -9,-9 -13,-20 -13,-31 0,-12 3,-36 10,-73 5,-33 11,-65 16,-98 5,-32 11,-65 16,-97 34,0 68,-1 102,-1 -5,40 -10,80 -15,120 -5,39 -10,79 -15,119 -2,14 -2,23 -1,26 2,4 6,6 12,5 7,0 11,-3 14,-7 2,-4 5,-14 6,-30 5,-39 10,-78 14,-116 5,-39 9,-78 14,-117 33,0 67,0 101,0zm120 251c-3,19 -6,37 -8,55 -39,1 -78,1 -118,3 14,-52 26,-104 39,-155 12,-51 23,-103 35,-154 49,0 98,0 147,0 10,51 20,103 31,154 11,51 23,103 35,155 -39,-1 -77,-2 -116,-3 -2,-18 -4,-36 -5,-55 -14,0 -27,0 -40,0zm170 -251c24,0 48,0 72,0 48,0 80,2 98,5 17,3 32,11 44,24 12,13 20,34 24,62 3,25 1,42 -6,51 -7,8 -22,12 -46,13 22,5 37,12 45,19 8,8 14,14 16,20 3,6 6,23 9,49 2,15 4,30 6,44 1,15 3,29 4,44 -35,-5 -71,-8 -107,-12 -1,-17 -3,-35 -4,-53 -2,-17 -3,-35 -4,-53 -2,-17 -5,-27 -9,-32 -3,-4 -12,-7 -27,-7 1,23 3,47 5,71 1,24 3,48 5,71 -38,-2 -76,-5 -114,-6 -2,-52 -4,-104 -5,-155 -2,-52 -4,-103 -6,-155zm106 54c1,24 3,47 5,71 12,0 20,-1 25,-3 4,-3 6,-11 5,-25 -1,-6 -1,-12 -2,-18 -1,-10 -4,-16 -8,-20 -5,-3 -13,-4 -25,-5zm160 -53c25,0 51,0 76,0 49,0 83,3 101,7 18,5 33,12 44,22 12,11 20,22 25,35 5,13 12,37 20,74 5,23 10,46 16,68 5,23 10,46 15,68 8,35 11,58 10,69 -2,11 -6,19 -15,23 -8,4 -19,6 -33,5 -14,-1 -36,-4 -64,-10 -50,-10 -100,-18 -149,-26 -8,-55 -16,-111 -23,-167 -8,-56 -16,-112 -23,-168zm112 61c7,39 14,78 21,117 6,39 13,78 20,116 16,3 26,2 29,-3 3,-5 2,-19 -3,-43 -4,-24 -8,-47 -13,-71 -4,-23 -8,-46 -13,-70 -3,-16 -5,-27 -7,-32 -2,-4 -6,-8 -10,-10 -5,-2 -12,-4 -24,-4zm-527 7l-20 128 37 0 -17 -128z"/>
  </g>
 </g>
</svg>
