<?xml version="1.0" encoding="UTF-8"?>
<!DOCTYPE svg PUBLIC "-//W3C//DTD SVG 1.1//EN" "http://www.w3.org/Graphics/SVG/1.1/DTD/svg11.dtd">
<!-- Creator: CorelDRAW X7 -->
<svg xmlns="http://www.w3.org/2000/svg" xml:space="preserve" width="62.053mm" height="74.043mm" version="1.1" style="shape-rendering:geometricPrecision; text-rendering:geometricPrecision; image-rendering:optimizeQuality; fill-rule:evenodd; clip-rule:evenodd"
viewBox="0 0 1471 1755"
 xmlns:xlink="http://www.w3.org/1999/xlink">
 <defs>
  <style type="text/css">
   <![CDATA[
    .fil0 {fill:#FEFEFE}
    .fil1 {fill:#FEFEFE;fill-rule:nonzero}
   ]]>
  </style>
 </defs>
 <g id="DESIGNED_x0020_BY_x0020_FREEPIK">
  <metadata id="CorelCorpID_0Corel-Layer"/>
  <g id="_2827140028496">
   <path class="fil0" d="M175 504l117 764c3,20 9,40 17,59 11,-2 21,-3 31,-3 19,0 39,3 57,8 -16,-24 -28,-50 -31,-75l-107 -695c84,-17 168,-29 252,-38 15,-29 32,-56 52,-80 -130,11 -260,31 -388,60zm525 1193c25,15 51,29 77,44 15,8 26,7 39,0 25,-15 51,-29 76,-44 -25,-1 -50,-1 -75,-1l-19 -1 -25 1c-25,0 -49,0 -73,1zm581 -365c9,-20 16,-42 20,-64l117 -764c-129,-29 -258,-49 -389,-60 21,24 38,51 53,80 84,9 168,21 251,38l-106 695c-4,24 -15,49 -30,73l24 1c18,0 39,0 60,1z"/>
   <path class="fil0" d="M914 1298c-79,25 -157,25 -235,0 -3,11 -6,21 -9,32l-51 0c-45,-58 -83,-96 -156,-149 21,-157 20,-310 1,-468l15 -22c35,-151 102,-289 256,-318 4,8 7,16 11,24 -125,21 -202,125 -236,270 72,2 146,-20 221,-39 -83,59 -157,104 -239,109 17,135 14,308 -2,432 66,49 97,72 156,154 30,-105 67,-264 55,-385l-134 -62 9 -83 -32 -36 184 76 26 -12 -7 20c7,54 3,119 -12,173l61 58 61 -58c-13,-54 -18,-119 -11,-173l-8 -20 26 12 184 -76 -31 36 8 83 -133 62c-12,121 25,280 54,385 60,-82 91,-105 157,-154 -17,-124 -19,-297 -3,-432 -81,-5 -155,-50 -238,-109 75,19 149,41 221,39 -34,-142 -108,-244 -227,-269 4,-7 8,-15 12,-23 147,33 211,168 246,316l14 22c-19,161 -20,308 2,468 -75,54 -112,90 -157,149l-47 0 -4 0c-3,-11 -6,-22 -8,-32z"/>
   <path class="fil0" d="M796 79c95,53 136,125 74,237 13,-84 -15,-162 -74,-237zm0 395c-13,-71 -46,-140 -102,-206 31,-3 57,8 80,27 -37,-53 -95,-84 -217,-56 13,-26 52,-42 99,-56 -62,-11 -135,20 -227,115 -134,128 -226,89 -317,45 97,2 152,-12 185,-35 -141,35 -242,-5 -297,-131 134,99 261,38 386,-93 127,-106 246,-108 359,-27 -137,-24 -214,1 -253,58 130,-55 237,-60 295,43 1,-19 -5,-38 -18,-56 10,9 18,19 26,29 48,68 60,172 1,343z"/>
   <path class="fil0" d="M1098 1339l-1 -9 58 0c22,0 44,0 66,1 30,0 69,0 98,7 23,6 44,15 61,31 15,13 27,30 34,49 9,21 15,48 20,71 5,20 9,40 13,59 5,20 9,39 14,59 5,22 12,54 9,77 -3,25 -17,47 -41,59 -16,8 -35,10 -54,9 -20,-1 -42,-5 -62,-9 -42,-9 -84,-16 -126,-22l-16 -2 -22 -3c-30,-3 -60,-7 -91,-9l-17 -2 -11 -1c-33,-2 -65,-4 -98,-6l-12 0 -4 0c-33,-1 -66,-2 -99,-2l-19 -1 -25 1c-34,0 -67,1 -101,2l-62 1c-20,6 -40,10 -60,11 -25,2 -50,2 -75,-4 -13,-2 -25,-7 -37,-13l-4 22 -36 6c-21,3 -42,6 -63,10l-29 4c-14,7 -29,12 -45,16 -23,5 -47,6 -69,0 -25,-6 -47,-19 -60,-41 -11,-18 -16,-39 -14,-60 2,-20 8,-41 13,-60 5,-17 9,-34 14,-50 4,-17 9,-34 13,-50 7,-26 16,-56 28,-80 13,-26 35,-46 60,-61 28,-17 61,-25 94,-25 30,0 61,6 87,22 1,0 2,1 3,2l3 -18 43 0c22,0 44,0 67,0l0 0 45 0c29,0 59,0 88,0l17 0 0 0 12 0 26 0 0 0 3 0c42,0 85,0 127,0l12 0 0 0 53 0c21,0 41,0 62,0 29,0 64,0 93,5 6,1 11,2 17,4zm-300 331l20 0c33,1 66,1 99,2l4 0 13 1c32,2 65,3 97,6l12 0 18 2c30,3 61,6 91,10l23 2 15 3c43,6 85,13 128,22 18,3 40,8 59,9 14,0 28,-1 41,-7 16,-8 24,-22 27,-39 2,-19 -5,-50 -9,-69 -5,-19 -9,-39 -14,-58 -4,-20 -8,-39 -13,-59 -5,-22 -10,-47 -19,-68 -6,-15 -15,-28 -27,-39 -14,-13 -31,-21 -50,-25 -27,-7 -65,-7 -93,-7 -21,0 -43,0 -65,0l-29 0 4 29c0,1 0,3 0,5 0,-1 -1,-1 -1,-2 -15,-15 -32,-24 -53,-28 -26,-5 -61,-5 -88,-5 -21,0 -41,0 -62,0l-27 0 1 27c1,27 2,53 3,80 -6,-29 -12,-57 -17,-86l-4 -21 -21 0c-21,0 -42,0 -62,0 -22,0 -43,0 -65,0l-20 0 -5 20c-3,17 -7,34 -11,50 1,-14 2,-28 3,-42l2 -28 -27 0c-29,0 -59,0 -88,0l-22 0 0 1 -2 0c-30,0 -59,0 -88,0l-22 0 -3 21c-1,8 -3,15 -4,23 -7,-14 -19,-24 -33,-32 -22,-14 -48,-18 -74,-18 -29,0 -56,6 -81,21 -20,13 -39,29 -50,51 -12,22 -20,50 -26,74 -5,17 -9,34 -14,50 -4,17 -9,34 -13,50 -5,18 -11,38 -12,56 -2,16 1,31 10,45 9,16 26,25 44,29 19,5 39,4 58,0 17,-4 33,-9 47,-18 2,-1 3,-1 4,-2l1 3 23 -4c21,-3 42,-6 64,-9l18 -3 3 -18c2,-11 4,-22 6,-32 2,4 6,9 10,13 12,14 31,22 49,26 22,4 45,5 67,3 20,-2 41,-5 60,-12 12,-4 24,-10 34,-17l-4 17 34 -1c33,-1 67,-2 100,-2l26 0z"/>
   <path class="fil1" d="M424 1488c-31,2 -62,4 -94,6 3,-9 5,-18 7,-27 4,-18 5,-29 4,-33 0,-4 -4,-6 -10,-6 -5,0 -9,2 -12,6 -3,4 -7,14 -10,30 -6,25 -12,50 -18,74 -5,25 -11,50 -17,75 -3,14 -4,23 -3,27 1,4 5,6 12,4 7,-1 12,-4 16,-9 3,-5 7,-15 10,-30 3,-12 5,-24 8,-36 -6,1 -13,2 -19,3 3,-16 7,-31 10,-47 37,-4 74,-7 111,-10 -5,26 -9,52 -14,78 -5,26 -9,51 -14,77 -22,3 -43,7 -64,10 -2,-6 -4,-13 -5,-20 -9,11 -20,19 -31,26 -12,7 -25,12 -40,15 -18,3 -33,4 -47,0 -14,-3 -24,-9 -29,-17 -5,-9 -7,-19 -6,-30 1,-11 5,-28 11,-51 5,-17 9,-33 14,-50 4,-16 9,-33 13,-50 9,-32 17,-55 24,-70 8,-14 22,-28 41,-40 20,-12 42,-18 68,-18 26,0 46,5 61,14 15,10 24,20 27,32 3,13 2,31 -2,54 -1,5 -1,9 -2,13zm252 -107c-2,30 -5,59 -7,89 -2,30 -4,59 -7,89 -1,20 -4,34 -6,43 -2,8 -8,16 -18,25 -10,10 -23,17 -38,22 -16,5 -34,9 -54,10 -23,2 -43,1 -60,-2 -16,-4 -28,-10 -35,-18 -8,-8 -11,-17 -11,-27 0,-10 3,-31 8,-63 5,-28 9,-56 14,-84 5,-28 9,-56 14,-84 29,0 58,0 88,0 -5,34 -9,69 -14,103 -4,34 -8,68 -13,103 -1,11 -1,19 0,22 1,4 5,5 10,5 6,-1 10,-3 12,-7 2,-3 4,-12 6,-26 4,-33 8,-66 12,-100 4,-33 7,-67 11,-100 30,0 59,0 88,0zm103 216c-2,16 -5,32 -7,48 -34,0 -67,1 -101,2 11,-45 22,-89 33,-134 10,-44 20,-88 30,-132 42,0 85,0 127,0 8,44 17,88 27,132 9,45 20,89 30,134 -33,-1 -67,-2 -100,-2 -1,-16 -3,-32 -5,-48 -11,0 -23,0 -34,0zm147 -216c20,0 41,0 62,0 41,0 69,1 84,4 15,3 27,10 38,21 11,11 17,29 20,53 3,22 1,37 -5,44 -6,7 -19,11 -39,11 19,5 32,10 39,17 7,6 12,12 14,17 2,5 5,20 7,42 2,13 3,26 5,38 2,13 3,25 4,38 -31,-4 -61,-7 -92,-10 -1,-16 -3,-31 -4,-46 -1,-15 -2,-30 -4,-46 -1,-14 -3,-23 -7,-27 -3,-4 -11,-6 -24,-7 2,21 3,41 5,62 1,20 3,41 4,61 -33,-2 -65,-4 -98,-6 -2,-44 -3,-88 -5,-133 -1,-44 -3,-89 -4,-133zm91 46c1,21 3,41 4,61 11,0 18,0 22,-2 4,-3 5,-10 4,-22 -1,-5 -1,-10 -1,-15 -1,-9 -4,-14 -8,-17 -4,-3 -11,-4 -21,-5zm138 -46c22,0 43,0 65,1 42,0 72,2 87,6 16,3 29,10 38,19 10,9 17,19 22,29 4,11 10,33 17,65 5,19 9,39 14,58 4,20 9,39 13,59 7,30 10,50 8,59 -1,10 -5,16 -12,20 -7,3 -17,5 -29,4 -12,0 -31,-4 -55,-8 -43,-9 -86,-16 -129,-22 -6,-49 -13,-97 -19,-145 -7,-48 -14,-96 -20,-145zm97 53c6,33 12,67 17,101 6,33 12,67 18,100 14,2 22,2 25,-2 2,-5 1,-17 -2,-38 -4,-20 -8,-40 -12,-61 -3,-20 -7,-40 -11,-60 -3,-14 -5,-24 -6,-28 -2,-4 -5,-7 -9,-9 -4,-2 -11,-3 -20,-3zm-455 6l-17 111 32 0 -15 -111z"/>
  </g>
 </g>
</svg>
