<?xml version="1.0" encoding="UTF-8"?>
<!DOCTYPE svg PUBLIC "-//W3C//DTD SVG 1.1//EN" "http://www.w3.org/Graphics/SVG/1.1/DTD/svg11.dtd">
<!-- Creator: CorelDRAW X7 -->
<svg xmlns="http://www.w3.org/2000/svg" xml:space="preserve" width="33.3976mm" height="39.4067mm" version="1.1" style="shape-rendering:geometricPrecision; text-rendering:geometricPrecision; image-rendering:optimizeQuality; fill-rule:evenodd; clip-rule:evenodd"
viewBox="0 0 1018 1201"
 xmlns:xlink="http://www.w3.org/1999/xlink">
 <defs>
  <style type="text/css">
   <![CDATA[
    .fil0 {fill:#FEFEFE}
    .fil7 {fill:#FEFEFE}
    .fil6 {fill:#201E1E}
    .fil1 {fill:#201E1E}
    .fil4 {fill:#25B8EB}
    .fil2 {fill:#25B8EB}
    .fil5 {fill:#2A94BA}
    .fil3 {fill:#7FDBFF}
    .fil8 {fill:#7FDBFF}
    .fil9 {fill:url(#id0)}
    .fil10 {fill:url(#id1)}
    .fil11 {fill:url(#id2);fill-rule:nonzero}
   ]]>
  </style>
  <linearGradient id="id0" gradientUnits="userSpaceOnUse" x1="21.6237" y1="172.045" x2="616.686" y2="172.045">
   <stop offset="0" style="stop-opacity:1; stop-color:#DB000C"/>
   <stop offset="0.670588" style="stop-opacity:1; stop-color:#AF000A"/>
   <stop offset="0.811765" style="stop-opacity:1; stop-color:#890010"/>
   <stop offset="1" style="stop-opacity:1; stop-color:#820007"/>
  </linearGradient>
  <linearGradient id="id1" gradientUnits="userSpaceOnUse" x1="116.437" y1="1033.75" x2="977.485" y2="1033.75">
   <stop offset="0" style="stop-opacity:1; stop-color:#FEFEFE"/>
   <stop offset="0.556863" style="stop-opacity:1; stop-color:#EDEEEF"/>
   <stop offset="0.639216" style="stop-opacity:1; stop-color:#E6E7E8"/>
   <stop offset="1" style="stop-opacity:1; stop-color:#DCDDDF"/>
  </linearGradient>
  <linearGradient id="id2" gradientUnits="userSpaceOnUse" x1="133.301" y1="1033.76" x2="960.603" y2="1033.76">
   <stop offset="0" style="stop-opacity:1; stop-color:#DB000C"/>
   <stop offset="0.407843" style="stop-opacity:1; stop-color:#AF000A"/>
   <stop offset="0.639216" style="stop-opacity:1; stop-color:#9A0011"/>
   <stop offset="1" style="stop-opacity:1; stop-color:#820007"/>
  </linearGradient>
 </defs>
 <g id="DESIGNED_x0020_BY_x0020_FREEPIK">
  <metadata id="CorelCorpID_0Corel-Layer"/>
  <g id="_2827140018384">
   <path class="fil0" d="M132 325c274,-61 559,-61 832,0l22 5 -80 528c-1,7 -3,13 -5,20 18,5 35,13 48,25 13,12 23,26 29,42 7,16 11,34 15,51 3,13 6,26 9,39 2,13 5,25 8,38 5,19 9,41 7,60 -3,25 -17,46 -40,57 -15,7 -31,10 -48,9 -15,-1 -30,-4 -45,-7 -27,-5 -54,-10 -82,-14l-10 -1 -14 -2c-20,-2 -40,-4 -60,-6l-11 -1 -7 -1c-21,-1 -42,-3 -64,-4l-7 0 -3 0 -9 0c-15,8 -29,16 -44,25 -16,9 -32,9 -49,0 -15,-8 -30,-17 -45,-26l-13 1 -38 1c-14,4 -28,6 -42,7 -19,2 -38,1 -56,-3 0,0 -1,0 -1,0l0 4 -41 6c-14,2 -28,4 -42,6l-15 3c-11,5 -21,8 -32,10 -19,4 -39,5 -57,1 -23,-6 -42,-18 -55,-38 -10,-17 -14,-36 -12,-55 1,-15 5,-30 9,-44 3,-11 6,-22 9,-33 3,-11 6,-22 9,-33 5,-19 11,-39 20,-57 11,-21 29,-38 49,-50 7,-5 16,-9 24,-12 -2,-6 -3,-12 -4,-18l-81 -528 22 -5z"/>
   <path class="fil1" d="M138 348l77 506c8,56 50,102 88,144 62,71 146,121 233,169 10,5 17,5 25,0 86,-49 171,-98 233,-169 37,-42 79,-88 88,-144l77 -506c-270,-60 -551,-60 -821,0z"/>
   <path class="fil2" d="M548 352l0 766c74,-42 153,-88 209,-152 28,-32 70,-76 76,-119l71 -460c-118,-23 -237,-35 -356,-35z"/>
   <path class="fil3" d="M548 352l0 766c-74,-42 -152,-88 -209,-152 -28,-32 -69,-76 -76,-119l-70 -460c117,-23 236,-35 355,-35z"/>
   <path class="fil4" d="M548 1118l0 -51c-62,-38 -127,-79 -178,-135 -30,-34 -66,-70 -74,-115l-81 -434c-7,1 -15,3 -22,4l70 460c7,43 48,87 76,119 57,64 135,110 209,152z"/>
   <path class="fil5" d="M548 1118l0 -51c63,-38 123,-79 174,-135 30,-34 66,-70 75,-115l81 -435c9,2 17,3 26,5l-71 460c-6,43 -48,87 -76,119 -56,64 -135,110 -209,152z"/>
   <path class="fil0" d="M614 894c-44,12 -88,12 -132,0 -6,24 -13,48 -20,72 -56,-79 -73,-105 -152,-162 16,-116 14,-217 0,-332l12 -1c28,-121 85,-229 226,-229 142,0 199,108 227,229l11 1c-13,115 -15,216 1,332 -79,57 -96,83 -153,162 -6,-24 -13,-48 -20,-72z"/>
   <path class="fil6" d="M626 874c-52,17 -104,16 -155,0 -5,18 -10,36 -15,54 -43,-59 -67,-87 -128,-132 14,-103 13,-205 1,-309l9 -15c27,-112 79,-213 210,-213 132,0 184,101 210,213l10 15c-13,106 -13,204 1,309 -62,45 -85,72 -128,132 -5,-18 -10,-36 -15,-54z"/>
   <path class="fil7" d="M548 394l16 -60c13,-38 29,-66 48,-102 49,-95 -3,-157 -64,-190 -21,-12 -42,-20 -62,-25 -72,-34 -166,-15 -221,42 -38,40 -92,87 -150,89 -31,1 -60,-10 -83,-29 -24,-20 -42,-15 -26,20 19,41 43,69 73,86l-37 -1c-9,0 -14,5 -1,11l47 22c21,10 41,20 63,25 65,16 122,-13 167,-58 13,-14 31,-31 50,-45 -3,18 8,17 26,11 18,-4 32,-8 51,-7 11,3 17,14 23,20 32,38 54,80 64,129l16 62z"/>
   <path class="fil0" d="M548 275c103,0 164,73 190,181 -48,2 -97,-13 -146,-25 55,39 104,69 158,72 -11,89 -10,203 1,286 -44,32 -64,47 -103,102 -20,-70 -44,-175 -37,-255l89 -41 -6 -55 21 -24 -122 51 -17 -9 5 14c-4,35 -1,79 8,114l-41 39 -40 -39c10,-35 12,-79 8,-114l5 -14 -18 9 -121 -51 21 24 -6 55 88 41c8,80 -16,185 -36,255 -39,-55 -60,-70 -104,-102 12,-83 13,-197 2,-286 54,-3 103,-33 158,-72 -50,12 -98,27 -146,25 25,-108 87,-181 189,-181z"/>
   <path class="fil8" d="M450 892c-41,-61 -93,-225 -95,-299 2,44 -3,152 -9,196 41,29 76,63 104,103zm54 -325l17 -9 -148 -56 25 88 6 -49 -22 -25 122 51zm-58 -260c-42,32 -71,82 -87,149 37,1 72,-5 118,-18 -31,4 -62,5 -89,1 4,-51 27,-94 58,-132z"/>
   <path class="fil2" d="M647 892c41,-61 94,-225 96,-299 -2,44 2,152 8,196 -40,29 -76,63 -104,103zm-54 -325l-17 -9 148 -56 -25 88 -5 -49 21 -25 -122 51zm58 -260c42,32 71,82 87,149 -37,1 -72,-5 -118,-18 31,4 62,5 89,1 -4,-51 -27,-94 -58,-132z"/>
   <path class="fil9" d="M548 68c63,34 90,82 49,156 9,-55 -10,-107 -49,-156zm0 261c-9,-47 -30,-93 -67,-137 20,-1 38,6 53,18 -25,-34 -63,-55 -144,-37 8,-17 35,-28 65,-36 -40,-8 -89,12 -149,76 -89,84 -150,58 -210,29 64,2 100,-8 122,-23 -93,23 -160,-3 -196,-87 88,66 172,25 255,-61 84,-70 162,-71 238,-18 -91,-16 -142,1 -168,38 86,-36 157,-39 195,29 1,-13 -3,-25 -12,-37 7,6 12,12 17,19 32,45 40,114 1,227z"/>
   <path class="fil1" d="M748 901l-1 -6 39 0c14,0 29,0 43,0 20,1 46,1 65,5 15,4 29,11 40,21 10,9 18,20 23,32 6,14 10,32 13,48 3,12 6,25 9,38 3,13 6,26 9,39 3,15 8,36 6,51 -2,17 -11,31 -27,39 -11,6 -23,7 -36,6 -13,0 -28,-3 -41,-6 -28,-5 -56,-10 -84,-14l-10 -2 -14 -1c-20,-3 -40,-5 -60,-7l-12 -1 -7 0c-22,-2 -43,-3 -65,-4l-8 -1 -2 0c-22,0 -44,-1 -66,-1l-13 0 -16 0c-22,0 -45,1 -67,1l-41 1c-13,4 -26,7 -40,8 -16,1 -33,1 -49,-3 -8,-2 -17,-5 -24,-9l-3 15 -24 4c-14,2 -28,4 -42,6l-19 3c-9,5 -19,8 -30,10 -15,4 -31,4 -46,1 -16,-4 -30,-13 -39,-27 -8,-13 -10,-26 -9,-41 1,-12 5,-27 8,-39 3,-11 6,-22 9,-33 3,-11 6,-22 9,-33 5,-17 11,-37 19,-53 8,-17 23,-30 39,-40 19,-12 40,-17 63,-17 20,0 40,4 57,15 1,0 1,0 2,1l2 -12 28 0c15,0 30,0 45,0l0 0 30 0c19,0 38,0 58,0l11 0 0 0 8 0 17 0 0 0 2 0c28,0 56,0 84,0l8 0 0 0 35 0c14,0 27,0 41,0 19,0 43,0 62,3 3,1 7,2 11,3z"/>
   <path class="fil10" d="M549 1120l13 0c22,0 44,1 66,1l3 1 8 0c22,1 43,2 65,4l7 0 12 1c20,2 41,4 61,7l15 2 10 1c28,4 56,9 84,15 13,2 27,5 39,6 9,0 19,-1 28,-5 10,-5 16,-15 17,-26 2,-12 -3,-33 -6,-45 -3,-13 -6,-26 -9,-39 -2,-13 -5,-26 -8,-39 -4,-14 -7,-31 -13,-45 -4,-10 -10,-18 -18,-26 -9,-8 -21,-13 -33,-16 -18,-5 -43,-5 -61,-5 -15,0 -29,0 -43,0l-20 0 3 19c0,1 0,3 0,4 0,-1 -1,-1 -1,-1 -9,-10 -21,-17 -34,-19 -18,-3 -41,-3 -59,-3 -14,0 -27,0 -41,0l-17 0 0 17c1,18 1,36 2,54 -4,-19 -8,-39 -12,-58l-2 -13 -14 0c-14,0 -28,0 -41,0 -14,0 -29,0 -43,0l-13 0 -3 13c-3,11 -5,22 -8,33 1,-9 2,-19 2,-28l2 -18 -18 0c-20,0 -39,0 -58,0l-15 0 0 0 -2 0c-19,0 -38,0 -58,0l-14 0 -2 14c-1,5 -2,10 -3,15 -5,-9 -13,-16 -22,-21 -14,-9 -32,-12 -48,-12 -19,0 -38,4 -54,14 -14,9 -26,19 -33,34 -8,15 -13,33 -17,49 -4,11 -6,22 -9,33 -3,11 -6,22 -9,33 -4,12 -7,25 -8,37 -1,11 1,21 6,30 7,11 18,16 29,19 13,3 26,3 39,0 11,-2 22,-6 31,-12 1,0 2,-1 3,-1l0 2 15 -3c14,-2 29,-4 43,-6l11 -2 3 -12c1,-7 2,-14 4,-21 1,3 4,6 6,9 9,9 21,14 33,17 14,3 29,3 44,2 13,-1 27,-4 40,-8 8,-3 15,-6 22,-11l-2 11 22 -1c22,0 44,-1 67,-1l16 0z"/>
   <path class="fil11" d="M302 1000c-21,1 -41,2 -62,4 2,-6 3,-12 4,-18 3,-12 4,-19 3,-22 0,-3 -2,-4 -6,-4 -4,0 -7,1 -9,4 -2,2 -4,9 -6,20 -4,16 -8,33 -12,49 -3,16 -7,33 -11,49 -2,10 -3,16 -2,18 1,3 3,4 8,3 4,-1 8,-3 10,-6 3,-4 5,-10 7,-20 2,-8 3,-16 5,-24 -4,1 -8,1 -12,2 2,-10 4,-21 7,-31 24,-2 48,-4 73,-6 -3,17 -6,34 -10,51 -3,17 -6,34 -9,51 -14,2 -28,4 -42,7 -2,-5 -3,-9 -4,-13 -6,7 -12,12 -20,17 -8,4 -17,7 -26,9 -12,3 -23,3 -32,1 -9,-2 -15,-6 -18,-12 -4,-6 -5,-12 -5,-19 1,-8 4,-19 8,-34 3,-11 6,-22 9,-33 3,-11 6,-22 9,-33 6,-21 11,-37 16,-47 5,-9 14,-18 27,-26 13,-8 27,-12 45,-12 17,0 30,3 40,9 10,6 16,13 18,22 2,8 1,20 -2,35 0,3 -1,6 -1,9zm167 -71c-2,19 -3,39 -5,59 -1,19 -3,39 -4,59 -1,13 -3,22 -4,28 -2,5 -6,11 -13,17 -6,6 -15,11 -25,14 -10,4 -22,6 -35,7 -16,1 -29,1 -40,-2 -11,-2 -19,-6 -23,-11 -5,-6 -8,-12 -7,-18 0,-7 1,-21 5,-42 3,-18 6,-37 9,-55 3,-19 6,-37 9,-56 20,0 39,0 58,0 -3,23 -5,45 -8,68 -3,22 -6,45 -9,68 -1,8 -1,13 0,15 1,2 3,3 6,3 4,-1 7,-2 9,-4 1,-3 2,-9 3,-18 3,-22 5,-44 8,-66 3,-22 5,-44 8,-66 19,0 38,0 58,0zm68 143c-2,10 -3,21 -5,31 -22,0 -44,1 -67,1 8,-29 15,-58 22,-88 7,-29 14,-58 20,-87 28,0 56,0 84,0 6,29 12,58 18,87 6,30 13,59 20,89 -22,-1 -44,-2 -66,-2 -1,-10 -2,-21 -3,-31 -8,0 -16,0 -23,0zm97 -143c14,0 27,0 41,0 27,0 46,1 56,2 10,2 18,7 25,14 7,8 11,19 13,35 2,15 1,25 -3,29 -4,5 -13,8 -26,8 12,3 21,7 26,11 4,4 7,8 9,11 1,4 3,13 5,28 1,9 2,17 3,25 1,8 2,17 3,25 -21,-2 -41,-5 -61,-6 -1,-11 -2,-21 -3,-31 -1,-10 -1,-20 -2,-30 -1,-10 -3,-16 -5,-18 -2,-3 -7,-4 -16,-4 1,13 2,27 3,40 1,14 2,27 3,41 -22,-2 -43,-3 -65,-4 -1,-29 -2,-59 -3,-88 -1,-29 -2,-59 -3,-88zm60 31c1,13 2,26 3,40 7,0 12,-1 14,-2 3,-1 4,-6 3,-14 0,-3 0,-7 -1,-10 0,-6 -2,-10 -5,-12 -2,-1 -7,-2 -14,-2zm92 -31c14,0 28,0 43,0 28,0 47,2 57,4 11,3 19,7 26,13 6,6 11,12 14,20 3,7 7,21 11,42 3,13 6,26 9,39 3,13 6,26 9,39 4,20 6,33 5,39 0,6 -3,10 -8,13 -5,2 -11,3 -19,3 -8,-1 -20,-3 -37,-6 -28,-6 -56,-10 -84,-15 -5,-31 -9,-63 -14,-95 -4,-32 -8,-64 -12,-96zm64 35c3,22 7,44 11,66 4,23 8,45 12,67 9,1 15,1 16,-2 2,-3 1,-11 -1,-25 -3,-13 -5,-26 -8,-40 -2,-13 -5,-26 -7,-40 -2,-9 -3,-15 -4,-18 -2,-3 -3,-4 -6,-6 -3,-1 -7,-2 -13,-2zm-301 4l-12 73 21 0 -9 -73z"/>
  </g>
 </g>
</svg>
